<?xml version="1.0" encoding="utf-8"?>
<!-- Generator: Adobe Illustrator 21.0.0, SVG Export Plug-In . SVG Version: 6.00 Build 0)  -->
<svg version="1.1" id="Layer_1" xmlns="http://www.w3.org/2000/svg" xmlns:xlink="http://www.w3.org/1999/xlink" x="0px" y="0px"
	 viewBox="0 0 385.5 425.2" enable-background="new 0 0 385.5 425.2" xml:space="preserve">
<path fill-rule="evenodd" clip-rule="evenodd" d="M122.5,20.2c0.1-4.7,0.2-8.2,0-10.5c-0.3-2.3-1-3.2-2-4c-1-0.7-2.1-1.2-3.2-1.3
	c-1.1-0.1-2.1,0.2-3.1,0.5c-1,0.3-2,0.4-4.9,3.5c-2.9,3.1-7.6,9.2-12.4,15.2c-4.8,6-9.7,12-13.2,16.2c-3.5,4.2-5.5,6.5-6.9,8.1
	c-1.4,1.6-2.1,2.5-2.7,3.4c2.4,2.9,4.8,5.8,6.7,7.6c1.9,1.8,3.4,2.4,4.9,3c2.6-3.6,5.1-7.3,7.4-11.1c2.3-3.9,4.3-7.9,6.5-12
	c2.2-4.1,4.5-8.3,6.7-11.4c2.2-3.1,4.4-5,6.8-6.5c0.2,4,0.4,8.1,0.4,12c0,3.9-0.1,7.8,0.5,10.3c0.6,2.5,1.9,3.7,3.2,4.6
	c1.4,1,2.8,1.7,4.2,2c1.4,0.2,2.8-0.1,4-0.5c1.2-0.4,2.2-1,5.4-3.2c3.2-2.2,8.6-6,15.7-10.8c7.2-4.9,16.1-10.8,23.2-14.9
	c7.1-4.1,12.4-6.4,17.9-8.1c-1.2,3-2.6,6-4.2,8.8c-1.6,2.7-3.3,5.3-5,7.8c-1.7,2.6-3.4,5.1-4.9,8.4c-1.4,3.3-2.6,7.2-2.8,10.1
	c-0.2,2.9,0.7,4.8,1.7,6c1,1.2,2.2,1.8,6.2,1.5c4-0.3,10.8-1.4,17.7-2.3c6.9-1,13.8-1.8,18.6-2.4c4.9-0.6,7.7-1,10.8-1.3
	c3.2-0.4,6.7-0.8,9.5-0.9c2.8-0.2,5-0.1,7.2,0.1c-3.8,3.8-7.6,7.6-11.2,11.3c-3.6,3.8-7.2,7.5-9.3,9.9c-2.1,2.5-2.7,3.7-2.7,4.8
	c0,1.1,0.6,2,1,3c0.5,1,0.8,2.1,5,4.1c4.2,2,12.2,4.9,20.4,7.9c8.2,3,16.7,6,25.2,8.8l-24.8,9.6c4.7,1,9.5,1.1,15.3,0.2
	c5.8-0.9,12.6-2.9,16.3-4.6c3.7-1.7,4.2-3,4.2-4.3c-0.1-1.3-0.7-2.5-1.6-3.5c-0.8-1-1.8-1.8-3.5-2.8c-1.7-1-4.2-2.2-7-3.4
	c-2.8-1.2-5.9-2.3-10.9-3.8c-5-1.5-11.9-3.3-17.1-4.8c-5.2-1.5-8.6-2.6-10.8-3.5c-2.2-1-3.2-1.8-3.9-2.8c2.1-2.7,4.5-5.3,7.3-7.8
	c2.8-2.5,6.1-5.1,9.4-7.7c3.3-2.6,6.6-5.4,8.7-7.8c2.1-2.4,3-4.4,2.8-6c-0.2-1.6-1.5-2.7-2.8-3.4c-1.3-0.7-2.6-1.1-7.9-0.7
	c-5.3,0.4-14.6,1.6-24.1,2.7c-9.5,1.1-19.2,2.2-25.3,2.9c-6.2,0.7-8.8,1.2-10.5,1.3c-1.7,0.1-2.6-0.1-3.3-0.5
	c1.4-4.9,3.3-9.7,5.3-13.5c2-3.9,4.2-6.8,6.7-10.3c2.5-3.5,5.2-7.5,6.7-10c1.4-2.5,1.5-3.6,1.7-4.5c0.2-0.9,0.4-1.6,0.2-2.6
	c-0.2-1-0.9-2.3-1.8-3.5c-0.9-1.2-2-2.2-4.6-2.6c-2.7-0.4-6.9-0.2-12,1.3c-5.1,1.5-11,4.4-16.3,7.1c-5.3,2.7-10,5.2-17.4,9.7
	c-7.4,4.6-17.4,11.2-27.2,18.2C122.4,30.7,122.4,24.9,122.5,20.2z M45.9,75.5c1.1,1,2.5,1.7,3.8,1.5c1.3-0.2,2.6-1.3,3.4-2.8
	c0.8-1.4,1.1-3.2,1.5-6c0.4-2.9,0.7-6.8,1.4-10.9c0.7-4.1,1.7-8.5,2.6-12.5c0.9-4.1,1.6-7.9,1.6-10.1c0-2.1-0.8-2.6-1.6-2.8
	c-0.8-0.2-1.7-0.2-2.7,0.5c-1,0.8-2.2,2.3-3.2,4.1c-1,1.8-1.7,3.8-2.7,7c-0.9,3.1-2.1,7.4-3.6,11.3c-1.5,3.9-3.5,7.6-4.1,10.3
	c-0.6,2.8,0,4.6,0.8,6.3C43.8,73.1,44.7,74.5,45.9,75.5z M34.9,62.9c-1.3-2.6-2.6-4.9-3.7-6.8c-1.1-1.9-2-3.5-3.1-4.4
	c-1.1-1-2.3-1.4-3.5-1.3c1.1,4.9,2.3,9.7,3.4,15.2c1.1,5.5,2.2,11.6,4.5,14c2.3,2.5,5.8,1.3,7.1-1c0.1-2.5-0.2-5-1.1-7.6
	C37.7,68.4,36.2,65.5,34.9,62.9z M8.8,84.8c2.3,2.5,4.8,4.7,7.9,7c3.1,2.3,6.8,4.7,9.6,4.2c2.8-0.5,4.7-4,4.7-7.2c0-3.2-2-6.2-3.5-9
	c-1.5-2.8-2.6-5.4-3.7-7.9c-1.1-2.5-2.2-4.9-3.8-6c-1.6-1.2-3.7-1.1-5.3-0.1c2.1,4.2,4.1,8.4,5.7,12.2C22,81.7,23,85.1,24,88.6
	c-2.4-1-4.7-2-7.2-2.6C14.2,85.3,11.5,85.1,8.8,84.8z M157.7,85.3c4.1-0.6,9-1.2,12.7-1.7c3.7-0.4,6.4-0.7,9-1.3
	c2.6-0.6,5-1.6,3.3-2.5c-1.7-0.9-7.7-1.7-13-1.8c-5.3-0.1-9.9,0.5-13.9,1.1c-3.9,0.5-7.2,0.9-9.7,2.1c-2.5,1.2-4.4,3.1-4.2,4.2
	c0.2,1.1,2.5,1.3,5.4,1.2C150.1,86.5,153.6,85.9,157.7,85.3z M216.2,94.5c1.2-0.8-1-2.7-4.7-4c-3.7-1.3-8.9-2.2-12.7-2.6
	c-3.8-0.4-6.3-0.5-10.4,0.3c-4.1,0.8-9.8,2.5-9.7,3.6c0,1.1,5.8,1.7,11.3,2.1c5.5,0.4,10.6,0.7,15.5,1
	C210.3,95.1,215,95.3,216.2,94.5z M63,109.4c2.3,0.7,5.6,1.8,8.6,2.8c3,1,5.7,1.9,6.6,1.7c0.9-0.2,0-1.7-1.3-2.5
	c-1.4-0.8-3.2-1.1-4-2.3c-0.8-1.1-0.4-3.2-0.4-4.6c0-1.4-0.2-2.3,0.4-2.3c0.6,0,2.1,0.9,3.7,1.6c1.6,0.7,3.2,1.3,4.2,1
	c1-0.2,1.3-1.3-0.1-2.4c-1.4-1.1-4.5-2.3-7.7-3.3c-3.2-1.1-6.4-2-8.5-2.4c-2.1-0.4-3-0.3-3.8,0.1c1.4,1.8,2.8,3.6,4,5.1
	c1.3,1.5,2.4,2.8,1.9,3.5c-0.5,0.7-2.5,1-4.9,0.9c-2.3-0.1-5-0.4-5.6-0.2c-0.7,0.2,0.6,1,1.9,1.5C59.4,108.3,60.7,108.7,63,109.4z
	 M65.1,116.1c-4-0.7-8-1.9-8.9-1.2c-0.9,0.7,1.3,3.2,3.7,4.7c2.3,1.5,4.8,2.1,7.7,3c2.9,1,6.2,2.4,7.8,1.5c1.7-0.8,1.7-3.9-0.3-5.6
	C73.1,117,69.1,116.8,65.1,116.1z M115.6,148.8c-0.3-0.7-0.4-1.5-0.4-2.2c0.1-0.7,0.4-1.4,0.9-2c1-1.2,2.7-1.8,4.3-1.6
	c0.8,0.1,1.6,0.4,2.2,0.9c1.4,1,2,2.5,1.9,3.9c-0.1,0.7-0.4,1.4-0.9,2c-1,1.2-2.7,1.8-4.3,1.6c-0.8-0.1-1.6-0.4-2.2-0.9
	C116.5,150.1,116,149.5,115.6,148.8z M152.5,178.3c-2.3-0.3-6.2-1-10.8-2c-4.6-1.1-9.8-2.5-14.1-4.5c-4.4-2-7.9-4.7-10.1-7.7
	c-2.1-3-2.8-6.4-2.3-9.5c1.2,0.2,2.3,0.3,4.6,0.3c2.3,0,5.6-0.1,8.4-1.3c2.8-1.3,4.9-3.8,6-6.6c3.8,4.2,7.6,8.4,11.4,12.4
	c3.8,4,7.5,7.8,9.3,10.3c1.9,2.5,1.9,3.9,1.9,5.1c0,1.2-0.2,2.3-0.5,3.4C155.6,178.4,154.9,178.5,152.5,178.3z M178.9,192.1
	c-0.8-0.7-1.2-1.8-1.1-2.9c0.1-0.5,0.2-1,0.5-1.4c1-1.2,2.4-1.6,4-0.3c0.8,0.7,1.2,1.8,1.1,2.9c-0.1,0.5-0.2,1-0.5,1.4
	C182,193,180.5,193.3,178.9,192.1z M199.9,199.5c-2,0.9-5.3,1.6-8.1,2c-1.5,0.2-3,0.3-4.1,0.1c-1.1-0.2-1.8-0.6-2.5-0.9
	c-0.7-0.3-1.3-0.5-1.9-1c-0.6-0.5-1-1.3-1.4-2.1c-0.3-0.8-0.5-1.5,0.1-2.2c0.6-0.7,2-1.2,3.3-2.1c1.3-0.8,2.3-1.9,4.1-2
	c1.7,0,4.1,1,6.3,2.3c2.2,1.2,4.2,2.7,5.9,4.3C201.3,198.6,200.9,199,199.9,199.5z M49.9,216.8c5.5,0.8,11,1.6,16.2,2.5
	c5.2,0.9,10,1.8,14.9,2.8c0.1-1-0.5-2-2.6-2.7c-2.1-0.8-5.9-1.3-10.6-2.1c-4.7-0.7-10.4-1.7-16.1-2.5c2.5-3,5.5-5.5,8.8-7.2
	c3.3-1.7,6.7-2.6,10.4-2.6c3.7,0,7.6,0.9,12.4,2.1c4.8,1.3,10.5,3,15.4,4.9c4.9,2,9,4.2,12.6,7.1c3.6,2.8,6.6,6.2,9.1,10.2
	s4.5,8.5,5.7,13.2c-4.6,1.5-9.1,2.9-17.2,4.8c-8.1,1.9-19.6,4.3-31.2,6.7l-0.7-14c-6-1.7-12-3.5-18.5-5c-6.4-1.5-13.3-2.7-20.1-4
	C41.9,226.3,45.6,221.5,49.9,216.8z M31.5,241.1c1.5-2.5,3.3-4.7,5.1-7c6.7,1.1,13.3,2.1,19.8,3.6c6.4,1.5,12.7,3.4,18.9,5.3v19
	L27.5,249C28.7,246.3,30,243.6,31.5,241.1z M127,252.6c0.2,2.3,0.3,4.6,0.5,6.8c-5.3,1.1-10.5,2.2-18.7,3.7
	c-8.1,1.4-19.2,3.2-30.2,5c-0.1-3.8-0.4-7.7-0.8-11.5c6.3-0.9,12.6-1.8,20.7-3.7c8.1-1.9,18.1-4.7,28-7.5
	C126.7,247.8,126.8,250.3,127,252.6z M15.9,272.7l3.9-9.3l5.8-11.4l49.7,12.7l0.2,18.2c-7.2-1.7-14.5-3.3-24.4-5
	C41.1,276.2,28.5,274.4,15.9,272.7z M127.9,276.7c-4.1,1.1-8.2,2.1-12.6,3.1c-4.5,1-9.3,2.1-15.1,2.9c-5.9,0.9-12.7,1.6-19.7,2
	c-0.2-2.9-0.5-5.8-0.7-8.1c-0.2-2.2-0.5-3.8-0.7-5.3c7.6-0.9,15.3-1.7,23.4-3.4c8.1-1.6,16.7-4,25.3-6.4
	C128.5,266.6,128.5,271.6,127.9,276.7z M75.3,285.8c0,2.7,0,5.5,0.1,8c0.1,2.5,0.3,4.7,0.5,6.9c-3.7-0.3-7.3-0.5-10.9-0.9
	c-3.6-0.3-7.1-0.6-13.2-1.5c-6.1-0.8-14.7-2.2-22.3-3.7c-7.6-1.4-14.1-3-20.5-4.7c0.8-2.8,1.6-5.6,2.6-8c0.9-2.4,2-4.5,3-6.5
	c6,1.1,12.1,2.2,22.2,3.9C46.9,281.1,61.1,283.4,75.3,285.8z M128.5,293.2c-1.6,0.5-3.3,1-5.6,1.5c-2.3,0.5-5.3,1-8.2,1.4
	c-2.8,0.4-5.5,0.7-11,1.2c-5.5,0.4-13.7,1-21.9,1.5l-0.9-10.6c7.7-0.6,15.5-1.3,23.4-2.5c7.9-1.2,15.8-3.1,23.8-5L128.5,293.2z
	 M87.1,304l1.3,14.5c-0.9,0.3-1.9,0.4-4.1,0.2c-2.2-0.2-5.8-0.6-9.4-0.9c-3.6-0.3-7.3-0.6-13.5-1.4s-14.8-2.1-24.7-4.2
	c-9.9-2.1-21.1-5.1-32.1-8.4c0.5-1.9,1.1-3.8,1.7-5.5c0.6-1.7,1.3-3.2,2-4.7c9,2.1,18.1,4,24.3,5.2c6.2,1.2,9.6,1.7,12.9,2.2
	c3.4,0.5,6.8,0.9,10.6,1.3c3.7,0.4,7.7,0.9,12.9,1.2C74.2,303.7,80.6,303.9,87.1,304z M108.1,327.7c-2,4.3-3.5,7.5-5.1,9.9
	c-1.6,2.4-3.4,3.9-5.5,4.9c-1.1-2.7-1.9-5.4-2.6-8.4c-0.7-3-1.2-6.1-1.6-9.6c-0.7-7-1.3-15-2.6-22.4c5.6-0.2,11.1-0.4,16-0.7
	c4.9-0.4,9.1-0.9,13.3-1.4c-0.4,1.5-0.9,2.9-1.7,5.1c-0.8,2.1-2.1,5-3.9,9C112.5,318.1,110,323.4,108.1,327.7z M344.8,277.1
	c1.6-4.1,4.1-7.9,7-10.8c2.9-2.9,6.3-5,10.1-6.3c3.8-1.3,8-1.7,10.4-2.5c2.4-0.9,3.2-2.2,3.1-3.9c0-1.7-0.8-3.9-2.9-5.3
	c-2.1-1.4-5.4-2-8.5-1.3c-3,0.6-5.8,2.5-8.1,4.3c-2.3,1.8-4.1,3.6-5.9,6.3c-1.8,2.8-3.7,6.6-4.7,10
	C344.4,271,344.2,274.1,344.8,277.1z M296.4,281.1c2.5,1.3,5.1,3.3,7.7,5.4c2.6,2.1,5,4.4,7.3,6.8c-0.6-3.2-1.6-6.4-3-9.2
	c-1.5-2.8-3.3-5.3-5.4-7.8c-2.1-2.6-4.3-5.2-7.2-7.1c-2.8-1.8-6.3-2.9-9.3-2.6c-3,0.2-5.6,1.7-6.5,3.8c-0.9,2.1,0,5,1.8,6.4
	c1.8,1.4,4.6,1.5,7.1,1.9C291.5,279,293.9,279.7,296.4,281.1z M35.7,324c-1.6,4.3-3.1,8.7-3,13.2c0.2,4.6,2,9.3,3.9,14.1
	c-4.3,0.7-8.8,1-13.5,0.9c-3.6-3.3-6.5-7.5-8.3-12.3c-1.8-4.9-2.6-10.4-2.4-15.4c0.1-5,1.1-9.6,3-13.7c4.2,1.2,8.4,2.3,15.9,4
	c7.5,1.7,18.3,4,26.3,5.3c8,1.4,13.1,1.8,17.9,2.1c4.8,0.3,9.1,0.5,13.5,0.6l3.7,19.9c-7.9,1.9-15.9,3.8-24,5.3
	c-8.1,1.4-16.4,2.4-24.7,3.4c-2.3-3-4.6-6-6-10.6C36.6,336.2,36.1,330.1,35.7,324z M377.6,286c2.3,0.4,4.3,0.5,5.6-0.1
	c1.4-0.6,2.1-2,2.5-3.5c0.3-1.5,0.3-3-0.7-4.6c-1-1.6-3-3.2-6.1-3.8c-3.1-0.6-7.3,0-10.7,1.6c-3.5,1.6-6.2,4.3-8.3,6.8
	c-2.2,2.5-3.8,4.9-5,7.4c4.9-2.3,10.1-3.9,14.1-4.4C372.8,284.9,375.4,285.6,377.6,286z M307.6,309.4c-2.5-3-5.4-5.7-8.9-8.2
	c-3.5-2.5-7.6-4.8-11.5-5.8c-3.9-1.1-7.7-1-10,0.8c-2.3,1.8-3.1,5.2-2.3,7.6c0.7,2.5,3,4,6.1,3.9c3.1-0.1,7.1-1.9,11.8-2.1
	S302.8,306.9,307.6,309.4z M94.2,348.6c0.2-0.7,1.6-1.6,3.4-2.3c1.8-0.7,4.1-1.1,5.5-0.6c1.4,0.5,1.9,1.8,1.6,2.6
	c-0.3,0.8-1.5,0.9-2.6,1.2c-1,0.3-1.9,0.7-2.9,0.8c-1,0.1-2.1,0-3.2-0.3C94.9,349.8,94,349.3,94.2,348.6z M367,309.1
	c2.2,0.8,4.3,1,6.1,0.2c1.8-0.7,3.4-2.4,3.6-4.1c0.2-1.7-1-3.4-4-4.5c-2.9-1.1-7.6-1.7-11.7-1.5c-4,0.1-7.5,1-10.3,2.6
	c-2.8,1.6-5,4.1-6.4,6.9c4.9-1.5,10.2-2.3,14-2C362.3,307,364.8,308.4,367,309.1z M85.5,352.2c-1.3,0.5-3.4,0.9-7.3,1.5
	c-3.9,0.7-9.6,1.6-14.4,2.4c-4.7,0.8-8.5,1.5-10.8,1.5c-2.4,0-3.4-0.8-4.2-1.6c-0.8-0.8-1.5-1.7-0.3-2.3c1.3-0.6,4.5-0.8,7.8-1.2
	c3.3-0.4,6.8-0.8,12-1.3c5.2-0.4,12.3-0.8,19.3-1.1C87.3,351.1,86.8,351.7,85.5,352.2z M57.9,370c1.3,1.9,3.4,4.5,5.8,6.1
	c2.4,1.6,5,2.1,8.1,1.8c3.2-0.4,6.8-1.6,9.3-3.2c2.5-1.6,3.7-3.6,3.6-6.5c-0.2-2.9-1.7-6.9-4.1-9.9l27.1-5.8
	c0.3,1.3,0.9,2.6,1.8,3.6s1.9,1.8,2.4,2.8c0.5,1,0.3,2.2-0.1,3.6c-0.4,1.4-1.1,2.9-1.4,4.5c-0.3,1.6-0.3,3.2-0.1,4.5
	c0.3,1.3,0.8,2.2,1.3,3.2c0.5,1,1,2,1.6,1.1c0.6-0.8,1.2-3.5,2-6.3c0.8-2.8,1.9-5.8,3-8.8c1.6,0.9,3.2,1.8,4.9,2.7
	c1.8,0.9,3.7,1.8,5.1,2.5c1.4,0.8,2.4,1.4,3.3,2.2c0.8,0.8,1.5,1.9,1.6,3.1c0,1.2-0.6,2.5-2.2,3.2c-1.6,0.7-4.2,0.8-6.9,1.9
	c-2.8,1.1-5.8,3.1-8.4,4.8c-2.6,1.7-4.7,3.1-9.4,4c-4.7,0.9-12.1,1.2-17.9,1.1s-10-0.4-13.3-0.8c-3.4-0.4-5.9-0.7-8.5-0.8
	c-2.6-0.1-5.2,0-7.2-0.2c-2-0.2-3.3-0.8-4.7-2.9c-1.4-2.1-2.8-5.8-4.3-9.4c-1.5-3.6-3-7.2-4.5-10.8c1.5-0.2,2.9-0.2,4.3-0.2
	c1.4,0,2.8,0,3.7,0.8c0.9,0.8,1.3,2.3,1.8,3.7C56.1,366.8,56.6,368,57.9,370z M24.7,356.2c4.1-0.1,8.5-0.7,13.1-1.5l1.5,3.8
	c-4.4,1-8.7,1.7-13,2.1L24.7,356.2z M69.7,362.8c-1.4,0.9-4,2-6,2.1c-2,0.1-3.5-0.9-1.9-2c1.6-1.1,6.2-2.4,9.6-2.7
	C71.6,361.1,71.2,361.9,69.7,362.8z M34.2,362.1c2.2-0.4,4.2-1,6.2-1.6c1.6,3,3.2,6.1,4.9,9.1l-14.8,3.3c-0.2-1.4-0.4-2.8-0.9-4.5
	c-0.5-1.6-1.4-3.5-2.2-5.4C29.7,362.8,32,362.5,34.2,362.1z M65.5,370.5c-0.7-0.6-1.1-1.4-0.3-2.2s2.9-1.6,5.4-2
	c2.5-0.4,5.4-0.4,8.2,0.1c-1.3,1.7-3,3.1-4.9,4c-1.9,0.9-3.9,1.2-5.4,1.1C67.1,371.5,66.2,371.1,65.5,370.5z M46.8,372.4
	c1,3.6,2.1,7.1,3.9,9.9c1.9,2.8,4.5,4.7,7.2,6.7c-1.7,0.5-3.4,0.7-5.5,0.4c-2.1-0.3-4.6-1.1-6.9-1.9c-2.3-0.8-4.5-1.6-6.9-3.6
	c-2.4-1.9-5-5-7.1-8.3L46.8,372.4z M39.7,402c-0.7,1.3-1.2,2.5-1.6,3.8c-2.5,0-5-0.1-7.8-0.6c-2.8-0.4-5.8-1.1-8.2-1.7
	c-2.5-0.6-4.4-1-5.5-2.1c-1.1-1.1-1.5-2.9-1-5.2c0.5-2.3,1.7-5,3.7-7c2-1.9,4.8-3.1,6.8-3.8c2-0.7,3.3-0.9,4.7-0.9
	c2,1.6,3.9,3.2,6.1,4.6c2.2,1.4,4.7,2.6,7.1,3.9c-0.4,1.7-1,3.3-1.8,4.8C41.4,399.4,40.5,400.7,39.7,402z M100.3,388.4
	c2.2,0.1,3.4,0.5,4.1,1.1c0.8,0.6,1.2,1.4,1,2.3c-0.3,0.9-1.2,2-3.2,2.5c-2,0.6-5,0.6-8.5,1c-3.5,0.3-7.5,0.9-12.1,0.3
	c-4.7-0.6-10-2.4-14.9-5c0.1-0.7,0.7-1.3,2.2-1.7c1.5-0.3,4.1-0.4,8-0.5c3.9,0,9.2,0,13.5,0C94.7,388.3,98,388.2,100.3,388.4z
	 M48.7,400.8c1.2-2,2.4-3.8,4.1-4.5c1.7-0.7,3.7-0.4,6.2,0.1c2.5,0.5,5.4,1.2,8.1,1.8c2.7,0.6,5.3,1,9.9,1.4
	c4.5,0.4,11,0.6,15.6,0.6c4.6-0.1,7.2-0.4,9.7-1c2.5-0.6,4.7-1.4,6-2.5c1.3-1.1,1.7-2.5,2.1-3.8c0.5-1.3,1.1-2.6,2.3-3.2
	c1.2-0.6,2.9-0.5,3.4,1.8c0.5,2.3-0.2,6.8-1.7,10.2c0.8-0.2,1.6-0.6,2.7-1.3c1.2-0.7,2.7-1.8,4-3.4c1.3-1.5,2.5-3.5,3.3-2.9
	c0.8,0.6,1.3,3.8,2.1,4.6c0.7,0.8,1.7-0.8,2.7-2.8c1-1.9,1.9-4.2,3.3-5.6c1.4-1.4,3.2-2.1,5-2l-0.3,13.3c1.2-0.7,2.2-1.6,3.5-3
	c1.3-1.4,2.8-3.2,4-5.1c1.3-1.8,2.3-3.6,3.2-5.4c2.5-0.1,5.1,0.9,6.8,2.7c1.7,1.8,2.4,4.3,1.2,6.7c-1.2,2.3-4.4,4.5-9.1,6.5
	c-4.6,2-10.7,3.9-17.5,5.3c-6.8,1.4-14.3,2.2-21,2.8c-6.6,0.5-12.4,0.8-18.5,0.7c-6-0.1-12.4-0.5-17.1-0.9
	c-4.8-0.4-7.9-0.7-12.2-1.4c-4.3-0.7-9.6-1.7-14.9-3C46.5,405.1,47.6,402.8,48.7,400.8z M24.1,407.7c2.4,0.5,4.5,0.7,6.6,0.7
	c2.2,0.1,4.5,0,5.8,0.6c1.4,0.6,1.8,1.9,1,2.6c-0.9,0.8-3.1,1-5.4,1.2c-2.4,0.2-4.8,0.3-8.1-0.3c-3.2-0.6-7.2-1.8-9.4-2.9
	s-2.7-2.1-3-3.2c-0.3-1.1-0.4-2.3,0.4-2.5c0.8-0.2,2.6,0.7,4.8,1.6C19,406.3,21.7,407.1,24.1,407.7z M44.3,409.4
	c2.2,0.9,4.5,1.7,7.5,2.5c3,0.9,6.6,1.8,11.2,2.6c4.5,0.8,9.9,1.3,14.7,1.7c4.8,0.4,9,0.7,14.8,0.7c5.9,0,13.4-0.3,20.7-1
	c7.2-0.6,14.2-1.6,21.7-3.5c7.6-2,15.8-5,23.7-8.7c0.6,1.3,0.6,2.8-0.1,4c-0.7,1.2-2.1,2.1-4.2,3c-2.1,0.9-5,2-7.7,2.9
	c-2.8,0.9-5.5,1.7-10.8,2.8c-5.2,1.1-13,2.5-19.2,3.5c-6.2,1-10.8,1.5-16.2,1.8c-5.4,0.4-11.5,0.6-16.8,0.5c-5.4-0.1-9.9-0.5-14.5-1
	c-4.6-0.5-9.2-1.1-13.6-2.3c-4.5-1.2-8.8-3-12.8-5.2L44.3,409.4z M289.5,222.6c4.4,1.8,8.7,5.5,12.6,10.1c3.9,4.6,7.5,10.1,10,16.2
	c2.5,6.1,4,12.8,5.1,17.2c1.1,4.4,1.9,6.5,2.8,7.9c0.9,1.4,1.9,2.1,2.4,4.6c0.5,2.4,0.5,6.5,0.7,10.5c0.2,4,0.6,7.8,1.1,11.1
	c0.4,3.3,0.9,6.1,1.4,9c1.6-1.4,3-3.1,3.7-4.6c0.7-1.5,0.8-2.9,1.1-4.3c0.3-1.4,0.8-2.7,1.6-2.6c0.7,0.2,1.6,1.8,2.7,2.3
	c1.1,0.5,2.4-0.1,3-1.1c0.3-2.4,0.4-4.8,0.3-7.7c-0.1-2.9-0.3-6.3-1.4-10.3c-1-4-2.9-8.8-4.3-11.8c-1.4-3-2.5-4.4-2.5-5.6
	c0-1.3,0.9-2.4,1-3.5c0-1-0.9-2-1.6-3.1c-0.7-1.1-1.2-2.4-1.4-3.9c-0.2-1.5,0-3.1-1.5-5.9c-1.6-2.8-4.9-6.7-8-10.7
	c-3.2-4-6.2-8-9.4-11.4c-3.2-3.4-6.6-6.2-10.3-8.4c-3.8-2.1-7.9-3.6-13.1-4.1c-5.2-0.5-11.3,0.1-17.1,1.3
	c-5.8,1.2-11.2,3.1-16.6,5.3c-5.4,2.2-10.6,4.7-16.5,7.9c-5.9,3.3-12.4,7.4-18.5,11.6c-6.1,4.2-11.7,8.6-19.1,14.6
	c-7.4,6-16.5,13.5-28.6,24c-12.1,10.5-27.1,24.1-36.9,33.1c-9.7,9-14.1,13.5-18.3,18.2c4-10.2,8.3-20.2,13.1-30.2
	c2-0.7,3.8-1.4,5.7-2.3c0.7-8,1.5-16,1.4-23.5c-0.1-7.5-1-14.4-1.9-21.3c3.8,1.5,7.8,2.6,11.6,3.3c3.8,0.8,7.3,1.1,11.3,1.1
	c4-0.1,8.4-0.5,12.7-1.6c4.3-1.1,8.3-2.7,11.5-4.4c3.2-1.6,5.4-3.3,7.5-5c2.1-1.7,3.9-3.6,5.5-5.4c1.6-1.8,2.8-3.6,4-5.7
	c1.2-2.2,2.3-4.7,3.2-7.5c0.8-2.8,1.4-5.8,3.4-8.7c2-2.9,5.4-5.8,8.4-8.9c3.1-3.1,5.9-6.5,9.4-11c3.5-4.5,7.7-10.3,11.2-16.3
	c3.5-6,6.3-12.4,8.1-17c1.9-4.6,2.8-7.5,3.7-10.5c0.8-3,1.6-6.1,2.2-8.5c0.6-2.3,1.1-3.9,1.6-5.5c2.2,0.3,4.4,0.9,6.6,1.7
	c2.2,0.9,4.5,2.1,6.9,2.9c2.4,0.9,9.2,3.2,7.3,1.6c4.8,0.9-7.5-6.1-11-8c-3.5-1.9-6.6-2.6-9.8-3.2l-0.1-12.1
	c3.6,2.2,7.3,4.3,11.3,6.8c4.1,2.4,8.5,5.1,13,7.7c1.2-0.5,1.9-1.9,0.9-3.7c-1-1.8-3.6-4-6.1-5.6c-2.5-1.7-4.9-2.9-7.8-4.3
	c-3-1.4-6.5-3.1-10.1-4.6l1.6-2.6c7.3,2.7,14.6,5.4,18.6,6.2c3.9,0.8,4.4-0.3,4.9-1.5c-3.8-2.4-7.8-4.5-11.8-6.1
	c-3.9-1.6-7.8-2.8-11-3.7c-3.2-0.9-5.8-1.4-7.5-0.5c-1.6,0.9-2.3,3.1-1.8,4.9c-2.1-0.5-4.1-1-6.6-1.5c-2.4-0.5-5.2-1-7.1-0.8
	c-1.9,0.2-2.9,1.3-3.2,2.5c2.6,0,5.3,0,8,0.6c2.8,0.6,5.6,1.8,8.5,3c1,4.5,1.5,8.8,1.1,13.1c-5.3-0.9-10.6-1.9-13.2-1.3
	c-2.6,0.6-2.7,2.6-2.7,4.7c2.9,0.3,5.7,0.6,8.3,1c2.6,0.4,4.9,0.8,7.2,1.3c-0.5,4.1-1.2,8.1-2.1,11.9c-0.9,3.8-2,7.5-4.1,13
	c-2.1,5.5-5.3,12.9-8.7,18.8c-3.4,5.9-7.1,10.5-9.7,13.5c-2.7,3-4.4,4.5-6.2,5.7c-2.1-3.6-5-6.7-9.4-9.3c-4.4-2.6-10.3-4.8-14.6-6.3
	c-4.3-1.5-7-2.3-9.7-2.9c2.5-2.6,4.9-5.1,5.8-7.7c0.9-2.6,0.3-5.2-0.3-7.8c-1.3,1-2.5,2.2-3.5,3.7c-1.1,1.5-2,3.3-3.1,5
	c-1.1,1.6-2.3,3-3.3,3.9c-0.9,0.9-1.6,1.3-2.3,1.6c1.5-3.6,3-7.3,4-10.4c1-3.1,1.4-5.6,1.8-8.1c-1.5,1.7-2.9,3.5-4.4,5.5
	c-1.5,2-3.1,4.3-4.2,5.6c-1.1,1.3-1.7,1.7-2.4,2c-3.2-7.2-7.1-14.1-11.2-19.8c-4.1-5.7-8.4-10.3-13.2-14.5
	c-4.8-4.3-10-8.2-15.1-11.5c-5.1-3.3-10.2-5.9-15.4-7.9c-1.3,1.3-2.6,2.7-3.6,4.1c-1.1,1.3-1.9,2.6-1.7,4.2c0.3,1.5,1.7,3.4,2.8,5.5
	c1.1,2.1,1.9,4.5,2.6,7.2c0.7,2.8,1.2,6,1.4,9.3c0.2,3.4,0,6.9,0.2,9.2c0.2,2.3,0.9,3.5,1.6,4.7c0.7,1.2,1.3,2.3,2.8,3.5
	c1.5,1.2,4,2.5,6.7,3.6c2.7,1.1,5.6,2.1,10.7,3.3c5.1,1.2,12.5,2.7,18.7,4.1c6.1,1.4,11,2.7,14.1,3.5c3.1,0.9,4.4,1.3,5.5,2.3
	c2.2,1.9,4.3,5.9,5.4,9.2c0.5,1.6,0.7,3,0.8,4.5c0.1,1.5,0.2,3.1-0.2,4.5c-0.3,1.4-1.1,2.7-2,3.9c-0.9,1.2-1.9,2.4-3.9,3.4
	c-2,1.1-4.8,2-7.9,2.3c-3.1,0.3-6.5-0.2-9.4-1.1c-3-0.9-5.6-2.3-7.3-4.2c-1.7-1.9-2.6-4.3-3-6.1c-0.4-1.8-0.2-3.1-0.2-4.4
	c0.1-1.4,0.1-2.8-0.7-3.5c-0.8-0.7-2.4-0.7-3.3,0.1c-1.7,1.5-1.5,5.1-0.7,7.8c0.4,1.4,1.2,2.6,1.9,3.9c0.7,1.3,1.5,2.7,2.8,3.9
	c1.3,1.2,3.3,2.3,5.3,3.3c2,1,4.2,1.9,6.5,2.5c2.3,0.6,4.8,0.8,7.9,0.7c3.1-0.1,6.9-0.5,10-2c3.2-1.5,5.8-4,7.4-5.8
	c1.6-1.9,2.2-3.2,2.3-4.5c5.3-0.3,10.6-0.5,14.5-0.5c3.9,0,6.4,0.3,8.9,0.5c-1.3,2.5-2.9,4.9-4.3,6.5c-1.4,1.6-2.7,2.4-3.8,3.5
	c-1.1,1.1-2.1,2.5-2.7,4.1c-0.6,1.6-0.8,3.4-1.2,5.1c-0.8,3.3-2.8,7.1-5.2,11c-1.2,1.9-2.5,3.6-4,5.2c-1.5,1.6-3.3,3-5.3,4.3
	c-2,1.3-4.2,2.5-7.7,3.7c-3.5,1.3-8.3,2.6-13.4,3.2c-5.2,0.5-10.8,0.2-15.1-0.4c-4.2-0.6-7.1-1.5-9.1-2.3c-2-0.8-3-1.3-3.9-2.3
	c-0.9-1-1.5-2.4-1.8-4.5c-0.2-2.1,0-5,0.6-7.7c5,2.8,10.6,4.8,16,5.6c5.4,0.8,10.5,0.5,15.3-0.5c4.8-1,9.3-2.8,12.5-4.9
	c3.1-2.1,4.8-4.5,6.9-5.1c2.1-0.6,4.5,0.8,5.2,0.5c0.6-0.2-0.6-2-1.9-3.5c-1.3-1.5-2.6-2.6-4.1-3.5c-1.5,2.5-3.4,4.7-6.3,6.7
	c-2.8,2-6.5,3.9-10.8,5.1c-4.3,1.2-9.1,1.6-14.3,0.8c-5.2-0.8-10.8-2.8-14-4.1c-3.2-1.3-3.9-1.8-4.7-2.3c-0.8-0.4-1.7-0.8-3.8-2.5
	c-2.1-1.7-5.4-4.8-8.9-7.8c-3.5-3-7.2-6-11.4-9.2c-4.2-3.2-8.8-6.7-12.1-10.5c-3.2-3.8-5-7.9-5.8-10.4c-0.8-2.6-0.8-3.6-0.7-4.7
	c0-1.1,0-2.1,0.4-3.5c0.4-1.4,1.3-3.2,2.3-4.9c0.9-1.7,1.9-3.3,3.2-4c1.3-0.7,2.9-0.4,4.4,0.2c1.5,0.6,3,1.4,5.3,2.7
	c2.3,1.3,5.3,2.9,6.4,2.5c1.1-0.4,0.1-2.8-3.4-5.9c-3.5-3.1-9.7-6.8-14.3-9.2c-4.7-2.4-7.8-3.3-8.8-2.8c-1,0.5,0.3,2.4,1.3,4
	c1.1,1.6,2,2.8,1.9,4.2c-0.1,1.4-1.2,3-2,4.9c-0.9,1.8-1.6,3.9-1.8,6.8c-0.2,2.9-0.1,6.6,1,10.1c1.1,3.5,3.1,7,4.9,9.7
	c1.8,2.8,3.3,4.9,5.1,6.9c-3.5-1.6-7-2.9-10.3-3.7c-3.3-0.9-6.2-1.3-9-1.4c-2.8-0.1-5.3,0.1-7.8,0.7c-0.9-3.5-2-7-3.3-10.7
	c-1.3-3.7-2.9-7.6-4-10c-1.1-2.4-1.6-3.3-2.3-5c-0.7-1.7-1.7-4.2-2.5-4.4c-0.9-0.1-1.6,2.1-2.7,3.5c-1.1,1.4-2.4,1.9-4.6,2
	c-2.1,0-5.1-0.4-8.1-1.8c-3-1.4-6-3.8-8.4-6.3c-2.3-2.5-3.9-5.2-4.6-8.5c-0.7-3.3-0.5-7.3,0.1-10.5c0.7-3.1,1.9-5.4,4-7.3
	c2.1-1.9,5-3.4,8.2-4c3.1-0.6,6.5-0.2,10.2,1.4c3.8,1.6,8,4.4,11.6,7.8c-1-6.3-2.7-12.6-5.2-18.4c-2.4-5.8-5.5-11.3-8.9-15.6
	c-3.4-4.3-7.1-7.4-11.1-9.5c-4-2.1-8.2-3.3-11.1-4c-2.9-0.7-4.4-1.1-5.8-0.5c-1.4,0.6-2.6,2-2.7,3.5c-0.1,1.5,1,3,2.8,3.9
	c1.8,0.9,4.2,1.1,6.5,1.6c2.3,0.5,4.3,1.2,7.2,3c2.9,1.8,6.5,4.5,9.3,7.6c2.8,3.1,4.7,6.6,5.7,9.3c1,2.7,1.1,4.6,0.6,6.4
	c-2.8-0.5-5.7-0.7-8.4-0.6c-2.7,0.1-5.4,0.5-7.4,1.1c-2.1,0.6-3.6,1.4-5,2.4c-1.4,0.9-2.7,2-3.7,3.3c-1,1.3-1.7,2.9-2.3,4.6
	c-0.6,1.7-1.1,3.5-1.3,5c-0.2,1.4-0.2,2.5-0.2,3.6c0,1.1-0.1,2.1,0.3,4c0.4,1.8,1.4,4.4,2.6,6.8c1.2,2.4,2.5,4.6,5,7.5
	c2.5,2.9,6.3,6.6,11.1,8.7c4.9,2.1,10.8,2.6,16.4,1.4c1.9,5.7,3.8,11.3,5,14.8c1.1,3.5,1.4,4.7,1.8,5.9c-5.3,4.4-10.3,9-15,14
	c-4.7,4.9-9.1,10.1-13,15.7c-3.9,5.6-7.4,11.6-11.3,19.5c-3.9,7.9-8.2,17.7-11,24.8c-2.8,7.2-4.2,11.7-5.5,15.7
	c-1.2,4-2.3,7.5-2.9,9.9c-0.6,2.3-0.9,3.4-1,4.6l8.9,2.7c-1.6,4.6-2.3,9.6-2.3,14.8c0,5.2,0.9,10.7,2.7,15.6
	c1.8,4.9,4.5,9.1,7.9,12.7c1.1,2.5,2.2,5,4,9.6c1.8,4.6,4.4,11.2,6.9,17.8c-4.1,1.5-8,3.4-11,5.3c-3,1.9-5.1,3.7-6.8,6.1
	c-1.6,2.3-2.7,5.2-3.2,7.6c-0.5,2.4-0.4,4.3-0.1,6.1c0.3,1.7,0.7,3.2,1.7,4.6c1,1.3,2.5,2.5,4.2,3.5c1.7,1.1,3.4,2,6.9,2.7
	c3.5,0.7,8.6,1,12.4,1.2c3.8,0.2,6.1,0.1,8.5,0c3.7,1.9,7.6,3.3,14.2,4.7c6.6,1.4,15.9,2.7,23.1,3.3c7.2,0.6,12.4,0.4,19-0.1
	c6.6-0.4,14.6-1.1,23.7-2.6c9-1.5,19.1-3.7,26-6.2c6.9-2.5,10.7-5.2,12.9-6.9c2.2-1.7,2.7-2.4,3.3-3.2c0.5-0.8,1-1.8,1.3-3
	c0.2-1.2,0.2-2.6,0.2-4c0-1.4,0.1-2.8-0.3-4.3c-0.4-1.4-1.3-2.9-2.4-4.3c-1.1-1.4-2.2-2.7-5.2-4.2c-2.9-1.4-7.6-2.9-10.7-3.7
	c-3.1-0.8-4.7-0.9-5.9-1c-1.2-0.1-2-0.2-2.6-0.7c-0.7-0.5-1.2-1.5-1.5-2.6c-0.4-2.3,0.1-5,0-7.3c0-1.1,0-2.3-0.6-3.4
	c-0.6-1.2-1.8-2.4-3.2-3.4c-1.4-1-3-1.8-6.2-3.5c-3.2-1.6-7.9-4.1-12.7-6.6l-5.8-12.8c6.2-6.1,12.5-12.2,20.4-19.9
	c7.9-7.7,17.3-17,27.3-26.1c10-9.1,20.6-18,29.3-25.4c8.8-7.4,15.8-13.2,22.5-18.3c6.7-5.1,13.2-9.5,19.7-13.3
	c6.4-3.8,12.9-7.1,18.3-9.4c5.4-2.4,9.9-3.9,14.9-5c5-1.1,10.4-1.9,15.3-2.3C280.8,221,285.2,220.8,289.5,222.6z"/>
</svg>
