<?xml version="1.0" encoding="UTF-8"?>
<svg xmlns="http://www.w3.org/2000/svg" viewBox="0 0 2445.8 1081.2">
    <link
        xmlns="http://www.w3.org/1999/xhtml"
        rel="stylesheet"
        href="style2.css"
        type="text/css"
    />
    <g id="Textos">
        <a href="/atlas.html" target="_top">
            <text class="cls-2" transform="translate(448.6 196.6) scale(1 1)">
                <tspan x="0" y="0">atlas</tspan>
            </text>
        </a>
        <a href="/productos.html" target="_top">
            <text class="cls-2" transform="translate(.2 568.9) scale(1 1)">
                <tspan x="0" y="0">productos</tspan>
            </text>
        </a>
        <a href="/fonoteca.html" target="_top">
            <text class="cls-2" transform="translate(399.1 886.4)">
                <tspan x="0" y="0">fonoteca</tspan>
            </text>
        </a>
        <a href="/contacto.html" target="_top">
            <text class="cls-2" transform="translate(1155.5 1066.5) scale(1 1)">
                <tspan x="0" y="0">contacto</tspan>
            </text>
        </a>
        <a href="/ep-1.html" target="_top">
            <text class="cls-2" transform="translate(1403.5 812.8)">
                <tspan x="0" y="0">19.420312958189133,</tspan>
                <tspan x="0" y="48">-99.15750411698122</tspan>
            </text>
        </a>
        <a href="/xpan-tv.html" target="_top">
            <text class="cls-2" transform="translate(2003.3 912) scale(.9 1)">
                <tspan x="0" y="0">xpan.tv</tspan>
            </text>
        </a>
        <a href="/proyectos.html" target="_top">
            <text class="cls-2" transform="translate(2264.3 566.9) scale(1 1)">
                <tspan x="0" y="0">proyectos</tspan>
            </text>
        </a>
        <a href="/xpan-arquitectura.html" target="_top">
            <text class="cls-5" transform="translate(1909.9 211.6) scale(1 1)">
                <tspan x="0" y="0">xpan.arquitectura</tspan>
            </text>
        </a>
        <a href="/12-e.html" target="_top">
            <text class="cls-3" transform="translate(1615.1 332.4) scale(.9 1)">
                <tspan x="0" y="0">12.e</tspan>
            </text>
        </a>
        <a href="/manifiesto.html" target="_top">
            <text class="cls-2" transform="translate(1139.7 39.9) scale(1 1)">
                <tspan x="0" y="0">manifiesto</tspan>
            </text>
        </a>
        <a href="/" target="_top">
            <text class="cls-1" transform="translate(1193.1 561.9) scale(1 1)">
                <tspan x="0" y="0">xpan</tspan>
            </text>
        </a>
    </g>
    <g id="Dibujos">
        <g id="arco">
            <path class="cls-6" d="m352.4,574.5c.2-1.3.4-2.6.6-4,0-.3.2-.6.2-.9-.2-2.6-.3-5.2-.6-7.7-.2-1.6-.6-3.3-1.3-4.8-.9-2.1-1.4-4.1.2-6.1.6-.8,1-2,1-3,.1-1.9,0-3.8.9-5.6.2-.4,0-1.2-.2-1.7-.8-1.6-.6-3.1,0-4.9.9-3.1.9-6.2.4-9.4-.4-2.1.4-4.5,1.2-6.6.9-2.4,2.2-4.7,2.1-7.4,0-1.1.5-2.3.9-3.4.7-1.6,1.2-3,.8-5-.3-1.7.8-3.8,1.3-5.7.6-2.1,1.3-4.2,2-6.2.2-.6.4-1.1.6-1.7,1.9-5,3.8-10,5.8-15,1.2-2.9,2.6-5.8,3.9-8.7.3-.7.7-1.5.8-2.2.7-3.7,3.1-6.5,4.8-9.7,1.4-2.7,3.3-5.1,4.2-8.2.6-2.1,2.4-3.9,3.6-5.8,1.8-2.9,3.5-5.8,5.2-8.7.2-.3.2-.6.4-.8,1.8-2.3,3.7-4.6,5.5-6.9,1.9-2.5,3.7-5.1,5.6-7.7.8-1.1,1.5-2.5,2.6-3.2,1.8-1.1,2.7-2.8,3.8-4.4.8-1.1,1.9-1.9,2.9-2.9.7-.7,1.5-1.4,1.9-2.3,1.1-3.1,4.3-4,6.3-6.2.2-.2,1-.3,1.4,0,.3.2.6.9.5,1.3-.3.8-.8,1.5-1.3,2.2-1.1,1.5-2.3,3-3.5,4.5-.2.2-.3.5-.5.8-1.9,2-4.1,3.8-5.8,5.9-3.3,4-6.3,8.2-9.6,12.2-3.2,3.8-5.1,8.5-8.5,12.2-2.8,3-4.8,6.8-7.1,10.3-.4.6-.6,1.3-.8,1.9-.1.4,0,1-.2,1.2-2.8,2.8-2.1,7.3-5.2,10.2-1.6,1.5-2,4.3-3.1,6.4-1.5,3-3,6-4.4,9-.4.9-.5,1.9-.8,2.8-.2.7-.3,1.4-.7,2-3.1,4.7-4,10.1-5.6,15.3-.8,2.6-1.8,5-2.7,7.5-.3.8-.6,1.5-.4,2.5.3,1.4.1,2.9-.2,4.3-.8,3.2-1.8,6.3-2.7,9.4-.1.4-.2.8-.2,1.2-.3,4-.6,7.9-.9,11.9-.2,2.2-.4,4.3-.7,6.5,0,.5-.6,1-.8,1.6-.2.8-.5,1.7-.5,2.5,0,1.8.3,3.5.6,5.3.2,1.4.6,2.7.7,4,0,1.3,0,2.6-.6,3.8-.6,1.5-.9,2.8-.1,4.2.8,1.6.9,3.1.2,4.9-.4,1.1-.2,2.4-.1,3.6.1,2.2.5,4.3.6,6.5.3,3.5.5,7,.7,10.4,0,.2,0,.4,0,.6,2.2,3.4,1.3,7.6,2.8,11.2.2.4.2.8.1,1.2-.4,3.2.2,6.1,2.4,8.6.1.1.2.3.3.5.5,2.8,1,5.6,1.6,8.5.1.7.1,1.4.4,2,2.7,4.6,3.9,9.8,5.6,14.8.3,1,1,1.9,1.5,2.8.3.5.8,1,.9,1.5,1.8,5.3,5.1,9.8,7.8,14.7,2,3.6,4.7,6.9,7,10.3.6.8.9,1.8,1.4,2.6.6.9,1.2,1.9,1.9,2.7,1.3,1.6,2.8,3.1,4.2,4.7,1,1.2,2.1,2.4,3.1,3.7.9,1.1,1.8,2.1,2.6,3.3,1,1.4,1.9,2.7,3.6,3.4,1,.4,1.6,1.6,2.4,2.5.8.9,1.4,1.9,2.2,2.7,2.5,2.3,5.1,4.5,7.5,6.9,1.8,1.8,3.7,3.3,6,4.4,3,1.5,6.1,2.8,7.9,6.1.6,1,1.9,1.6,3,2.4.4.3.9.5,1.2.9.5.8,1.5,1.6.6,2.6-.9,1-1.7,0-2.4-.4-1.4-.8-2.8-1.7-3.8-2.8-1.5-1.6-3.5-2.3-5.4-3.2-.8-.4-1.8-.7-2.2-1.3-1.6-2.5-4.1-4-6.2-6-.8-.8-1.9-1.4-2.8-2.2-1.6-1.4-3.2-2.9-4.7-4.4-1.9-1.9-3.9-3.7-5-6.3-.4-1-1.5-1.9-2.5-2.4-1.6-.9-3-1.9-3.9-3.5-.3-.5-.6-1.1-1.1-1.4-3-1.5-4.2-4.5-5.8-7.1-.5-.7-.9-1.6-1.5-2.2-2.5-2.1-3.8-5.1-5.6-7.7-1.4-2.2-2.9-4.3-4.4-6.4-2-2.9-4-5.8-5.8-8.9-2.4-4.4-4.1-9-6.3-13.5-.2-.5-.6-.9-.6-1.4-.5-5.6-3.2-10.6-4.6-16-1.1-4.1-2.7-8.1-3.7-12.1-.9-3.4-1.3-6.8-1.9-10.2-.2-1.4-.5-2.7-.8-4.1-.2-1.3-.4-2.5-.6-3.8-.3-1.8-.5-3.5-.8-5.3-.2-1.4-.4-2.7-.7-4.3Z"/>
            <path class="cls-6" d="m578.8,292.3c.7-2.3,3-3,4.7-3.9,3.2-1.8,6.6-3.2,9.9-4.8,3.3-1.6,6.6-3.2,9.9-4.7.5-.2,1.2-.4,1.7-.3,1.8.2,3.4-.3,4.8-1.3,2.3-1.7,5.4-2,7.5-4.2.5-.5,1.5-.5,2.2-.8.9-.3,1.8-.6,2.7-1,.7-.3,1.4-.9,2.2-1,4.2-.6,8-2.5,11.8-4.2,1.1-.5,2.2-.9,3.4-1.2,2.3-.7,4.5-1.6,6.5-3,1.3-.9,3.2-1.2,4.8-1.3,2.3-.1,4.3-.7,6.3-1.7,6-3,12.2-5.3,18.8-6.7,1.1-.2,2.2-.4,3.1-.9,4.3-2.4,9-3.7,13.8-4.6,1.7-.3,3.4-1,5.1-1.5,2.8-.8,5.6-1.4,8.2-2.6,2.3-1,4.5-2.1,6.9-2.7,2-.5,4.1-1,6-1.6,1.6-.5,3.1-1.2,4.7-1.7,2.5-.7,5-1.4,7.5-1.8,1.9-.3,3.8-1.3,5.8-.3.4.2,1.3-.4,1.9-.7,1.8-1,3.5-2,5.2-2.9.4-.2.9-.6,1.3-.6,3,0,5.5-1.5,8.3-2.3,4.1-1.2,8.4-1.6,12.4-3.2,1.6-.6,3.5-1,5.2-1,3.9,0,7.4-1.4,11-2.7,2.3-.8,4.5-1.4,6.9-1.7,2.6-.3,5.2-1.4,7.7-2.3,1.4-.5,2.7-.7,4,.2.4.3,1,.9,1,1.3-.1.6-.7,1.4-1.2,1.5-4.1.2-7.6,3.2-11.9,2.3-1.1-.2-2.6.4-3.7,1-3.4,1.9-7.2,2.2-10.9,3-3.4.8-6.7,1.7-10.1,2.6-3.2.8-6.4,1.5-9.5,2.3-1.3.4-2.7.8-3.9,1.5-1.3.8-2.6,1.4-4.2,1.3-.7,0-1.4,0-2.1.3-3.1,1-6.2,2-9.3,3-1.9.6-3.8,1.2-5.8,1.3-2.7.3-5.2,1.4-7.7,2.4-1.8.7-3.7,1.3-5.7,1.5-1.7.2-3.3,1.3-5,1.9-1.5.5-3,1-4.5,1.4-.8.2-1.7,0-2.4.3-4.2,2.3-9.4,2.1-13.4,4.9-.3.2-.7.4-1.1.4-5.1.2-9.5,2.9-14.2,4.5-2,.7-4.2,1.2-6.3,1.8,0,0-.2,0-.3,0-3.5,2.1-7.8,2-11.3,4.5-1.8,1.3-4.3,1.6-6.4,2.4-1,.4-2.1.7-3.1,1-1.2.4-2.4.9-3.6,1-1.8.1-3.2.6-4.4,2.1-.6.7-1.8,1.1-2.8,1.5-1.1.4-2.3.4-3.5.8-4,1.3-8.1,2.8-12.1,4.2-.5.2-1,.3-1.4.6-2.5,2-5.6,2.5-8.5,3.5-3.4,1.1-7.1,1.9-10,3.8-2.9,1.8-5.9,3.4-9,4.8-3.7,1.7-7.5,3.2-11.2,4.8-1.2.5-2.3.7-3.3-.4Z"/>
            <path class="cls-6" d="m1038.1,175.4c-.3,1.4-1.3,1.9-2.6,1.9-1.9,0-3.8,0-5.5,1.1-.4.2-1,.2-1.5.3-3.7.2-7.4.3-11,.8-3.7.5-7.4,1.5-11.1,2.3-.8.2-1.6.5-2.3.4-5.3-.3-10.3,1.1-15.4,2.1-2.4.5-4.9.5-7.4.6-1.4,0-2.7,0-4,.9-.6.4-1.8.6-2.5.3-1.5-.7-2.7-.2-4,.4-1.7.9-3.5,1.2-5.5,1.4-2.6.2-5.1,1-7.6,1.5-1.1.2-2.3.7-3.2.4-2.7-.9-5.1.4-7.5,1-.7.2-1.5.6-2,.4-1.8-1-3.3-.1-4.8.7-2,1.1-4.1,2.3-6.5,1-.2,0-.4,0-.6,0-4,1.7-8.5,1-12.6,2.1-3.5.9-7,2.2-10.8,2-2.3,0-4.6.3-6.8.7-1.3.3-2.6,1-3.7,1.8-1.7,1.4-3.3,2-5.5,1.2-.9-.3-2-.4-3-.2-5.5,1.1-11,2.4-16.6,3.6-3.5.8-7,1.7-10.4,2.5-1,.2-1.9.5-2.9.8-.4.1-.8.4-1.1.4-4.5-.7-8.7,1.7-13.2.8-.7-.1-1.6.1-2.2.5-2.7,1.9-5.8,2.5-8.9,3.1-5.1.9-10.3,1-14.9,3.8-1.1.7-2.7.7-4,1.1-2.7.9-5.7.3-8.4,1.9-1.2.7-2.4,0-3.9-1.4,3.1-2,6.2-3.6,9.9-4.1,1.5-.2,3.1-.8,4.6-1.2,1.1-.3,2.3-.7,3.4-.9,2.6-.5,5.3-1,7.9-1.6,3.7-.8,7.3-1.8,11-2.5,1.4-.3,2.9,0,4.7.2,1.8-2.7,5.2-2.4,8.2-2.9,3.4-.6,6.9-1.3,10.3-1.9,3.8-.6,7.5-2.1,11.5-1.8,1.7.2,3.6-.5,5.1-1.3,3.1-1.7,6.5-1.7,9.8-2,2-.2,3.9-.6,5.7-1.4,1.8-.7,3.8-1.1,5.7-1.4,1.8-.3,3.5-.4,5.3-.7,2.8-.4,5.7-.9,8.5-1.4.6,0,1.2-.2,1.7-.3,2.1-.4,4.3-.6,6.4-1,2.1-.4,4.2-1,6.4-1.4,1.3-.3,2.5-.5,3.8-.7,2.1-.3,4.2-.4,6.1-1,2.2-.7,4.4-1,6.8-1.1,1.7,0,3.4-.3,5-.6,2.6-.5,5.2-1.3,7.8-1.9.9-.2,1.8-.2,2.7-.3,1.7-.2,3.3-.4,5-.6,1.3-.2,2.4-.6,3.8-.2.9.3,2.2,0,3.1-.5,1.9-1,3.9-1.6,6-1.4,2.7.2,5.2-.3,7.5-1.5.6-.3,1.3-.5,2-.6,4.2-.3,8.4-.5,12.5-.7.8,0,1.6-.2,2.4-.4,3.5-.6,7.1-1.2,10.6-1.7,1.6-.3,3.1-.5,4.7-.7,2.3-.3,4.5-.5,6.8-.6,2.3-.1,4.5.1,6.7-1,1.4-.8,1.8-.5,4,1.3Z"/>
            <path class="cls-6" d="m1041.3,174.4c.6-1.6,1.7-1.9,3.1-2,3.8-.2,7.6-.5,11.3-.7.3,0,.6,0,.9-.1,2.9-1.7,6-1.2,9.1-1.2,3.4,0,6.8-.4,9.9-1.7.5-.2,1-.4,1.4-.3,4.6.9,8.9-1.3,13.6-.9,3,.2,6-.9,9.1-1.4.6-.1,1.1-.4,1.7-.5,3-.3,6-.6,8.9-.7,4.3,0,8.5-.5,12.8-1.3.2,0,.4,0,.6,0,5.3-.3,10.6-.5,15.8-.8,1.8-.1,3.5-.6,5.3-.8,1.8-.2,3.6-.7,5.3-.3,1.5.3,2.7.2,4-.4.5-.2,1.1-.5,1.7-.5,3.3-.3,6.6-.5,9.8-.7.8,0,1.6-.3,2.3-.4,1.4-.3,2.8-.4,4.4-.4,2.4.1,4.9-.5,7.3-.8.7,0,1.5-.5,2-.3,3.3,1.2,6.6.5,9.7-.2,4.6-1.1,9.1-1.8,13.9-.7,1.8.4,3.9-.4,5.9-.6,2-.2,3.9-.4,5.9-.6,2-.2,4-.5,5.9-.4,3.2,0,6.4.3,9.6.5.5,0,1.1.6,1.2,1,0,.4-.4,1.2-.8,1.4-1,.4-2,.8-3.1.9-2.4.1-4.8,0-7.2,0-1.7,0-3.3.4-5,.5-1.2,0-2.5.3-3.6,0-1.4-.4-2.5-.3-3.8.1-3.6,1.2-7.3.4-11,.7-3.6.3-7.1.9-10.7,1.2-2.6.2-5.2,0-7.8.2-2.7.2-5.3.6-8,.9-1.4.2-2.8.3-4.1.5-1.4.2-2.8.4-4,.9-1.2.5-2.2.6-3.4,0-3-1.2-6-1.2-9.1-.3-3.8,1.1-7.9,1.1-11.8,1.6-6.8.7-13.7.6-20.5,1.7-5.5.9-11.1,2.5-16.9,1.7-1.5-.2-3.1.4-4.7.6-2.4.3-4.7.9-7.1.8-3.2-.1-6.2.5-9.1,1.7-4.6-1.1-8.8,1.6-13.5,1.1-3.4-.4-6.9.3-10.4.6-.7,0-1.3.4-2,.7-4,1.8-11.1,1.8-15-.2Z"/>
            <path class="cls-6" d="m701.8,780.2c-1.9-1.9-4-.7-5.7-.2-2.5.7-4.7.3-7-.4-.5-.1-1.1-.5-1.4-.3-3.1,1.5-6.1,0-9-.6-2.1-.5-3.7.6-5.5.8-.7,0-1.5.6-2,.3-2.9-1.5-6.1-1-9-1.8-.8-.2-1.6-.1-2.4-.2-4.4-.2-8.8.6-13.1-.7-3.5,1.2-6.9,0-10.2-.8-4.4-.9-9,0-13.2-1.9-.2,0-.4-.1-.6,0-2.5.7-4.7,0-6.8-1.2-.3-.2-.8-.1-1.1,0-2.3.9-4.6.3-6.7-.4-2.6-.9-5-1.7-7.8-.6-.9.3-2.2,0-3.2-.4-2.7-.8-5.3-1.8-8.2-1.6-.6,0-1.2-.3-1.7-.4-2.1-.3-4.1-.7-6.2-1-.9-.1-1.8-.3-2.6-.5-1.5-.3-2.9-.5-4.4-.9-1.2-.3-2.6-.4-3.7-1-3-1.5-6-2.6-9.4-2.6-2.4,0-4.9-.8-7.3-1.3-1.2-.2-2.3-.4-3.5-.7-1-.2-2-.4-2.8-1-2-1.4-4.1-1.9-6.5-1.8-1.7,0-3.1-.3-4.6-1.1-2.1-1.1-4.4-1.9-6.9-1.8-1,0-2.2-.3-3.2-.7-2.1-.9-4.1-1.9-6.2-2.8-1.3-.6-1.6-1.6-1-3.1,3.1.2,6.1,1.2,9.1,2.1,5.5,1.7,11,3.5,16.4,5.3,2.2.7,4.3,1.6,6.5,2,3,.6,6.1,1,9.1,1.5,1.2.2,2.3.5,3.5.7,4.2.7,7.9,3.3,12.4,2.9.9,0,1.9.5,2.8.8,2.8,1,5.5,2.3,8.6,1.3.9-.3,2.1-.1,2.9.3,1.9,1,3.8,1,5.8,1.1,1.8,0,3.6.4,5.3.7,4.5.9,8.9,2.1,13.4,2.9,2.3.4,4.9.9,7.1.3,3-.8,5.7-.2,8.5.5,3.2.7,6.3,1.9,9.5,2.3,3.7.4,7.5.6,11.1,0,2.9-.5,5.5.4,8.2.5,1.2,0,2.3,0,3.5,0,1.3,0,2.7-.1,3.7.4,2.1,1,4.2.8,6.4.6,1.6-.2,3.3,0,5,0,.4,0,.8.2,1.2.2,4,.3,8,.6,11.9.7,1.4,0,2.8-.2,4.1-.5,2.6-.5,5.7.5,6.9,2.5.2.4.1.9.2,1.3-.2.2-.3.3-.5.5Z"/>
            <path class="cls-6" d="m515.1,749.4c-1.9,2-3,2.1-5.3.9-2.3-1.2-4.6-2.3-7-3.4-.2,0-.4-.2-.6-.2-3.2.6-6-1-8.5-2.4-4.1-2.2-8.5-3.4-12.6-5.4-4.1-2-8-4.3-12-6.4,0,0-.2-.2-.3-.1-3,.2-4.4-2.2-6.5-3.8-1.5-1.1-3.3-2.2-5-2.4-3.4-.4-5.9-2.3-8.5-4-2.6-1.7-5.2-3.3-7.9-4.8-1.8-1-3.1-2.2-3.5-4.3,1.1-1.4,2.3-1.4,3.6-.4.9.7,1.7,1.4,2.5,2.2,3,3.2,6.9,5.5,11,6.4,3.9.9,6.7,3.3,10,5.1,1.3.7,2.7,1.3,4,2,1.1.6,2.2,1.3,3.3,1.9.5.3.9.8,1.4,1.1,3.4,1.5,6.7,2.9,10.1,4.3,2.6,1.1,5.2,2.1,7.7,3.1,4.4,1.8,8.8,3.6,13.2,5.4.7.3,1.5.6,2.1,1.1,1.3,1,2.7,1.4,4.4,1.5,1.7,0,3.3.8,4.3,2.7Z"/>
            <path class="cls-6" d="m541.5,310.3c.4,1.4-.6,2.1-1.5,2.6-2.8,1.6-5.7,3.1-8.6,4.7-2.9,1.6-5.7,3.3-8.7,4.7-4.2,2-7.7,4.9-11.7,7.2-1.5.9-3.2,1.5-4.2,3.1-.3.5-1.1.9-1.7,1.1-2.5.8-4.7,2.2-6.7,3.8-2.1,1.6-4.3,2.7-6.8,3.7-1.6.6-3,1.9-4.5,2.9-1.2.8-2.3,1.6-3.5,2.1-.3.2-1.1-.3-1.5-.7-.2-.2,0-1,.2-1.3.8-.9,1.5-2.1,2.5-2.5,6.2-2.7,11.3-7,16.8-10.7,2.1-1.4,4.4-2.7,6.6-4,2.9-1.7,5.7-3.6,8.7-5.2,1.4-.8,2.9-1.2,4.3-1.9.8-.4,1.8-.7,2.3-1.3,1.5-1.7,3.4-2.7,5.5-3.5,2.4-.9,4.3-2.4,6.1-4.3,2.3-2.4,3.4-2.4,6.2-.7Z"/>
            <path class="cls-6" d="m451.8,369c.7,1.3.2,2.3-.8,3.2-1.9,1.6-3.9,3.1-5.7,4.8-1.7,1.5-3.2,3.2-4.9,4.8-.6.6-1.2,1.3-1.9,1.9-2.3,2.1-4.7,4.1-6.8,6.2-1.5,1.5-3.7,2.3-4.7,4.5-.4.7-1.8.9-2.8,1.4-1.1-1.6-.3-2.7.7-3.2,1.5-.7,2.2-1.9,2.8-3.3.6-1.3,1.5-2.2,2.8-3,2.4-1.4,4.6-2.9,5.8-5.7.5-1.1,1.6-2,2.7-2.6,2.9-1.8,5.5-3.8,7.6-6.6,2.1-2.8,2.8-3.2,5.2-2.2Z"/>
            <path class="cls-6" d="m544.4,308.9c.4-2.1,1.4-3,2.9-3.3,2.9-.5,5.2-1.9,7.2-3.9,1.7-1.6,3.8-2.6,6.1-3.1,2.1-.4,3.8-1.4,5.6-2.7,2-1.4,4.3-2.4,6.5-3.5.2-.1.6,0,.9-.1,1,0,1.9,0,2.1,1.2.3,1.3-.6,2.1-1.6,2.1-2.7,0-4.3,1.7-6.2,3.1-2.6,1.9-5.6,3.5-8.9,4-1.8.3-2.9,1.6-4.2,2.7-2.9,2.5-6.2,3.8-10.4,3.4Z"/>
            <path class="cls-6" d="m478.8,348.2c.6,2-.3,3.1-1.8,3.7-2.8,1.2-5.1,3.1-7.2,5.2-.9.9-2.1,1.6-3.1,2.3-.7.5-1.5,1-2.1,1.6-2.2,1.8-4.4,3.8-6.7,5.6-.5.4-1.5.6-2.2.5-1.2-.1-1.7-1.2-.9-2.2.7-.8,1.6-1.5,2.6-2,1.8-1,3.5-1.9,4.4-3.9.4-.9,1.3-1.6,2.1-2.2,2.2-1.6,4.6-3.1,6.9-4.7,1.1-.8,2.2-1.7,3.2-2.6,1.9-1.8,1.9-1.8,4.9-1.3Z"/>
        </g>
        <g id="xpan-atlas">
            <path class="cls-6" d="m641.5,260c.3-1.4,0-2-1.4-2.3-2.9-.8-5.7-1.7-7.7-4.1-.3-.3-.7-.5-1.1-.7-3.2-1.5-6.3-2.9-9.5-4.4-.9-.4-1.7-1.1-2.5-1.6-.7-.5-1.4-1.2-2.2-1.4-2.4-.6-4.1-2.3-6.2-3.4-2.6-1.3-5.2-2.5-8-3.3-2.3-.7-4.5-2-6.7-3.2-1.4-.8-2.5-2-3.8-2.9-.6-.4-1.5-.8-2.2-.7-1.7.1-3.2-.4-4.6-1.1-.8-.4-1.5-1.1-2-1.9-.8-1-1.4-2.3-2.9-1.9-1.5.4-1.4,1.9-1.4,3.1,0,.7,0,1.5,0,2.2-.1,1.8.6,3.2,1.9,4.5.6.6,1.3,1.2,1.8,1.9,1,1.4.8,2.3-.8,3.5-2.7-1.2-4.8-3.1-6.1-5.8-.4-.8-.9-1.5-1.5-2.1-2.1-1.8-4.4-3.3-6.4-5.2-1.5-1.4-2.7-3.2-4.2-4.7-1.3-1.3-2.8-2.3-4.1-3.5-1.2-1.1-2.5-2.1-3.3-3.5-1.3-2-2.8-3.7-5.1-4.6-.4-.2-.8-.4-1.1-.7-1.1-.8-2.2-1.6-3.2-2.6-.9-.8-1.7-1.8-2.3-2.9-1.2-2.2-2.9-3.8-4.9-5.2-1.4-1-2.7-2-4-3-.3-.3-.6-.7-.7-1.1-.3-.8.1-1.4,1-1.5.4,0,.8,0,1.1,0,2.1,1,4.2,2,6.2,3,2.3,1.2,4.5,2.3,7.1,2.6,1.6.2,3.1,1,4.7,1.7,2.7,1.2,5.3,2.8,8.1,3.6,3.3.9,6.3,2.5,9.6,3.2,2.1.4,3.9,1.6,6.2,1.5.8,0,1.6.7,2.4,1,1.1.4,2.2.6,3.3.9.8.3,1.7.5,2.4.9,2.6,1.5,5.1,3.1,7.6,4.8.5.3,1,.8,1.5,1.2-.8,1.1-1.7,1-2.5.6-1.2-.6-2.2-.4-3.3,0-2,.7-4,1-6,1.6-.8.2-1.6.7-2.4,1,0,1.1.6,1.6,1.5,1.8,1.2.3,2.5.4,3.6.9,1.1.5,2.1,1.3,3,2.1,1.2,1,2.4,1.8,4,2.1,1.3.2,2.6.9,3.8,1.6,2.4,1.2,4.7,2.6,7.1,3.9,1,.5,2.1,1,3.2,1.3,2.9.8,5.6,2.1,7.8,4.2.5.5,1.3.8,1.9.8,1.3,0,2.2.5,3,1.4,1.2,1.4,2.7,2,4.6,2.3,1.3.2,2.8,1,3.8,2,2.1,2.3,4.9,3.5,7.6,4.5,3.1,1.2,5.7,3.2,8.6,4.6.6.3,1.2.6,1.8.6,1.2,0,2.2.5,3.3.8,1.9.5,3.1,1.6,4.3,3,.3.4.7.9,1.2,1,3,.9,5.5,2.9,8.5,3.7,1.1.3,2.2.9,3,1.7,1.5,1.8,3.7,2.3,5.6,3.1,1.3.5,2.6.9,3.8,1.5,3.5,1.8,6.9,3.7,10.4,5.5,1,.6,1.9,1.4,2.9,1.9,1.2.6,2.5,1,3.7,1.5,1.1.4,2.4.6,3.1,1.3,1.4,1.3,3,2,4.6,2.8,2.8,1.5,5.6,2.7,8.4,4.2,1.6.9,3.4,1.7,4.4,3.3-1,2.3-1.9,2.7-4,1.6-.4-.2-1-.4-1.3-.8-2.1-2.5-5.1-3.3-7.8-4.7-3.5-1.8-7.2-3.4-10.8-5.1-.5-.2-.9-.7-1.4-1-.5-.4-1-.8-1.6-1.1-2.7-1.3-5.3-2.5-8-3.8-3.9-1.9-8-3.5-11.5-6.1-2.3-1.8-5.1-2.4-7.7-3.3-.9-.3-1.6-.6-2.2-1.3-2-2.4-4.4-3.9-7.5-4.4-1.5-1.7-3.6-1.1-5.5-1.5-1.3-.3-2.5-1.1-4-1.7Z"/>
            <path class="cls-6" d="m986.9,435.9c1.2-1.6,2-1.9,3.5-.9,1.7,1.2,3.6,1.8,5.5,2.4.7.2,1.2.8,1.8,1.2,4.7,2.4,9.5,4.9,14.2,7.3.8.4,1.6,1,2.3,1.6,1.3,1.2,2.6,2.1,4.4,2.6,3,1,5.8,2.6,8.7,4,1.2.6,2.4,1.3,3.7,1.8,1.8.6,3.2,1.6,4.5,3,.5.5,1.2.9,1.8,1.2,1.6.7,3.2,1.2,4.9,1.9.2,0,.5,0,.6.2,1.2,1.3,2.9,1.5,4.4,2.2,2.2,1,4.2,2.3,6.3,3.5,2.9,1.6,5.9,3.1,8.8,4.7.5.2,1,.4,1.4.7,1.8,1.3,3.9,1.5,5.9,2.1,1.2.4,2.3,1,3.5,1.6.6.3,1.2.8,1.8,1.2,2.7,1.7,5.4,3.4,8.1,5.1,1.1.7,2.3,1.3,3.5,1.8,1.8.7,3.4,1.3,5,2.5,2,1.5,4.4,2.6,6.6,3.7.9.5,2.1.5,3.1.9,1.1.4,2.4.6,3.1,1.4,1.7,2,4,2.7,6.4,3.5.5.2,1.1.4,1.5.8,1.1,1.1,2.3,1.8,3.8,2.1.3,0,.6.3,1,.5,3.7,1.8,7.4,3.6,11.1,5.5.8.4,1.4,1,2.1,1.5.5.3.9.7,1.4,1,1.4.9,2.8,1.8,4.3,2.5,1.8.9,3.8,1.5,5.6,2.3,2.5,1.2,5,2.3,7.3,3.8,1.8,1.1,3.4,2.5,5.5,3,2.1.5,3.6,1.8,5.3,2.8,1,.6,1.8,1.5,2.8,2,.9.5,2,.8,3.1.9,1.7.2,3,.7,3.9,2.4.6,1.1,1.5,1.8,2.9,1.9,1.3.1,2.5.8,3.8,1.3-1,1.5-1.4,1.7-2.6,1.1-.8-.4-1.5-.9-2.2-1.4-1.1-.7-2.3-1.3-3.7-1.1-1.6.2-2.7-.9-3.7-1.7-1.5-1.2-3.3-1.8-5.1-2.4-1.7-.6-3.4-1.2-4.9-2.2-.6-.4-1.4-.5-2-.8-1-.5-2-1.1-3-1.7-.6-.4-1.2-.9-1.8-1.2-2.4-1.1-4.8-2.4-7-3.9-.7-.5-1.8-.6-2.6-1-1.3-.6-2.5-1.4-3.8-2.1-1-.5-2.1-.8-3.2-1.3-1.2-.5-2.3-1.1-3.4-1.8-.7-.5-1.2-1.3-1.9-1.8-1-.8-2.2-1.4-3.6-1.3-1.7.2-3.1-.5-4.3-1.7-.3-.3-.6-.7-1-.8-2.9-.8-5-3.1-7.7-4.3-.9-.4-1.7-1.1-2.6-1.5-1.3-.6-2.7-1-4-1.7-2.2-1.1-4.4-2.2-6.4-3.7-2.1-1.5-4.5-2.1-6.7-3-1.1-.5-2.4-.5-3.6-.8-.6-.2-1.2-.6-1.6-1-2.6-2.3-5.6-3.8-8.6-5.3-.5-.3-1.2-.4-1.6-.8-2.2-2.4-5.1-3.2-8-4-2.5-.8-4.8-1.9-6.9-3.6-2.7-2.1-5.7-3.6-9-4.9-.9-.3-1.7-.7-2.5-1.2-1.1-.6-2.1-1.4-3.2-1.8-2.6-.8-4.8-2.4-7-3.9-2.3-1.6-5.1-1.7-7.4-3-1.1-.6-2.3-1.2-3.4-1.9-2.2-1.5-4.3-2.9-6.8-3.8-2.8-1-5.7-2.1-8.1-4-.7-.5-1.5-.9-2.2-1.4-2.2-1.3-4.4-2.7-6.7-4-.9-.5-1.9-.8-2.8-1-1.2-.3-2.2-.6-2.8-1.8-.6-1-1.4-1.7-2.7-1.9-1.5-.2-3-.9-4.5-1.5-1.2-.5-2-1.4-2.4-2.6Z"/>
            <path class="cls-6" d="m983.5,433.1c-.4.5-.8.9-1.1,1.3-.3,0-.6,0-.7-.1-1.8-1-3.6-2.2-5.5-3.1-1.3-.7-2.8-1.1-4.2-1.7-.8-.4-1.8-.8-2.4-1.5-1.3-1.5-3-2-4.8-2.7-2.6-1-5.2-2.1-7.5-3.9-1.9-1.5-3.8-3.2-6.1-4.1-3.2-1.2-6.3-2.5-9.5-3.7-.4-.2-.9-.2-1.3-.2-1.6,0-2.8-.6-3.9-1.7-1.2-1.3-2.7-2.1-4.4-2.7-1.9-.6-3.7-1.7-5.3-3-1.2-1-2.7-1.1-3.9-1.8-.7-.4-1.5-.6-2-1.2-1.2-1.5-3-2.1-4.6-2.9-1.2-.6-2.4-1-3.6-1.5-1.8-.8-3.7-1.4-5.4-2.3-2.1-1.1-4.1-2.5-6.1-3.8-.9-.5-1.7-1.1-2.6-1.6-2.2-1.2-4.6-2.2-6.6-3.8-1.2-1-3.2-1.3-4.8-1.8-.4-.1-.9,0-1.3-.3-2.7-1.4-5.4-2.7-8-4.3-2.9-1.7-5.8-3.6-8.7-5.4-.5-.3-1.2-.6-1.8-.6-1.7,0-3-.6-4-1.8-1.5-1.8-3.7-2.2-5.6-3.1-1.6-.7-3.1-1.5-4.7-2.2-2.7-1.3-5-3.5-8.1-4.2-.2,0-.4-.2-.6-.3-2.1-1.3-4.2-2.6-6.2-3.9-.5-.4-.8-1.1-1.2-1.7.8-1.1,1.6-1.1,2.6-.6,2.6,1.3,5.1,2.8,8,3.3.2,0,.4.2.5.3,1.3,2.2,3.9,2.4,5.8,3.6,1.7,1,3.6,1.7,5.4,2.7.9.5,1.7,1.1,2.4,1.8,1.1,1,2.3,1.8,3.8,2,.6,0,1.2.5,1.8.7,1.7.7,3.3,1.5,5,1.9,1.6.4,2.9,1.1,4.1,2.2,1.6,1.5,3.3,2.8,5.1,4.1.5.4,1.2.5,1.8.7,1,.3,2,.4,2.9.9,2.1,1.3,4.4,2,6.7,2.8,1.5.5,2.9,1.6,4.3,2.5,1.3.9,2.5,2,3.7,3,.8.5,1.6,1.2,2.5,1.3,2.1.4,3.9,1.3,5.7,2.5,1.6,1.1,3.6,1.8,5.5,2.5,2.4.8,4.6,1.9,6.7,3.5,1.3,1,2.9,1.7,4.5,2.1,1,.3,1.6.8,2.4,1.3,1,.6,2.2,1,3.3,1.5,1,.5,2.1.9,3.1,1.4,1,.6,1.9,1.4,2.9,1.9,1.7,1,3.5,1.8,5.1,2.9,1.7,1.2,3.8,1.3,5.6,2.2,1.9,1,3.8,2.1,5.7,3.2,1.1.6,2.2,1.1,3.2,1.7,1.9,1,3.7,2,5.6,2.9,1.6.8,3.2,1.4,4.7,2.1.7.3,1.4.7,2.1,1.2,1.2.9,2.4,1.9,3.7,2.7.7.5,1.6.6,2.4.9,1,.3,2.1.3,2.8.8,1.9,1.3,3.8,2.6,5,4.8Z"/>
            <path class="cls-6" d="m785.7,330c-.6,1.2-1.4,1.6-2.4,1.3-2.5-.7-5-1.4-7-3.3-.8-.8-2.1-1.1-3.3-1.6-.9-.4-2-.5-2.8-1.1-2.4-2-5.3-3-8.1-4.3-.9-.4-2-.4-2.9-.8-1.1-.5-2.3-1.1-3.1-2-1.4-1.4-3.2-2-4.8-3-1.6-.9-3.1-1.9-4.6-2.9-.6-.4-1.2-.8-1.9-1.1-1.3-.7-2.7-1.1-3.8-1.9-1.6-1.2-3.3-1.6-5.2-1.9-1.4-.2-3-.9-4.1-1.8-2.5-2-5.5-3.1-7.9-5.4-1-1-2.9-1.2-4.4-1.8-.8-.3-1.5-.8-2.1-1.4-.6-.6-.5-1.3,0-2,.5-.7,1.2-1,1.9-.7,2.3,1.2,4.6,2.5,6.9,3.8.5.3.9.7,1.4,1,1.7,1,3.5,1.7,5,3.1,1,.9,2.6,1.2,3.9,1.7,1,.4,2.1.7,3,1.2,2.5,1.3,4.9,2.6,7.3,4,.9.5,1.5,1.6,2.4,1.8,3.6,1.1,6.7,3.5,10.3,4.5.9.3,1.7,1.1,2.5,1.6,1,.6,2,1.5,3,1.6,1.7.2,3,1,4.4,1.8,2.6,1.4,5.1,3,7.7,4.5,1.7,1.1,3.6,1.8,5.5,2.4,1.3.4,2.5,1.2,3.2,2.6Z"/>
            <path class="cls-6" d="m790.1,331.9c2,.9,4.1,1.5,5.9,2.7,1.2.8,2.5,1,3.7,1.7,1.5.8,3.1,1.5,4.6,2.3.6.3,1.3.7,1.9,1.1,1.8,1.2,3.6,2.3,5.4,3.5,1.1.7,2.2,1.5,3.3,2.1,1.1.6,2.4,1.1,3.6,1.6.9.3,1.8.5,2.7.7,1.5.5,3.1.8,4.5,1.5,2.5,1.2,5,2.7,7.4,4.1.4.2.8.4,1.1.7.7.6,1.5,1.3,1,2.4-.2.5-2,1-2.8.7-1.3-.5-2.6-1-3.8-1.6-2.2-1-4.5-2.1-6.7-3.2-.5-.3-1-.6-1.5-.9-.4-.3-.8-.7-1.2-.9-3.4-1.6-6.8-3.2-10.2-4.8-1.3-.6-2.5-1.1-3.5-2.2-.4-.4-.9-.7-1.5-.9-3.7-1.2-6.8-3.4-10.2-5.2-1.2-.6-2.4-1.1-3.5-1.8-.7-.4-1.3-1-1.7-1.6-.6-1,0-1.9,1.3-1.9Z"/>
        </g>
        <g id="xpan-productos">
            <path class="cls-6" d="m1127.3,554.6c-1.4,1.9-3.2,2.6-5.2,2.3-2.5-.3-5-.8-7.4-1.2-.8-.1-1.5-.1-2.3-.1-2.7,0-5.4,0-8.1,0-.1,0-.2,0-.3,0-3.4,1.6-7,.9-10.5,1.2-.7,0-1.5,0-2.3,0-2.4,0-4.8,0-7.2,0-.5,0-1.2.4-1.6.2-4.2-1.6-8.4-.4-12.6-.2-5,.2-10.1-.3-15.2-.4-4.9,0-9.8-.2-14.7.6-1.1.2-2.2.2-3.3,0-2.4-.4-4.7-1.1-7.1-1.2-2.4-.1-4.7.3-7.1.4-3.4.1-6.9-1.4-10.3,0-1,.4-2.4,0-3.6.2-3.7.2-7.4.5-11.2.6-2.6,0-5.2-.6-7.8-.6-4.4.1-8.8-.6-13.1.6-.6.2-1.4.2-2,0-3.7-1.7-7.3-.6-10.9,0-.6.1-1.3.2-2,0-8.3-1.5-16.7-.3-25.1-.7-2,0-3.9-.4-5.9-.5-.9,0-1.8,0-2.6,0-4,.3-7.8,1.2-12,.7-4.7-.6-9.6.2-14.5.4-1.4,0-2.9.1-4.3,0-3.8-.2-7.7-.5-11.5-.7-4.7-.2-9.4.1-14.2-.5-3.2-.5-6.5.4-9.8.7-.7,0-1.5,0-2.2,0-.8,0-1.6-.3-2.3-.1-6.7,1-13.3-.2-20-.2-5.7,0-11.4.4-17.1.2-2.5,0-4.9.3-7.4-.6-1.2-.5-2.9-.2-4.2,0-4.5,1.1-9.1.6-13.6.3-.7,0-1.5,0-2.2,0-5.1.1-10.1,1.8-15.2.3-1.1-.3-2.4,0-3.6-.1-2.6-.2-5.2-.5-7.8-.8-.6,0-1.1-.6-2.2-1.2,1.1-.6,1.8-1.4,2.5-1.4,2.3,0,4.6.1,6.9.2,1.4,0,2.8.2,4.2.1,1.9,0,3.8-.7,5.5-.4,3.2.7,6.3-.2,9.4-.4,2.2-.1,4.4.3,6.5.3,5,0,10.1,0,15.1,0,.9,0,1.7.3,2.6.4,1.2,0,2.4,0,3.6,0,3,0,6.1,0,9.1,0,.9,0,1.7,0,2.6,0,2.8,0,5.7-.2,8.5-.3,2.8,0,5.5,0,8.3,0,.4,0,.9-.2,1.3-.1,3.6.7,7.2-.6,10.7,0,2.7.5,5.2-.3,7.8,0,3.8.5,7.6-.2,11.4-.1,3.9.1,7.7,0,11.6,0,2.5,0,5,.5,7.5.6,1.3,0,2.8.3,3.9-.2,3.4-1.7,6.6-.7,10,0,1.6.3,3.2,0,4.8,0,.2,0,.4-.3.6-.2,2.9.7,5.8-.1,8.7,0,1.2,0,2.3,0,3.5,0,2.7,0,5.5,0,8.2,0,2.4,0,4.8-.5,7.2-.5,1.4,0,2.8.6,4.2.5,3.9-.3,7.8.6,11.8.2,2.8-.3,5.7.7,8.5.5,3.9-.2,7.8.6,11.7-.5,1.5-.4,3.3,0,4.9,0,1.2,0,2.3,0,3.5,0,1.9,0,3.8-.3,5.6.1,2,.5,3.9.6,5.8-.2,3.3-1.4,6.5.2,9.7.2,1.1,0,2.1,0,3.2,0,.5,0,1.1-.3,1.6-.2,5.5.7,10.9-.4,16.4,0,.9,0,1.7.3,2.6.4,2.1,0,4.2.4,6.2,0,2-.4,4-.7,6.1-.5,2.7.3,5.4-.4,8.1.7.6.3,1.5,0,2.3,0,5.1-.9,10.3-.9,15.4,0,.7.1,1.5-.2,2.2-.2,1.5,0,3.1-.5,4.6-.1,3.6.8,7.1.5,10.8,0,3.1-.4,6.3.2,9.5.3.8,0,1.6.3,2.3.1,5.3-1.1,10.7-.9,16,0,1.2.2,2.6-.3,3.9-.5,1.7-.2,3.3-.5,4.5,1.7Z"/>
            <path class="cls-6" d="m182.7,555.7c1.4-2,2.6-2.8,4.4-3,4.2-.6,8.4-1.5,12.6-2.2,1.3-.2,2.7-.7,3.8-.3,1.8.5,3.1-.2,4.7-.8,1.5-.6,3-1.3,4.6-1.4,2-.2,4-.9,5.8-.9,4.3,0,7.9-2.5,12.1-2.6.9,0,1.7-.4,2.5-.7,2-.7,3.9-1.9,6.3-.8.5.3,1.4-.4,2.2-.5,1.3-.1,2.7-.5,3.6,1,0,.3,0,.7-.2.9-2.1,2-4.2,4.1-6.4,5.9-2,1.7-2.5,4-2.9,6.4,0,.5.3,1.3.8,1.7,1.7,1.5,3.5,2.9,5.2,4.4.5.4.8,1,1.2,1.6.5.9,1.7,1.7.8,2.9-.9,1.3-2,.2-3,.3-3.4.2-6.4-1.2-9.6-1.9-.6-.1-1.3-.4-1.9-.4-3,.2-5.9-.2-8.6-1.7-.4-.2-.8-.5-1.2-.4-3.5.5-6.4-1.1-9.5-2.2-1.2-.4-2.5-.6-3.8-.7-2.9-.3-6.1.2-8.8-.8-3.5-1.3-6.7-2.7-10.5-2.1-1.1.2-2.5-1.1-4-1.8Z"/>
            <path class="cls-6" d="m453.4,555.1c-1.4.4-2.5,1.1-3.5.9-3-.6-6-.8-8.8.3-3.1,1.2-6.2.3-9.1-.2-2.8-.5-5.2.2-7.7.5-.8,0-1.5.3-2.3.3-3-.2-6.1-.6-9.1-.5-4.4,0-8.8-.6-13.2.6-.8.2-1.7-.3-2.6-.4-1.6-.1-3.4-.5-4.9-.1-3.4.7-6.7.4-10.1,0-4.1-.4-8.3,0-12.5.1-1.7,0-3.5,0-5.2-.1-1.4-.2-2.6-.5-3.8.9-1.2,1.5-2.8,1.5-4.3,0-2-1.9-4.2-2-6.7-1.2-1,.4-2.3.2-3.4.1-4-.3-8-.9-12,.2-.9.2-2,.5-2.9.3-3.8-1-7.6-.7-11.4-.3-1.5.2-3-.3-4.5-.3-5.3,0-10.6,0-15.9,0-2.5,0-5-.4-7.5-.6-1.6,0-3.3,0-5,0-4.5.4-8.9,1.1-13.4,1.2-4.8,0-9.6-.4-14.5-.6-1.3,0-2.6.3-3.9.4-1,0-2,0-2.9,0-2.6-.1-5.3-.5-7.9-.3-2.1.2-3.6-.3-5-1.7.6-1.9,2-2.3,3.6-1.9,3.3.9,6.5.2,9.8,0,6.3-.3,12.7.1,19.1.2,1.1,0,2.2,0,3.2,0,3.6-.2,7-1.8,10.7-.5.2,0,.4,0,.7,0,4-.9,8.1.8,12,.3,4.1-.5,8,1.6,12-.1.6-.3,1.5,0,2.2.2.9.1,1.8.5,2.6.3,3.7-.7,7.4.1,11.1,0,1.4,0,2.8-.6,4.2-.6,4.6,0,9.1.3,13.6.5,1,0,2.1.3,3,0,3-1,6.3-.1,9.4-1.4,1.4-.6,3.4.1,5.1.4.8.1,1.6,1,2.4,1,5.2,0,10.3-.2,15.5-.3.1,0,.2,0,.3,0,3.5,0,7-.3,10.4,0,2.6.3,5.2.8,7.8-.1.4-.1.9-.2,1.3-.1,3.7,1,7.4-.5,11.1,0,1.8.2,3.7.4,5.5.6.5,0,1.1.2,1.6,0,2.9-.9,5.8,0,8.8,0,4.9,0,9.8-.6,14.7-.9.5,0,1,0,1.6,0,2.1.2,4.1,1,6.4.3,1.5-.5,2.9.5,4.3,2.3Z"/>
            <path class="cls-6" d="m763.6,554.9c-2.2.9-4.5,1.1-6.9,1.3-3.5.3-7,.5-10.5.7-.4,0-.9,0-1.3,0-3.1-.2-6.2-.7-9.3-.4-1.9.2-3.4-.2-5-.8-.9-.3-2-.3-2.9,0-3,.8-6,.5-9.1.2-2.1-.2-4.3.4-6.5.7-.6,0-1.3.3-1.9.3-2.9-.2-5.8-.4-8.7-.6-1.1,0-2.3-.3-3.3,0-2.1.6-4.1.9-6.1,0,0,0-.2,0-.3,0-4.5,1.7-9.1-1.1-13.7.5-1.3.5-3.2-.5-4.8-.7-.7-.1-1.6-.6-2.2-.3-2.8,1.2-5.6.4-8.4.6-4.5.2-9,.4-13.5.6-.1,0-.2,0-.3,0-1.8-.4-3.6-1.1-5.4-1.2-1.8-.1-3.8.7-5.5.3-1.6-.3-3-.2-4.4.4-.7.3-1.5.5-2.2.4-3.5-.2-7-.4-10.5-.6-2.5-.2-5-.4-7.5-.6-.7,0-1.3-.2-2,0-7.9,1.4-15.8.4-23.7.6-4.8.2-9.7,0-14.5,0-3.9-.1-7.9-.4-11.8-.7-.4,0-.8-.4-1.2-.6,1.2-3.1,3.9-2.4,5.9-2.2,3.5.3,7-.8,10.4.7,8.8-1.4,17.6-.3,26.4-.7,1.5,0,3.1-.2,4.6-.4.2,0,.5-.1.6,0,7,2,14.1,0,21.2.4,7.1.4,14.3,0,21.5.1,1,0,2,.2,2.9.3,1.5.1,3.1.4,4.6.3,3.5-.1,7-.5,10.5-.6,1.4,0,2.8.3,4.2.4,1.3.1,2.7.3,3.9.1,7.8-1,15.5-.9,23.3,0,5.2.6,10.4.7,15.6-.4.1,0,.2,0,.3,0,2.8.2,5.7.7,8.5.4,2.8-.4,5.4-.7,8.1,0,.4.1.9.3,1.3.2,6.9-1.4,13.8-.4,20.8-.6,3,0,5.9.7,8.9,1,0,.4,0,.7,0,1.1Z"/>
            <path class="cls-6" d="m455.4,554.9c1-2.2,2.4-2.3,3.9-2,1.8.4,8.1.2,9.9,0,1.9-.2,4-.1,5.9.1,3,.4,5.8.7,8.7-.5,1.1-.5,2.6-.5,3.8-.2,2.4.5,4.7,1,7.4.6,3.5-.6,7.2,0,10.8.1.7,0,1.5,0,2.2-.1.9,0,1.8-.3,2.6,0,3.1.6,6.1.3,9.2,0,3-.3,6.1.1,9.2.3.5,0,1.2.3,1.6.1,2.5-1.2,5.1-.6,7.7-.6,1.7,0,3.5-.3,5.2-.4.7,0,1.5,0,2.2.2,1,.4,2.3.8,2,2.2-.2,1.4-1.5,1.3-2.5,1.6-5.3,1.6-10.5-.6-15.7,0-1.5.1-3,.4-4.5.5-.7,0-1.4.2-2,0-4.1-1-8.2-.8-12.4,0-1.2.2-2.6-.5-3.8-.5-5.8,0-11.7.1-17.5.2-.4,0-.9,0-1.3,0-3.4-1-6.7-.2-10,.3-1.1.2-2.4,0-3.5-.3-2-.3-3.9-.7-6.1-.4-3.4.5-7,.2-10.6.1-.8,0-1.6-.8-2.5-1.3Z"/>
            <path class="cls-6" d="m1163.7,554.1c-.8,1.9-2,2.2-3.6,2.2-3.3,0-6.6,0-9.9,0-1.5,0-3,.3-4.5.5-.5,0-1.1.1-1.6,0-2.2-.2-4.3-.4-6.5-.6-1-.1-1.9-.5-3-.8,1.8-3.1,2.6-3.6,5.3-2.7,2.8.9,5.6.8,8.4.2,2.3-.5,4.7-.9,7.1,0,.8.3,1.9,0,2.8,0,1.9,0,3.9-1,5.5,1.1Z"/>
            <path class="cls-6" d="m556.3,554.9q-2.3,1.4-3.9-.5c1.4-1.3,2.5-1.3,3.9.5Z"/>
        </g>
        <g id="xpan-fonoteca">
            <path class="cls-6" d="m564.4,847.1c.1-.5.1-.6.2-.6,2.7-1.7,4.2-4.8,7.4-5.9.7-.2,1.3-.8,1.8-1.3,1.2-1.3,2.5-2.2,4.1-3,1.4-.6,2.7-1.6,4-2.4.4-.3.9-.7,1.1-1.2.5-1.5,1.8-2,3-2.6,1.1-.6,2.2-1.3,3.2-2.1.7-.5,1.3-1.1,2.2-1.3,1.7-.4,3.2-1.5,4-3,1.1-2.3,3.3-2.9,5.3-3.8,1-.4,2.1-.6,3.1-1,2.1-1,3.6-2.7,4.9-4.5.6-.8,1.4-1.6,2.3-2.2,1.6-1,3.4-1.8,5.3-2.7.4.4.9.8,1.3,1.1-1.3,2.2-2.6,4.2-3.6,6.4-.6,1.3-.9,2.8-1.2,4.3-.3,1.6.1,2.9,1.4,4,.9.8,1.4,2,2.2,2.9.9,1,2,1.8,3.4,1.5,2.9-.5,5.1,1.3,7.6,2.1.3,0,.6.8.5,1.2,0,.3-.6.8-1,.8-3,0-5.6,1.6-8.5,1.9-2.6.2-4.7,2-7.3,1.6-.2,0-.4,0-.6,0-2.3,1.4-5,1.2-7.4,2-1.8.6-3.5.6-5.2.6-1.5,0-2.9.4-4,1.3-.7.6-1.4.8-2.3.8-2.7-.2-5.2.7-7.8,1.1-2.4.4-4.6,1-6.7,2.2-.3.2-.7.1-1,.1-2.4,0-4.5.8-6.7,1.6-1.1.5-2.3.8-3.5.9-.5,0-1-.5-1.5-.8Z"/>
            <path class="cls-6" d="m699.7,780.3c.7-.8,1.3-.5,1.9-.2,1.5.7,2.4.4,3.1-1.1.5-1.1,1.2-1.4,2.3-1.3,3.1.2,6.1-.5,9-1.4.6-.2,1.3-.4,1.9-.8,2.7-1.5,5.4-3.2,8.2-4.3,3.1-1.3,5.9-3.2,9.2-3.9.2,0,.3-.2.5-.3,1.8-.8,3.6-1.5,5.4-2.3,1.6-.7,3.1-1.6,4.7-2.3,1.2-.5,2.6-.8,3.8-1.2.8-.3,1.7-.6,2.4-1.1,1.6-.9,3-2.1,4.7-2.9.9-.5,1.9-.7,2.9-.8,1.2-.1,2.2-.7,3.2-1.3.6-.3,1.2-.5,1.8-.8.8-.3,1.7-.3,2.3-.8,1.7-1.6,4.1-1.8,6.1-2.6.7-.3,1.3-.7,1.9-1,2.8-1.5,5.5-3.1,8.3-4.4,1.2-.6,2.6-.5,4-.8.4,0,.8-.3,1.1-.5,1.9-2,4.4-2.6,6.8-3.6.2-.1.5-.1.8-.1,1.3,0,1.8.3,1.9,1.3,0,1.2-.5,2-1.6,2.2-.9.1-1.9.2-2.8.4-2,.4-3.7,1.6-5.4,2.7-1.7,1.1-3.7,1.6-5.6,2.4-1.5.7-2.9,1.5-4.4,2.2-1,.5-2.1.9-3.2,1.3-1.3.5-2.7.7-3.9,1.6-1.4,1-3.1,1.6-4.4,3-.3.3-.9.2-1.4.3-.8.2-1.6.3-2.3.6-1.9.9-3.7,1.9-5.6,2.8-1.5.6-3.1.9-4.6,1.5-1.6.6-3.6,1-4.7,2.2-1.8,1.8-3.9,2.6-6.2,3.3-.6.2-1.3.5-1.9.7-1.2.5-2.4,1-3.6,1.5-.6.3-1.4.5-1.8.9-1.9,1.8-4.4,2.1-6.6,3.1-2.8,1.3-5.6,2.5-8.2,4.1-1.6,1-3.3,1.7-5,2-1.5.2-2.8.7-3.9,1.6-1.3,1.1-2.8,1.2-4.2,2-1.1.6-2.3,1-3.2,1.8-2,1.6-4.3,2.3-6.6,3.1-.3,0-.6,0-.8.2-3.2,2.5-7.2,3.1-10.7,4.9-1.5.8-3.1,1.6-4.7,2.4-2,1.1-4.3,1.6-6.4,2.5-3.4,1.5-6.8,3.2-10.2,4.8-2.3,1.1-4.5,2.3-6.8,3.3-.8.4-1.8.5-2.8.4-.5,0-1.1-.6-1.4-1-.1-.3.3-.9.6-1.3,1.4-2,3.7-2.1,5.6-3,1.5-.7,3-1.6,4.5-2.3,1-.5,2-.8,3-1.2.9-.4,2.1-.6,2.7-1.2,1.1-1.3,2.7-1.5,4.1-2.2,1.5-.7,3-1.5,4.6-2.2.9-.4,1.7-.8,2.6-1.3.2,0,.4,0,.6-.1,3.6-1.6,7.2-3.1,10.8-4.7.4-.2.8-.5,1.2-.8,1.1-.8,2.2-1.4,3.6-1.3.5,0,1,0,1.4-.3,2.4-1,2.7-1.7,1.4-4.1Z"/>
            <path class="cls-6" d="m1060.8,618.9c.9,0,1.5,0,1.9.1.4.1.9.5,1,.9,0,.3-.3.9-.6,1.1-1.8.9-3.7,1.8-5.1,3.3-3.3.7-5.8,3.1-9.2,3.7-1.3.2-2.5,1.2-3.7,1.7-1,.4-2,.7-3.1,1-.4.1-.8.3-1.1.4-2.4,1.2-4.7,2.6-7.3,3.3-1.9.6-3.6,1.7-4.8,3.4-1,1.3-2.4,1.5-3.7.9-1.5-.7-2.5-.2-3.5.8-.7.8-1.4,1.6-2,2.5-1,1.4-2.4,2.2-4.1,2.4-.7.1-1.4,0-2.1,0-1.3-.1-2.6.3-3.4,1.2-1.9,2.1-4.6,2.6-7,3.6-1.3.6-2.8.9-3.9,1.8-1.6,1.4-3.6,1.6-5.3,2.4-1.9,1-3.8,2-5.8,2.9-1.5.7-3,1.2-4.5,1.9-1,.5-2.1,1-3,1.6-1.1.6-2.1,1.3-3.4,1.2-.9,0-1.6-.2-2.2-.9-.3-.4-.8-1.1-.7-1.3.3-.5,1-1.1,1.5-1.1,1.9,0,3.3-.9,4.8-1.9,2.7-1.7,5.6-3.2,8.5-4.6,1.4-.7,3-.9,4.4-1.5,2.1-.8,4.1-1.8,6.2-2.7,1.8-.7,3.3-1.7,4.9-2.8,1.1-.7,2.7-.8,4-1.2.8-.2,1.8-.3,2.5-.6,1.6-.7,3.1-1.4,4.6-2.2.6-.3,1.1-.8,1.5-1.3.9-1,1.8-1.5,3.2-1.4,1.3.1,2.3,0,3.3-1.4.7-1,2.3-1.4,3.5-2,.9-.4,1.8-.7,2.7-1,1-.4,2.1-.7,3-1.2,1.7-1,3.4-2,4.9-3.3,1.5-1.3,3-2.3,5.1-2.2,1.3,0,2.4-.5,3.4-1.3.4-.3.9-.6,1.4-.8,1.7-.7,3.4-1.3,4.9-2.5.6-.5,1.5-.6,2.3-.9,1.3-.5,2.7-1,4-1.5.8-.3,1.7-.5,2.1-.6Z"/>
            <path class="cls-6" d="m853.1,714.3c.7-1.1,1.5-1.7,2.7-2.2,3.3-1.5,6.9-2.2,10-4.4,2.4-1.6,5.2-3.1,8-3.6,4.5-.8,8-3.4,11.9-5.2,1.6-.8,3.3-1.5,5-2.1,1.5-.5,2.9-1.3,4.2-2,1.3-.7,2.5-1.4,4-1.3.5,0,1.2-.3,1.6-.7,1.3-1.4,2.7-2.5,4.6-2.8.7-.1,1.5-.5,2-1.1,1.5-1.8,3.7-2.1,5.7-2.9,1.6-.7,3.2-1.3,4.9-2,1.5-.6,3-1.4,4.5-1.8,2.1-.5,3.8-1.9,5.6-2.9.2,0,.4-.2.6-.2,1.3.4,1.5,1.5,1.4,2.5-.1,1.2-1,1.9-2.1,2.3-2.8,1-5.7,1.9-8.4,2.9-1.1.4-2.3,1.2-3,2.1-1.3,1.6-3.1,2.2-5,2.6-2.1.4-4.1,1-5.9,2.1-.5.3-1,.5-1.5.6-1,.4-2.1.6-3.1,1-3.8,1.9-7.5,4-11.4,5.9-1.9.9-3.9,1.5-5.8,2.3-.9.4-1.7,1.2-2.6,1.6-2.8,1.2-5.5,3-8.5,3.4-3,.4-4.9,1.8-6.8,3.7-.3.4-.9.5-1.4.6-.8.3-1.6.4-2.3.7-1.8.7-3.6,1.3-5.3,2.1-1.7.8-2.7.1-3.7-1.3Z"/>
            <path class="cls-6" d="m1081.5,612c-1.5,2.6-3.2,4.1-6.1,4.2-.9,0-1.9.5-2.6,1.1-1.9,1.8-4.1,1.9-6.5,1.5-.4-1.7-.3-1.9.9-2.5.7-.3,1.6-.5,2.3-.9.9-.5,1.9-.9,2.6-1.6,1.7-1.7,3.9-2.1,6.1-2.5.7-.1,1.4,0,2.1,0,1.1,0,2.2.2,2.7-1.3.1-.4.8-.6,1.3-.9,1.8-1.1,3.6-2.2,5.5-3.1.9-.5,1.9-.5,2.9-.9,1.6-.7,3.4-1.2,4.8-2.3,2.1-1.6,4.5-2.2,6.8-3.2,1.1-.4,2-1,3.1-1.6.3-.2.6-.4.9-.5,3.3-.9,5.9-3,8.9-4.5,2.1-1,2.9-.8,4.3,1.1-1.5,1.5-2.5,3.4-5.2,3.4-.9,0-1.9.7-2.7,1.2-1.1.7-2.2,1.2-3.5,1.5-1.3.3-2.4,1.3-3.5,1.9-.3.2-.7.7-1,.6-1.8,0-3.1,1.1-4.6,1.6-1.9.7-3.7,1.3-5.6,1.9-1.4.5-2.7,1-3.6,2.2-1.9,2.5-4.7,3.1-7.6,3.3-.8,0-1.6,0-2.5,0Z"/>
            <path class="cls-6" d="m1134.8,586.3c1.7-1.9,3.6-3.2,5.9-4,.7-.3,1.6-.3,2.1-.8,1.8-2,4.3-2,6.6-2.7,1.7-.5,3.2-1.5,4.8-2.3.9-.4,1.9-.7,2.8-1.2.6-.3,1.2-.8,1.8-1.4,1.3-1.2,2.6-2,4.5-2.1,1.1,0,2.4-.3,3.3-1,1.7-1.4,3.6-1.7,5.6-2.4.2,0,.4,0,.6-.2q1.3-.5,2.2.7c-.7,2.4-2.6,3.6-4.7,4.1-3.8,1-7.3,2.6-10.8,4.4-1.1.6-2.2,1.4-3.3,1.9-2.3,1-4.6,1.9-7,2.9-.6.3-1.2.6-1.8.9-3,1.4-6.1,2.8-9.1,4.1-1.7.7-2.1.6-3.4-1.1Z"/>
            <path class="cls-6" d="m937.4,676.9c.6-1.5,1.6-2.3,2.9-2.9,1.1-.5,2-1.4,3-2,.5-.3,1-.7,1.6-.9,2.6-1.1,5.3-2.1,7.9-3.1,1.4-.6,2.8-1.1,4.2-1.7.3-.1.5-.3.7-.3,2.1.3,3.2-1.2,4.4-2.5,1-1.1,2.2-1.7,3.8-1.8.7,0,1.3-.5,2-.5.9-.1,1.9-.5,2.6.6.6.9.4,2.4-.7,3.1-1.9,1.3-4.1,2.3-6.4,2.4-2.2,0-3.6,1.1-5,2.3-2.2,1.7-4.6,3.1-7.5,3.4-.1,0-.3,0-.4,0-2.8,1.3-5.7,2.6-8.5,4-.6.3-1.1.7-1.8,1-1.5.8-1.6.7-2.9-.9Z"/>
            <path class="cls-6" d="m618.4,821.9c.8-1.5,2.1-2.2,3.5-2.6,2.4-.7,4.4-2.1,6.4-3.5,1.1-.7,2.2-1.2,3.5-1.5,3.1-.8,6.1-1.9,8.5-4.2.8-.7,1.5-1.2,2.6-1.3,1.7-.2,3.4-1,4.8-2.1.6-.4,1.1-.8,1.8-.2.7.6.8,1.4.4,2.2-1,1.9-2.8,2.8-4.6,3.5-1.7.7-3.5,1-4.8,2.4-.8.8-2.1,1.3-3.4,1.1-2.1-.2-3.7.4-5.1,2.2-1,1.3-2.6,2.2-4.5,2.7-1.7.4-3.5,1-4.9,2.3-1.4,1.2-2.9.8-4.1-1Z"/>
            <path class="cls-6" d="m848.5,714.9c.4.3.9.6,1.3,1.1,1,1.1.8,1.8-.5,2.5-2.9,1.6-5.7,3.2-8.7,4.4-.6.2-1.1.7-1.7,1-.5.3-1.1.6-1.7.6-1.2,0-2,.5-2.9,1.2-.9.7-2.1,1.4-3.2,1.5-2,.1-3.5,1.2-5.1,2-1.7.9-3.3,2-5,2.7-.9.4-2,.2-3,0-.9-.1-1.2-1.1-.5-1.7.8-.7,1.8-1.2,2.8-1.7.8-.4,1.9-.6,2.6-1.1,1.2-.9,2.6-1.3,4-1.8,1.8-.6,3.3-1.8,4.9-2.9.8-.6,1.5-1.1,2.5-1.2.9,0,1.7-.4,2.5-.7,4-1.5,8-3.1,11.2-6,0,0,.3,0,.6-.2Z"/>
            <path class="cls-6" d="m813.1,734.2c-.4,1-1.2,1.8-2.3,2.2-2.5.8-4.6,2.2-6.8,3.6-1.3.9-2.7.6-3.8-.6.9-1.8,2.8-2.6,4.3-3.6,1.6-1.1,3.5-1.9,5.3-2.7,1.4-.7,2.2-.3,3.3,1.1Z"/>
            <path class="cls-6" d="m1130.5,587.8s.4-.1.7,0c.5.2,1.3.5,1.4,1,.1.4-.2,1.2-.6,1.5-1.4,1-2.8,1.9-4.2,2.8-.5.3-1.2.3-1.8.1-1.3-.2-1.8-1.5-1.1-2.5,1.3-1.7,2.9-3.1,5.6-2.9Z"/>
        </g>
        <g id="xpan-contacto">
            <path class="cls-6" d="m1238.5,1025.6c-.3-.3-.8-.6-.8-.9,0-1.5-1.1-2.7-.9-4.2,0-.7-.3-1.4-.4-2.1-.1-.6-.3-1.1-.2-1.7.2-2.5-.6-4.6-1.7-6.8,0-.2-.3-.4-.3-.5.3-2-1-3.7-.8-5.6.3-2.3-.2-4.4-1.4-6.4-.6-1-.7-2-.6-3.1.2-2.1-.2-4.1-1.2-5.9,0,0-.1-.2-.1-.3,0-1.4-.3-2.6-.6-3.9-.5-2-.9-4-1.8-5.8-.5-1.1-.6-2.1,0-3.1.4-.6.3-1-.1-1.7-.9-1.4-1.5-2.9-2.3-4.4-.1-.3-.1-.6-.1-.9,0-1.8,0-3.6,0-5.5,0-.1,0-.2,0-.3,0-.8.7-1.7,1.3-1.7.5,0,1.2.7,1.4,1.5.3,1.5.7,2.9,2.4,3.5.3.1.7.5.9.9.7,1.7,2,2.8,3.6,3.4.6.2,1.3.3,1.9.3.7,0,1-.6.5-1.2-.4-.6-.5-1.1-.5-1.7,0-1,.2-2.1-.6-3-.2-.2-.1-.7-.1-1.1,0-2,0-4.1,0-6.1,0-.9,0-1.8.5-2.7.5-1.1.4-2.3,0-3.5-.6-1.5-.7-3,0-4.5.4-.8.3-1.6,0-2.4-.2-.5-.4-1.1-.4-1.6,0-9,0-18,0-27,0-1.9,0-3.7,0-5.6,0-1.2.2-2.4.6-3.6.3-1-.8-2.1-.6-3.4.2-1.3.2-2.7.2-4,0-.4-.1-.7-.1-1.1,0-.3,0-.7,0-.9.8-.7.5-1.6.5-2.5,0-1.9,0-3.9,0-5.8,0-1,.1-2.1-.5-3-.2-.3-.2-.9-.1-1.4.2-.9.4-1.8.9-2.6.5-.8.4-1.3,0-2-.5-.9-.1-2.1-.9-2.9,0,0,0-.3,0-.4,1-1.3.6-2.8.6-4.2,0-.7,0-1.5,0-2.2,0-.6-.2-1.2-.4-1.8,0-.4-.2-.8-.3-1.2-.1-.5-.2-1.1-.4-1.6-.3-.8-.5-1.6.1-2.3.2-.3.4-.9.3-1.3-.2-1.2.3-2.4-.5-3.5,0,0,0-.1,0-.1.8-1,.2-2.3.9-3.3.6-1,.8-2.2.5-3.4-.2-.9-.1-1.8-.8-2.6-.2-.2.1-.8.2-1.2.1-.6.4-1.2.4-1.8,0-4.4,0-8.9,0-13.3,0-1.3-.6-2.5-1-3.7-.4-1.2-.5-2.2,0-3.3.2-.4.3-.9.3-1.3,0-1.1,0-2.2.6-3.3.3-.4,0-1.2-.1-1.8-.1-.7-.4-1.4-.4-2.1,0-2.4,0-4.9,0-7.3,0-1-.1-2.1.6-3,.2-.3.1-.9,0-1.2-.5-.8-.5-1.6-.5-2.4,0-1,0-2,0-3,0-.9,0-1.7.5-2.5.4-.8.5-2,0-2.7-.7-1.4-.5-2.8-.6-4.3,0-1.4,0-2.8,0-4.2,0-1,0-2,.5-3,.3-.4.2-1.3,0-1.8-.4-.8-.4-1.6-.5-2.4,0-.6-.4-1.2-.7-1.9.7-.7.8-1.6.7-2.6,0-.2,0-.6,0-.8,1-.9.6-2,.7-3.1.2-1.6-.2-3-1-4.3-.5-.7-.4-1.2,0-1.9.2-.4.4-1,.3-1.5-.1-1.1.6-1.9.7-2.8,0-.9-.6-1.8-.6-2.7-.1-1.9,0-3.9,0-5.8,0-.9,0-1.9.5-2.7.2-.3.2-.7.2-1.1-.1-1.7.3-3.5-.6-5.2-.6-1.1-.6-2.6-.8-3.9-.1-1,0-1.9.5-2.9.4-1,.4-2.2.9-3.3.2-.4,0-1-.2-1.3-.5-.8-.5-1.7-.5-2.6,0-1,0-2.1,0-3.1,0,0,0-.1,0-.2-.7-1.2-.4-2.5,0-3.7,0-.2,0-.5,0-.6,1.1-1.9.4-4.1.6-6.1,0-.2,0-.5,0-.6-.9-1.2-.6-2.6-.6-3.9,0-2.9,0-5.7,0-8.6,0-.7.3-1.4.4-2.1,0-.6.3-1.4,0-1.9-.9-2.1-.8-4,.3-5.9.7-1.2.7-2.1.1-3.3-.4-.8-.4-1.7-.9-2.6-.2-.4,0-1.2.3-1.8.4-.9.4-1.7,0-2.5-.6-1.2-.6-2.5,0-3.7.3-.6.3-1,0-1.6-.7-1.4-.7-2.7,0-4.1.4-.8.4-1.7,0-2.5-.7-1.3-.6-2.6,0-3.9.3-.7.4-1.2,0-1.9-.2-.4-.4-1-.4-1.5,0-1.6-.3-3.3.6-4.9.2-.4.2-1.2,0-1.7-.3-1-.8-1.9-1.1-2.8-.4-1.4-.4-2.8,0-4.3.2-.5.2-1.1.4-1.6.6-1.4.3-2.8,0-4.2-.4-2.4,0-5,0-7.5,0-.2,0-.5,0-.6.8-1.1.6-2.4.6-3.6,0-1.8,0-3.5,0-5.3,0-.5,0-1.1,0-1.6-.1-.4-.4-.8-.7-1.3,1-1,1.1-2,.3-3.2-.2-.3-.2-.7-.2-1.1-.1-.8-.2-1.6-.4-2.7.7-1.4,1.2-3.2,1.1-5.3,0-1.2.1-2.4,0-3.6,0-.9-.4-1.8-.5-2.7-.1-1.5-1.3-2.7-1-4.3.1-.5.2-1,.3-1.5.1-.5.3-1.1.3-1.6,0-.9.1-1.8,0-2.7-.3-2.1.7-3.5,2.3-4.6,2,1,2.3,2,1.4,4-.2.4-.2,1-.2,1.5,0,1.1.2,2.3-.5,3.3-.2.2-.1.6,0,.9.4,1.3,1.1,2.5,1.1,3.8.2,2.7,0,5.4,0,8.1-.7.9-.4,1.8,0,2.9.4,1.4.5,3.1-.2,4.6-.4.8-.4,1.6,0,2.4.6,1.1.5,2.2,0,3.4-.6,1.3-.5,2.7,0,4.1.6,1.5.7,3,0,4.5-.3.6-.2,1.1,0,1.7.7,1.6.5,3.2.1,4.9-.1.6-.4,1.2-.4,1.8,0,.9,0,1.9,0,2.8,0,.3,0,.7,0,.9.9,1.3.6,2.7.6,4.1,0,1.1,0,2.3,0,3.4,0,.8,0,1.6-.5,2.4-.2.4-.2,1-.2,1.5,0,1.2,0,2.3-.5,3.5-.3.6-.3,1.5,0,2.1.7,1.4.6,2.7.6,4.2,0,1.5-.4,3,.5,4.4.2.3.1.8.1,1.2,0,1.4,0,2.8,0,4.2,0,1-.6,1.9-.6,2.8,0,.9.7,1.6.7,2.7,0,3.4,0,6.9,0,10.3,0,.6-.2,1.3-.4,1.9-.3,1-.4,1.9.1,2.8.4.8.8,1.8,1,2.7,0,.4-.2.9-.3,1.3-.1.5-.4,1-.4,1.4,0,3.5,0,7.1,0,10.6,0,.5-.2,1-.3,1.5-.6,1.5-.6,3,0,4.4.3.9.5,1.7.4,2.6-.2,1.4-.6,2.7-1,4-.3.8-.3,1.5,0,2.4.4,1.2,1.2,2.4,1,3.8,0,.5-.1,1-.3,1.3-.4.7-.4,1.2,0,1.9.3.6.4,1.3.4,1.9,0,5.1,0,10.3,0,15.4,0,.6.1,1.2.4,1.8.4,1.1.5,2.1,0,3.3-.4.8-.4,1.8-.4,2.7,0,2.2,0,4.4,0,6.6,0,.4,0,.8-.2,1-.5.7-.4,1.5-.5,2.2-.2,1.7.3,3.3,1.1,4.7.4.7.4,1.4,0,2.1-.3.6-.7,1.3-.9,2-.2.5-.3,1.2,0,1.6.8,1.2.5,2.5.5,3.8,0,1.5,0,3,0,4.5,0,.2,0,.4.1.6,1.1,2,.8,4-.3,5.8-.7,1.2-.8,2.2.2,3.2-1,.9-.8,2-.8,3.1,0,2.9,0,5.7,0,8.6,0,.4,0,.9.1,1.2.7.9.6,2,.6,3,0,3.1,0,6.1,0,9.2,0,1.2-.8,2.1-.7,3.1,0,1,.8,1.9.7,3-.1,1.2-.1,2.4-.6,3.6-.5,1.6-.5,3.4.3,5.1.5,1.2,1.2,2.3,1,3.7,0,.3,0,.6-.1.8-1,1.3-.6,2.8-.6,4.2,0,1.5-.3,2.7-1,4-.7,1.2-.7,2.5,0,3.8.5,1,.8,2.2.9,3.4.2,1.6.2,3.3.1,5,0,.9,0,1.8-.6,2.7-.4.6-.4,1.6.1,2.4.6.9.6,1.8,0,2.7-.2.2-.4.7-.3.8,1,1,.3,2.5,1,3.2-.1,1.1-.3,2-.3,2.8,0,3.2,0,6.5,0,9.7,0,.4-.2.9-.4,1.3-.5,1-.5,1.9,0,2.8.3.5.6,1,.8,1.5.2.6.4,1.5.2,1.8-1,1.1-.4,2.5-1.1,3.6-.3.4-.2,1.1-.2,1.7.1,1.6.6,3.1,1.1,4.7.3,1,.4,2.3,0,3.2-.6,1.4-.5,2.8-.5,4.3,0,1.2.2,2.4-.5,3.6-.3.5-.1,1.6.2,2.2.5,1.1.6,2.2,0,3.3-.3.6-.3,1.1,0,1.7.5.8.8,1.8,1,2.7.1.5,0,1.2-.3,1.6-1,1.7-1.2,3.5-1.1,5.4,0,.3,0,.6.2.9,1,2.1.8,4.2.1,6.3-.1.4-.2.8-.2,1.2,0,.7,0,1.5,0,2.2-.2,1.9.2,3.7,1.2,5.4.4.6.3,1.3,0,1.9-.2.6-.4,1.3-.4,1.9,0,1.4,0,2.7,0,4.1,0,1,.2,2.1-.6,3-.2.2-.1.7-.1,1.1,0,2.2,0,4.4,0,6.5,0,1.1-.2,2.2-.4,3.5.9.3,1.9.3,2.8-.6,2.2-2.2,4.4-4.3,6.5-6.5.6-.6,1-1.5,1.3-2.3.3-.7.8-.9,1.5-.7.8.2.8,1,.6,1.4-.8,1.6-.3,3.3-.7,4.8-.5,1.6-.3,3.4-1.3,4.8-.5.7-.9,1.5-1.4,2.2-.5.7-.5,1.4-.5,2.2,0,1.3.2,2.7-.6,3.9-.2.3-.1.9,0,1.4.2,1.5-.2,2.9-.9,4.2-.4.7-.5,1.4-.5,2.2,0,1.1.2,2.3-.6,3.3-.2.2,0,.6,0,.9,0,2,0,3.9,0,5.9,0,.6,0,1.2-.5,1.7-.6.9-1,1.9-1.5,2.9-.1.3-.1.7-.1,1.1,0,.9,0,1.9,0,2.8,0,.3,0,.7,0,.9-.8,1.3-.5,2.8-.7,4.2,0,.9-.6,1.8-.8,2.8-.2.6-.4,1.3-.5,1.9,0,.6,0,1.2-.5,1.7-.1.1-.3.4-.3.5,0,1.7-1,3.3-.6,5,.2.7-.2,1.3-1.1,1.8Z"/>
        </g>
        <g id="xpan-ps.1">
            <path class="cls-6" d="m1576.2,748.5c.7-.7.8-1.5.4-2.5-.9-2.3-1.6-4.6-2.5-6.9-.3-.8-.8-1.4-1.3-2.1-.5-.7-.4-1.2.3-1.7.3.2.8.2,1.1.5,1.7,1.7,3.9,2.6,5.7,4.2.6.6,1.2,1.3,1.6,2.1.6,1.1,1.4,2.1,2.6,2.6,1,.5,2.1.9,2.7,2,.2.3.7.5,1.1.6,1.1.5,2.1,1.2,2.8,2.2.5.8,1.2,1.2,2.1,1.6.8.4,1.6.7,2.1,1.6.2.3.7.5,1,.7,1.5.8,3,1.5,4.4,2.3.4.2.9.6,1.2,1,1.2,1.7,2.6,3.1,4.5,3.9.6.3,1.1.8,1.7,1.3.3.3.6.6,1,.7,1.5.6,2.5,1.8,3.5,2.9.2.2.4.5.7.6,1.5.7,2.4,2.1,3.6,3,.6.5,1.3.8,2,1.2.6.4,1.3.7,1.1,1.7-.3,0-.7.3-1,.2-1.3-.4-2.6-.9-3.9-1.2-3.1-.7-5.8-2.8-9.2-2.5-.2,0-.4,0-.5,0-1.9-.7-3.8-1.4-5.6-2.3-1.3-.6-2.6-1.1-4.1-1.1-1.3,0-2.6-.3-3.7-1.1-1.4-.9-3-1.3-4.7-1.4-.3,0-.6,0-.9-.2-2.7-1.2-5.5-1.8-8.4-2.1-.9-.1-1.8-.4-2.3-1.2-.4-.6-.9-.8-1.6-.8-1.3,0-2.6,0-3.9-.2-.3,0-.7-.1-1-.3-1.5-.8-3-1.5-4.5-2.3-.8-.4-.8-.5-1.1-1.7.5-.6,1.1-.6,1.7-.4,1.3.4,2.5.6,3.7-.3.3-.2.9-.2,1.4-.2,1.3,0,2.6-.4,3.6-1.3.5-.4.8-1.1,1.4-1.7-.6-.2-.9-.4-1.2-.5-.3,0-.7,0-1-.1-2.5-1.2-5.3-1.8-7.6-3.3-1.1-.7-2.4-1.2-3.4-2.3-.5-.6-1.5-1-2.4-1.2-1.6-.3-2.9-.9-4-2.1-.3-.4-.9-.6-1.4-.7-.9-.3-1.8-.5-2.7-.9-6.7-3.5-13.4-7-20-10.5-1.8-.9-3.6-1.9-5.4-2.8-.8-.4-1.4-1-2.1-1.6-.3-.2-.6-.5-.9-.5-2-.1-3.4-1.3-5-2.2-1.4-.8-2.7-1.8-4.1-2.7-1.4-.9-2.9-1.6-4.4-2.3-.8-.4-1.7-.5-2.5-.9-.6-.2-1.2-.5-1.6-1-1.2-1.6-2.9-2.3-4.8-2.5-.6,0-1-.1-1.3-.7-.2-.3-.5-.5-.8-.7-2.5-1.5-5.1-2.7-8.1-3.2-.5,0-1.2-.3-1.4-.7-.5-.9-1.3-1.3-2.1-1.5-2.3-.7-4-2.3-5.7-3.8-.9-.8-2-.9-3.1-1.2-.4-.1-.9-.2-1.3-.4-.8-.5-1.5-1.2-2.3-1.6-2.8-1.5-5.7-3-8.6-4.5-1.4-.8-3-1.1-4.5-1.4-.4,0-.9,0-1.2-.3-1.5-1-2.9-2.2-4.4-3.2-.5-.4-1-.8-1.6-1-.9-.4-1.9-.6-2.8-1-1.9-.9-3.8-1.8-5.5-2.9-1.5-1-3-1.9-4.8-2.5-1-.3-2-.8-2.7-1.4-3-2.8-7.2-3.2-10.5-5.4-.3-.2-.8-.3-1.1-.6-1.2-1.5-3.1-1.9-4.7-2.5-.3-.1-.7-.3-1-.3-.6,0-1-.1-1.3-.7,0-.2-.2-.3-.4-.4-1-.5-1.7-1.3-2.5-1.9-1.4-1-3-2-4.9-1.9-.9,0-1.3-.4-2-.8-1.5-.9-2.4-2.6-4.4-2.7-.9,0-1.7-.8-2.6-1.2-1.8-1-3.7-1.8-5.3-3.3-1.2-1-2.7-1.9-4.5-2-1.2-.1-2.5-.5-3.5-1.1-1.4-.8-2.6-2-3.9-3-.5-.4-1.1-.7-1.7-1-.9-.4-1.8-.6-2.6-1-1.1-.5-2.2-1.1-3.4-1.4-.9-.2-1.7-1.2-2.5-1.9-1.6-1.5-3.5-2.4-5.6-3-.6-.1-1.1-.4-1.7-.6-2.6-1.3-5.3-2.5-7.8-4.1-1.7-1.1-3.4-2.2-5.4-2.8-1-.3-1.7-1-2.3-1.9-.6-1-1.4-1.6-2.6-1.6-.8,0-1.6-.2-2.4-.4-.5-.2-.9-.7-1.4-1-.6-.4-1.2-.9-1.8-1-1.2-.2-2.2-.7-3.1-1.6-.3-.4-.9-.6-1.3-.7-1.3-.2-2.5-.7-3.4-1.8-.4-.5-1.2-.9-1.8-.9-1.4-.2-2.5-.7-3.4-1.8-.3-.3-.8-.6-1.2-.6-1.9-.4-3.5-1.2-4.8-2.5-.7-.7-1.4-1-2.3-1.1-1.6-.2-3.2-.4-4.5-1.4-1-.8-2-1.7-2.9-2.5-.3-.3-.6-.6-1-.7-3.2-.9-6.1-2.3-8.6-4.5-.2-.2-.4-.3-.6-.4-2-1-3.9-2.1-5.9-3.1-.5-.3-1.1-.3-1.7-.5-.4-.1-.7-.4-1-.6-.3-.2-.6-.7-.9-.8-1.2-.1-2.2-.8-3.2-.9-1.1,0-1.5-.9-2.2-1.4-.7-.5-1.3-1.1-2.1-1.6-1.2-.7-2.3-1.5-3.6-2-1.3-.5-2.7-.8-4.1-1.2-.9-.3-2-.4-2.6-1-1.2-1.4-2.8-2-4.3-2.8-1.5-.7-2-1.9-2.3-3.4,1.8-.9,2.4-.8,3.6.6.3.3.7.6,1.1.9.4.3,1,.3,1.3.7,1.5,1.6,3.6,1.6,5.5,2.4,2.4,1,5,1.9,6.9,4,.2.2.6.4.9.5,1.8.2,3.2,1,4.5,2.3.5.5,1.2.6,1.9.9.8.3,1.7.5,2.2,1,1.2,1.2,2.5,1.9,4.1,2.2,1,.2,2.1.9,2.9,1.6.6.5,1.1.7,1.8.9,1.3.4,2.6,1,3.6,1.9,1.5,1.3,3.2,2.3,5.1,2.7.5.1,1,.3,1.5.6,1.2.6,2.5,1.2,3.7,1.9.8.4,1.4,1.1,2.1,1.6.4.3.8.5,1.2.8.8.6,1.6,1.2,2.4,1.8.6.4,1.2.7,1.9.9,1.1.4,2.2.8,3.3,1.2,1.3.6,2.5,1.2,3.9,1.7,2.1.7,4.2,1.6,5.9,3.3.3.3.7.4,1.1.6.8.3,1.6.4,2.3.8,2.3,1.1,4.6,2.3,6.8,3.6.9.5,1.7,1.1,2.4,1.8,1.2,1.1,2.7.9,4,1.3.4.1,1.1.1,1.3.4.8,1.4,2.3,1.8,3.6,2.5,2.1,1.1,4.3,2.2,6.3,3.4,1,.6,1.9,1.4,2.8,2.1.2.2.5.4.8.4,2.7,0,4.3,2.1,6,3.7,1,.9,2.3.4,3.4,1,.5.2,1.2.1,1.5.4,1.5,1.7,3.7,1.7,5.4,2.8,1.9,1.1,3.8,2,5.7,3,1.9,1,3.6,2.2,5.6,2.8,2.2.7,3.9,1.8,5.6,3.1,1.3,1,2.9,1.5,4.3,2.2,1,.5,1.9,1.2,2.8,1.9,1.1.9,2.4,1.8,4,1.8,1.7,0,3,.7,3.9,2.1.5.8,1.2,1.1,2.1,1.2.6,0,1.1.3,1.7.6,1.3.7,2.6,1.4,4,2.1.4.2.9.5,1.3.5,2,.1,3.5,1.3,4.6,2.8.5.7,1,1.2,1.9,1.1.2,0,.6,0,.7,0,1.4,1.9,3.8,2.4,5.7,3.5,1.7,1,3.4,2.3,5.5,2.4.3,0,.6.3,1,.5,2.6,1.4,5.3,2.5,7.7,4.1,1.6,1,3.2,1.8,4.9,2.5,1,.4,1.8,1,2.6,1.8,1.1,1.1,2.6,1.9,4.3,2,1.8.1,3.3.5,4.6,2.1.6.8,1.8,1.1,2.8,1.6.8.4,1.5.9,2,1.7.9,1.3,2,2,3.7,2.2,1.5.1,3,.5,4.4,1.4.7.5,1.5.7,2.2,1.1.6.3,1.3.7,1.8,1.2.7.9,1.5,1.5,2.7,1.4.4,0,1.1.2,1.3.5.6,1.1,1.6,1.2,2.7,1.3,1.2.2,2,1,3,1.6,2.2,1.2,4.5,2.3,6.7,3.5,1,.5,2,1,2.7,1.9.4.5,1.4.7,2.1.8,1.4.1,2.4.4,3.6,1.6,1.3,1.3,2.8,2.9,5.1,3,.7,0,1.5.4,2.4.5.8.1,1.7.6,2.2,1.2.9,1.1,2.2,1.6,3.4,2.3.9.5,1.9.9,2.6,1.8.4.5,1.2.6,1.9.9.7.3,1.6.3,1.9.8,1,1.4,2.4,1.4,3.8,1.6.9.1,1.6.4,2.1,1.1.9,1.2,2,2.1,3.4,2.7.3.1.5.3.8.4,2.3.2,4,1.6,5.7,2.9,1.9,1.4,4,2.7,6.5,2.7.9,0,1.6.3,2.1,1.1.3.4.8.7,1.3.9,1.5.8,3.2,1.3,4.4,2.4,1.6,1.5,3.5,2.2,5.2,3.3.3.2.7.4,1.1.6,1.1.6,2.1,1.2,3.3,1.9Z"/>
        </g>
        <g id="xpan-xpan.tv">
            <path class="cls-6" d="m2073,816c1.4,1.8,2,1.8,2.9,0,.3-.6.6-1.3.7-1.9.4-2,1.7-3,3.4-3.8.1,0,.3,0,.6.1.5,1.2.4,2.3-.1,3.6-.6,1.4-1.1,2.9-1.2,4.4-.2,3.4-1,6.5-1.7,9.8-.9,4.6-3.2,8.9-2.4,13.8.1.8.2,1.8-.2,2.6-1.4,3.1-1.7,6.4-2.1,9.7-.2,1.7-1,3.4-1.5,5.1-.3,1-.3,2-.5,3-.2,1.2-.4,2.4-.5,3.5,0,.6,0,1.2,0,1.8,0,.8,0,1.8-.4,2.4-.4.6-1.4,1.3-2.1,1.3-.6,0-1.4-.9-1.8-1.6-1-1.7-.9-3.6-.8-5.5,0-2.8.1-5.7-1.7-8.2-.3-.4-.3-1-.3-1.5.3-3-.8-5.7-1.6-8.5-.1-.4-.4-.8-.4-1.2.2-2.8-.3-5.3-2-7.5-.4-.5-.3-1.3-.3-2,.2-3.2-.6-6.3-1.6-9.3-.2-.6-.2-1.2-.4-1.7-.3-1.2-.5-2.5-1-3.7-1.1-2.6-1.5-5.2-1.7-8,0-.4-.1-1,.1-1.3.4-.5.9-1.1,1.5-1.2.4,0,1.2.3,1.5.8.5.7.6,1.6.9,2.4.5,1.3.9,2.6,1.6,3.8.4.6,1.1,1.1,1.8,1.4,1.6.7,3-.3,2.9-2-.3-3.1-.7-6.3-1.4-9.4-.4-1.8-1-3.4-.7-5.3.2-1.4-.6-3.2-1.4-4.6-.7-1.4-1-2.5-.2-3.8.7-1.2.6-2.4-.3-3.6-1.4-1.9-2.6-3.8-2.3-6.4,0-.5-.4-1.1-.7-1.6-1.3-1.9-1.7-4-2-6.3-.2-2-.9-4-1.7-5.8-.8-1.8-1.3-3.4.2-5.5.6.3,1.8.5,1.9,1,.4,1.8,2,3.3,1.7,5.3,0,.3,0,.7,0,1,.4,1.8.4,4,1.4,5.4,2.1,2.8,1.9,6.1,2.8,9.1.2.7.4,1.3.9,1.9,1.1,1.3,1.5,2.7.6,4.3-.1.2-.2.6,0,.7,1.2,2.1,1.3,4.5,1.5,6.7.4,3.6,2,6.9,1.7,10.6,0,1,.3,2,.6,3,.4,1.4.5,2.6-.2,4-.5.9-.7,2-1.1,3,1.9.9,3.1.4,4.2-.9.9-1.1,1.9-2.2,2.9-3.3Z"/>
            <path class="cls-6" d="m1452.5,600.6c1.4-.9,2.8-.8,4.3-.5,2.3.5,4.5.7,6.8,1.1.3,0,.6,0,.8,0,2.4,1.2,4.9,1.3,7.5,1.5.6,0,1.2.5,1.7.4,2.6-.2,4.9.3,7.1,1.7.5.3,1.2.3,1.7.3,3.5-.2,6.8.7,10.1,1.7,1.8.6,3.7.7,5.6,1,3,.5,6.1,1.1,9.1,1.2,1.9.1,3.7.6,5.5,1.2,1.8.7,3.7,1.4,5.5,2,.2,0,.5.1.7,0,2.9-1.4,5.7-.2,8.5.5,2.8.6,5.7,1.1,8.6,1.6,0,0,.2,0,.3,0,1.7.3,2.6,1.1,2.3,2.2-.2,1-1,1.4-2.8,1.1-2.2-.3-4.3-.9-6.5-1.2-1-.2-2.1-.2-3.1-.2-3.1.2-5.9-.5-8.7-1.8-1.1-.5-2.3-.7-3.5-.8-3.6-.5-7.4-.5-10.9-1.5-3.3-.9-6.5-1.2-9.8-1.8-3.9-.7-7.7-1.4-11.6-2.1-.2,0-.3-.1-.5-.2-2.6-1.9-5.5-1.6-8.4-1.7-3.5-.2-7-.5-10.3-1.8-2-.8-4.2-.9-6.2-1.4-.5-.1-1-.3-1.5-.5-1.7-.8-3.2-2-5.3-1-.6.3-1.6-.3-2.4-.6-1.5-.4-2.9-1-4.4-1.3-4.4-.8-8.8-.4-13.2-1.8-3-.9-6.2-1-9.3-1.6-3.1-.6-6.3-.7-9.2-2.1-.7-.3-1.5-.4-2.2-.5-3-.3-6-.3-9-.7-2-.3-3.9-1.5-5.9-1.5-4.4,0-8.3-2.9-12.8-2.5-.5,0-1.1-.4-1.7-.5-1.4-.1-2.6-.9-4.2-.3-1.1.4-2.6-.4-3.9-.7-2.1-.4-4.2-.7-6.3-1.2-1.7-.4-3.2-1.1-4.9-1.6-.4-.1-.9-.4-1.2-.3-3.5,1.4-6.3-.8-9.3-1.6-.5-.1-1-.4-1.5-.4-2.9-.3-5.8-.3-8.7-.7-2-.3-4-1.1-6-1.4-2.7-.5-5.4-.8-8.1-1.1-1.2-.1-2.3-.2-3.4-.9-1-.6-2.2-.9-3.4-1.1-1.8-.3-3.6-.5-5.3-.7-1.1-.1-1.8-.6-1.7-1.8,0-1,.8-1.5,1.8-1.5.7,0,1.5-.2,2.1,0,3.3,1.6,7,1.5,10.5,2.2,3.6.7,7.1,1.9,10.6,2.9.5.1,1.3.2,1.7,0,1.4-.7,2.6-.3,3.9.3,1.7.9,3.5,1.1,5.4,1.3,3,.2,5.9.9,8.8,1.4,2.1.4,4.2.9,6.3,1.2,4.2.5,8.5.9,12.7,1.4.7,0,1.4.3,1.9.8,1.2,1.1,2.6,1.1,4.1,1.2,2,0,3.9.4,5.8.6,3.4.4,6.8.8,10.2,1.3,1.8.3,3.6.9,5.4,1.5,1.9.6,3.9.8,5.7,1.3,3.3.9,6.7.7,9.9,1.4,3.5.8,7.3.9,10.6,2.8.5.3,1.2.2,1.8.3,1.6.2,3.2.3,4.8.6,3.1.7,6.2,1.1,9.3,1.8,2.6.6,5.1,1.4,7.5,2.9Z"/>
            <path class="cls-6" d="m1966.2,698.8c-1.5,1.6-3.2,1.4-4.8,1.1-4.6-.9-9.2-2.1-13.7-3.1-.7-.1-1.4-.1-2.1-.1-3.1,0-6.2-.4-9.1-1.3-2-.6-4.1-.7-6.1-.6-1.5,0-2.9-.2-4.2-.9-1.8-1-3.7-1.6-5.9-1.8-1.8-.2-3.6-.9-5.5-1.3-2.6-.5-5.2-.8-7.8-1.3-2.8-.5-5.5-.7-8.3-1.8-2.4-1-5.2-1-7.7-1.6-2.9-.6-5.8-1.5-8.8-1.7-4.6-.4-8.9-2.6-13.6-2.3-1.3,0-2.6-.6-3.9-1-.6-.2-1.1-.6-1.7-.7-2-.2-4-.1-5.9-.6-1.8-.4-3.3-1.5-5.4-1.2-1.4.2-3-.5-4.5-.9-2.6-.7-5.2-1.6-8-1.6-.6,0-1.2-.2-1.7-.4-2.1-.8-4.3-1.1-6.6-.9-.7,0-1.5,0-2-.3-2.6-1.8-5.9-1.7-8.8-2.8-.9-.3-2.2-.4-3,0-1.5.6-2.7.3-3.9-.4-1.6-.9-3.3-1.3-5.2-1.2-2.4.2-4.8,0-7-1.3-.9-.5-2.2-.4-3.2-.8-1.1-.3-2.3-.7-3.3-1.3-.5-.3-.6-1.3-.9-1.9.6-.2,1.3-.8,1.8-.6,2.5,1,5.4,0,7.8,1.6,0,0,.1.1.2.1,3.3.5,6.6,1,9.9,1.5.5,0,1.1-.1,1.5,0,2.4,1.1,4.9,1.3,7.5,1.3,1,0,2.1.7,3.1,1.1.9.3,1.8.9,2.6.8,3.6-.3,6.9,1.1,10.3,1.5,3.9.5,7.3,2.4,11.2,2.6,1,0,1.9.7,2.9,1.1.9.3,1.8.9,2.6.8,4.2-.4,8.1,1,12.1,2,1.4.4,2.9.6,4.3.6,2.8,0,5.5,0,8.1,1.2.4.2.9.2,1.3.2,2.8-.3,5.4.8,8,1.5,2.2.6,4.3,1.3,6.5,1.2.6,0,1.2,0,1.8.3,1.9.7,3.8.8,5.8,1.1,3.2.4,6.4,1.2,9.5,2.1,2.2.6,4.3,1,6.5,1.3,3.4.4,6.7,1.1,10,2.1,3.2,1,6.3,2.1,9.7,1.8.9,0,1.8.5,2.7.6,2.1.3,4.3.3,6.4.7,2,.4,4,1,5.9,1.6,2.8.9,5.6,1.6,8.5,1.6,1.6,0,3,.5,4,2.1Z"/>
            <path class="cls-6" d="m1702.2,648.5c-3.8,1.1-7.4,1-11.2-.6-3.7-1.5-7.7-2.7-12-2.4-1.1,0-2.2-.3-3.3-.5-3.4-.6-6.7-1.8-10.2-2.3-4.3-.6-8.4-2.1-12.6-3.3-1.5-.4-2.9-1.1-4.7-.6-1.6.4-3.4,0-5.1-.2-.7,0-1.4-.3-2-.3-1.8,0-3.4-.6-5-.9-4.3-.8-8.3-3.3-13-2.5-.8.1-1.9-.3-2.7-.7-1.6-.8-3.3-1.3-5.2-1.3-1.6,0-3.2-.4-4.8-.6-1.6-.2-3.2-.6-4.8-.6-1.6,0-3.1-.3-4.4-1.3-1.6-1.2-3.2-1.6-5.3-1-1.3.4-2.9-.6-4.4-.9-1.2-.3-2.5-.7-3.7-.8-2-.1-4,0-5.8-1-.5-.3-1.2-.3-1.8-.3-2.1,0-4-.7-6-1.4-.6-.2-1.3-.6-1.9-.6-5.6,0-10.8-1.9-16.1-3-.5-.1-1.1-.5-1.5-.3-3.5,1.4-6.4-1-9.7-1.4-.5,0-1.1-.3-1.4-.7-.4-.6-.7-1.3-.8-2,0-.2,1-.7,1.5-.6,1.5.2,3,.5,4.5.8,1.3.2,2.7.3,4.1.5,1.7.3,3.4.5,5,1.1,1.5.6,2.9,1,4.5.9,1.6-.1,3,.2,4.4,1,1.5.9,3.1,1.4,4.9.6.3-.1.9-.1,1.2,0,1.9.8,4,.9,6,1.1,1.8.2,3.6,1,5.4,1.5.8.2,1.7.3,2.5.4,2.3.3,4.6.6,6.9.9.8.1,1.7.2,2.5.4,1,.2,2.1.3,2.9.8,1.7.9,3.3,1.3,5.2,1.3,1.2,0,2.4.3,3.5.5,3.1.7,6.2,1.5,9.4,1.4.4,0,1,0,1.3.1,2,1.3,4.3,1.1,6.5,1.3,1.4.1,2.7,1,4.1,1.3,2.5.6,4.9,1.3,7.5.7.5-.1,1.1.3,1.6.5,2.6,1.3,5.3,2,8.4,2.1,3.5,0,6.9.9,10.4,1.4.6,0,1.2.5,1.7.5,2.3-.2,4.3.8,6.4,1.5,2.7,1,5.6,1.3,8.5,1.9,2.9.6,5.9.5,8.8,1.7,2.4,1,5.2,1.1,7.7,1.6,3.3.7,6.7,1.3,10,2.1.9.2,2,.7,1.7,2.1Z"/>
            <path class="cls-6" d="m1786.5,665.5c-3.2-1.2-6.8,0-10.1-1.7-1.6-.8-3.7-.6-5.5-.9-3-.6-6.1-1-9.1-1.5-4.6-.8-9.4-1.1-13.4-4.1-.4-.3-1.2-.3-1.7,0-1.5.7-2.8.3-4.2-.2-1-.4-2.1-.7-3.2-.7-2.4,0-4.7-.1-7.1-1.1-2.2-.9-4.9-.8-7.2-1.6-4.6-1.8-9.3-1.3-14-1.3-2.1,0-3.7-.8-5.1-2.1-.7-.6-1.4-1.3-.7-2.2.7-.8,1.6-1.2,2.7-.7,1.7.8,3.5,1.4,5.3,2,.6.2,1.4.2,2,.3,1.5.2,3,.4,4.5.7,1.1.2,2.2.8,3.4.1.4-.2,1.2-.1,1.8,0,1.9.7,3.7,1.2,5.8,1.2,2,0,4.1.5,6.1.5,1.7,0,3.2.3,4.6,1.5,2,1.6,4.5,1.4,6.8,1.9,3.5.8,7.2.3,10.4,2.3.5.3,1.5.6,2,.4,1.6-.7,3,0,4.5.3,1.9.3,3.9,1,5.8,1,1.8,0,3.3.5,4.8,1.5.4.3,1.1.5,1.4.4,2.1-1.1,4.1-.2,6,.2,1.6.3,3.2.6,4.7,1.1.8.2,1.9.4,1.8,1.5-.2,1.1-1.2,1.4-2.2,1.3-.3,0-.7,0-1,0Z"/>
            <path class="cls-6" d="m1966.9,699.4c3.6-1.1,6.9-1.4,10,.1,3.3,1.6,6.9,1.9,10.4,2.4,1.1.1,2.2.4,3.2.6,2.8.5,5.6.9,8.3,1.4,1.1.2,2.1.6,3.1,1.1,2.5,1.1,5.2,2,7.3,3.6,2.9,2.2,6.5,3.1,9.4,5.2,2.4,1.7,4.7,3.5,7,5.2.6.5,1.1,1.2,1.6,1.8-.5,1.2-1.1,1.8-2.2,1-.5-.3-1.1-.6-1.5-.9-1.4-1-2.7-2.2-4.1-3-3.3-2-6.7-3.9-10.2-5.6-2.6-1.3-5.5-2.2-8.2-3.3-.2,0-.5-.1-.7-.3-2.5-2.3-5.5-2.3-8.7-2.4-1.9,0-3.8-1-5.7-1.5-.5-.1-1-.4-1.5-.4-4.4.5-8.3-2-12.5-2.5-.4,0-.8-.2-1.3-.2q-2.2-.2-4-2.5Z"/>
            <path class="cls-6" d="m2054.4,760.5c-.4.6-.8,1.1-1.1,1.7-.3,0-.6,0-.8,0-1.6-.6-2.4-1.9-2.7-3.5-.3-1.2-.3-2.6-.7-3.8-.4-1.1-1-2.2-1.7-3-.9-1-1.7-2-2.1-3.4-.6-2.1-1.5-4.1-2.4-6.1-.3-.7-.9-1.2-1.5-1.7-1.6-1.4-3.2-2.8-4.1-4.9-.2-.5-.6-1.1-1.1-1.4-2.9-1.9-3.9-5.4-6.1-7.9-.6-.7-.6-1.6.2-2.1.5-.3,1.4-.2,2.1-.2.2,0,.4.3.6.5,2.1,2.9,4.7,5.4,6.5,8.6.6,1,1.5,1.9,2.1,2.9.8,1.2,1.4,2.5,2,3.8.3.5.3,1.2.7,1.6,1.2,1.6,2.6,3.1,3.8,4.8.8,1.1,1.8,2.2,2.1,3.5.9,3.7,3.7,6.5,4.3,10.6Z"/>
        </g>
        <g id="xpan.tv-proyectos">
            <path class="cls-6" d="m2351.1,573.4c.9-1,.5-2.7,2.2-3.1.8.5,1.4,1.1,1.2,2.2,0,.5,0,1,.4,1.4.1.1.3.3.3.5,0,1.2.7,2.1,1.2,3.1.1.3.2.7.2,1,0,.6,0,1.2,0,1.8,0,.4,0,.9.3,1.2.4.4.5.9.5,1.5,0,.7,0,1.3.4,1.9.2.3.2.7.2,1.1,0,.8,0,1.5,0,2.3,0,.8.2,1.6.5,2.4.3,1.1.4,2.2.9,3.2.2.3,0,.8,0,1.1,0,.7.2,1.2.4,1.9.5,1.1.5,2.3,0,3.4-.4.7-.5,1.3,0,2,.2.3.2.9.3,1.3,0,.4,0,.9.2,1.1.6.5.6,1.2.6,1.9,0,.2,0,.4,0,.6.5,1.1,1,2.1,1.6,3.1.3.5.5.9.5,1.5,0,.7,0,1.3,0,2,0,.3,0,.8.2,1,.5.7.5,1.5.5,2.3,0,.5,0,1,0,1.5.2,1.4.8,2.7,1.1,4,.3,1.2,1.1,2.3,1,3.7,0,.8,0,1.5,0,2.3,0,.7.2,1.3.5,2,.4,1.2.6,2.4.9,3.6.3.9-.9,1.5-1.8.9-.4-.2-.8-.6-.9-1-.4-1-1-1.7-1.8-2.3-1-.9-2-1.8-2.9-2.9-.5-.6-.7-1.4-1.1-2.1-.5-1.1-1.4-2-2.4-2.5-.8-.4-1.9-.2-2.8,0-.6.1-1.1.8-1.1,1.6,0,.8.1,1.5.5,2.2.5,1.1.5,2.3,0,3.5-.2.4-.4.9-.4,1.4,0,.7-.2,1.2-.5,1.7-.5.8-1,1.6-1.5,2.4-.1.2-.1.5-.1.8,0,.2,0,.5,0,.7-.8.8-.6,1.9-.6,2.8.1,1.4-.6,2.5-1.4,3.5-.4.5-.6,1-.7,1.6-.1.8-.6,1.4-1,2.2-.5,1.2-1.3,2.1-2.2,3.1-.5.5-.6,1.3-1,1.9-.2.4-.5.8-.8,1.1-.3.4-.7.6-1,1-.7.8-1.2,1.7-1.1,2.8.2,1.7-.5,3-1.6,4.1-.1.1-.3.3-.4.4-.1,1-.9,1.7-1.4,2.5-.3.5-.7.9-1,1.4-.1.2-.3.3-.4.4-.3,1.3-1.4,1.9-2.2,2.8-.4.4-.7.9-.9,1.4-.6,1.1-1.5,1.9-2.6,2.6-.2.1-.5.2-.7.3-1.1,1.1-2.3,2.2-3.3,3.4-.4.5-.7,1.2-.9,1.8-.5,1.1-1.2,1.9-2.4,2.3-.3.1-.6.4-.8.6-.7.7-1.4,1.4-2.1,2.1-.6.6-1.1,1.4-2.1,1.5-.1,0-.2.1-.3.2-.7.9-1.8,1.2-2.8,1.7-.9.5-1.6,1-1.5,2.1,0,.2,0,.4-.1.5-.8.8-1.5,1.7-2.4,2.3-1.1.7-2.2,1.2-3.2,1.9-1.2.7-2.1,1.7-3.2,2.6-.8.6-1.7,1.1-2.7,1.3-1,.2-1.9.7-2.7,1.4-.6.6-1.2,1.3-2.1,1.5-.2,0-.4.3-.5.4-.5.5-1,.8-1.8.9-.8.1-1.6.5-2.2,1.1-.9.8-1.9,1.2-2.9,1.7-.2.1-.5.2-.7.4-1.2,1.6-3.1,2.1-4.7,2.9-.1,0-.3.1-.4.1-1.3,0-2.3.8-3.4,1.2-1.2.5-2.2,1.5-3.3,2-.9.4-1.7,1.1-2.7,1.1-.3,0-.6.2-.9.3-.3.1-.6.3-.8.3-.8,0-1.6.1-2.4.6-.8.5-1.9.6-2.9.8-.1,0-.3,0-.3,0-.9.8-1.9.6-3,.6-1.4,0-2.4.6-3.4,1.4-1.1.8-2.2,1.5-3.6,1.5-1,0-2.1-.1-3,.5-.2.1-.4.2-.7.1-.7,0-1.4,0-1.9.6,0,0,0,0,0,0-1.1-.3-1.9.7-2.9.8-.8.2-1.6.6-2.4,1-.2.1-.5.3-.7.3-1.5,0-2.6.8-3.9,1.3-.3.1-.7.2-1,.2-.8,0-1.7,0-2.5,0-.7,0-1.3,0-1.9.4-.4.2-.9.3-1.3.3-1,0-2,.1-3,0-1.4-.2-2.5.5-3.7,1,0,0,0,0,0,0-1.2.2-2.3.9-3.5,1-1.2,0-2.4-.1-3.5.6-.3.2-.7.1-1,.1-.9,0-1.9,0-2.8,0-.7,0-1.5,0-2.1.5-.2.2-.5.1-.8.2-.3,0-.6,0-.8.2-1.8.9-3.5.8-5.3,0-.7-.3-1.4-.3-2.1,0-.6.4-1.2.5-1.9.4-.6,0-1.2,0-1.7.5-.2.2-.6.2-.9.2-.3,0-.6,0-.8.2-.6.6-1.4.5-2.2.5-.8,0-1.6,0-2.4,0-.9,0-1.8,0-2.6.5-.3.2-.8.2-1.2.2-2,0-4,0-6,0-.5,0-1,0-1.4.3-1.1.6-2.2.5-3.3,0-1.2-.5-2.6-.7-3.8.1-.2.1-.4.2-.6.2-.8,0-1.6,0-2.4,0-.7,0-1.4,0-1.9.5-.3.3-.7.3-.9,0-.5-.5-1.1-.5-1.7-.5-2.5,0-5.1,0-7.6,0-.4,0-1,0-1.3.2-.7.4-1.4.5-2.1.5-1,0-2,0-3,0-.9,0-1.6,0-2.5.5-.6.3-1.3.2-2,.2-.7,0-1.3,0-1.9.5-.2.2-.6.1-.9.2-.3,0-.7.1-1,.3-.9.6-1.8.5-2.7,0-.7-.4-1.2-.4-1.9.1-.9.6-1.9,1.1-2.9,1.6-.1,0-.3,0-.4.1-1.2,0-2.1.7-3.1,1.4-1,.7-1.9,1.4-3.2,1.6-.9.1-1.8.6-2.7,1-.6.3-1.2.6-1.8,1,0,0-.1,0-.2,0-2.1.2-3.7,1.5-5.3,2.7-.5.4-1.1.6-1.7.9-.9.4-1.9.7-2.7,1.5-.4.4-.7.8-1.1,1.1-1.1,1-2.6,1.6-3.6,2.8-2.2.9-3.4,3-5.1,4.4-.1,0-.2.2-.2.4-.2,1-.9,1.4-1.7,1.8-.8.4-1.6,1-2,2-.1.4-.4.8-.7,1.1-.8.8-1.6,1.6-2.4,2.4-.5.5-1,.9-1.1,1.7,0,.3-.4.6-.7.9-2.1,2.1-4.2,4.3-6.4,6.4-.9.9-1.3,1.9-1.9,3-.1.2-.2.5-.3.7-.4.4-.5,1-.4,1.5,0,.7-.2,1.2-.7,1.7-1.1,1.1-2.2,2.2-3.3,3.3-.9.9-1.6,1.8-1.7,3.2,0,.2-.2.5-.3.7,0,.2-.3.4-.3.6,0,1.8-1.2,3.2-1.9,4.8-.8,1.8-1.7,3.5-2.5,5.3-.5,1.1-1,1.6-2.1,1.9-.4.1-1.1-.2-1.2-.8,0-1.1-.5-2.2.4-3.2.1-.1.3-.4.3-.6-.3-1.1.5-1.9.9-2.8.7-1.6,1.9-3,2.6-4.7.6-1.4,1.5-2.6,2.7-3.7.8-.7,1.4-1.7,1.4-2.9,0-.3.1-.5.2-.7,0-.1.3-.2.3-.4,0-1.1.7-2,.9-3,.3-1.3.8-2.5,2.2-3.1,1.2-.5,2.1-1.5,2.7-2.7.2-.3.4-.6.6-1,.3-.4.6-.9.8-1.3.2-.3.3-.6.5-.7,1.1-.8,1.6-2.1,2.2-3.3.2-.5.5-.9.9-1.3.5-.6,1.1-1.2,1.7-1.7.2-.2.4-.3.5-.5.6-1.4,2.1-1.8,3.2-2.6.8-.6,1.5-1.3,2.3-2,.5-.5,1-1,1.4-1.5.6-.6,1.1-1.2,1.5-2,.3-.7.9-1.4,1.6-1.6,1.2-.5,2-1.4,2.9-2.2.7-.7,1.6-1.4,1.9-2.6,0-.2.2-.4.4-.4,1-.5,1.8-1.3,3-1.2.8,0,1.3-.2,1.8-.8.6-.7,1.3-1.4,2-2,.6-.6,1.3-1.1,2.1-1.6.8-.5,1.6-.5,2.4-.7.9-.2,1.7-.8,2.5-1.4,1-.7,1.9-1.4,3.2-1.4.2,0,.4,0,.6-.2,1.2-.6,2.5-1.3,3.7-2,.6-.3,1.3-.6,1.8-.9.5-.4,1-.5,1.6-.4.8,0,1.7,0,2.5,0,.7,0,1.4,0,2-.4.3-.2.7-.3,1-.2.7,0,1.3,0,1.8-.6,0,0,.3-.1.4-.1,1,0,1.7-.7,2.6-1,.2,0,.3-.3.5-.3,1.7.2,3.1-1,4.8-.8,1.3.1,2.5,0,3.8,0,1,0,1.9,0,2.8-.5.2-.1.4-.2.7-.1.8,0,1.4-.1,2.1-.5.3-.2.7-.2,1-.2.7,0,1.5,0,2.2,0,.2,0,.3,0,.5,0,1,.4,2,.8,2.9,1.1.4.1.7.2,1.1.3,1.1,0,2.2,0,3.4,0,.8,0,1.5,0,2.2-.5.1-.1.4-.2.5-.2.9,0,1.6-.2,2.4-.6.8-.4,1.8-.3,2.7.2.9.5,1.7.5,2.6,0,.5-.2,1-.3,1.5-.3,2.2,0,4.5,0,6.7,0,.5,0,.9-.2,1.4-.4,1.1-.5,2.2-1.1,3.6-1,2.3,0,4.7,0,7.1,0,.5,0,1,0,1.4-.4.4-.4.8-.3,1.1,0,.4.4.9.4,1.4.4.4,0,.9,0,1.3,0,1.7.2,3.2-.3,4.7-1.1.9-.5,1.7-1.2,2.8-1,1.8-1.1,3.8-.6,5.6-.6,1.4,0,2.5-.3,3.7-.9.6-.3,1.3-.7,1.9-1,.3-.1.6-.2.9-.2.9,0,1.8,0,2.7,0,.7,0,1.5,0,2.1-.5.2-.2.5-.1.8-.2.3,0,.6,0,.8-.2.7-.7,1.6-.6,2.4-.5.9,0,1.8,0,2.7-.5.3-.2.7-.2,1.1-.2.7,0,1.5,0,2.2,0,.8,0,1.5,0,2.2-.5.1-.1.4-.2.5-.2,1.6,0,2.7-.8,3.9-1.6.4-.3,1-.5,1.5-.5,1.3.1,2.3-.6,3.4-1.1,1-.4,1.9-1.4,3.2-1.1,1.1.3,2.2,0,3.3,0,.2,0,.3,0,.5,0,1.2-.8,2.8-.8,3.8-2,.4-.5,1-.6,1.4-.9,1.1-.8,2.3-.6,3.5-.6,1,0,1.7-.7,2.5-1.1,1.2-.6,2.3-1.2,3.3-2,.8-.6,1.5-1.2,2.4-1.6.2,0,.4-.3.6-.3,1.8,0,2.9-1.3,4.4-1.9,1.1-.5,2.2-1.1,3.3-1.6,1-.5,2.1-.8,2.8-1.7.2-.2.4-.4.7-.4.7,0,1.3-.4,1.9-.6.7-.3,1.2-.8,1.8-1.3.8-.8,1.5-1.8,2.6-2.1,1.4-.4,2.5-1.3,3.8-1.8.4-.1.7-.5,1-.8.8-1,1.9-1.4,3-2,.3-.2.6-.4,1-.6.4-.3.9-.5,1.3-.8.3-.2.7-.5,1-.8,1.9-1.9,3.7-3.8,5.6-5.7.6-.6,1.6-.9,2.4-1.4.3-.1.6-.2.8-.4,1-1,2-1.9,2.9-2.9.2-.2.3-.5.5-.8.1-.2.1-.4.3-.6.7-.9,1.4-1.8,2.1-2.8,0-.1.3-.2.3-.4.4-1.7,2-1.9,3.2-2.7,1-.6,2-1.6,2.6-2.6.7-1.2,1.3-2.5,2.3-3.5.7-.7,1.2-1.8,1.3-2.8,0-.2,0-.5.1-.7.8-.7,1.1-1.6,1.7-2.4.2-.3.6-.6,1-.7.9-.4,1.5-1.2,2.5-1.4.2,0,.4-.5.4-.9,0-.4,0-.8-.1-1.3-.2-2,.6-3.6,1.9-5,.9-1,1.6-2.2,1.6-3.7,0-.8.5-1.6.9-2.3.5-1.1,1.1-2,1.2-3.3.2-1.1.8-2.1.6-3.3,0,0,0-.2,0-.2.8-1.3,1.6-2.7,2.4-4,.3-.6.7-1.1,1-1.6,0,0,0-.1,0-.2,0-1.1,0-2.1-.1-3.2,0-.1-.2-.3-.4-.4-1-.5-2.5,0-3.1,1.1-.4.8-.9,1.6-1.3,2.4-.3.8-.7,1.5-1.3,2.1-.8.7-1.6.6-2.5.5-.2,0-.5-.5-.5-.8,0-1.3,0-2.7,0-4,0-.2.2-.5.3-.7.6-1.1,1.1-2.1,1.7-3.2.1-.3,0-.6,0-.9,0-1.5,0-2.9,0-4.4,0-.5.2-.9.4-1.4.3-1.1,1.1-2.1,1-3.3,0-1.4.6-2.6,1.1-3.8.2-.4.3-.8.3-1.2,0-1.3,0-2.5,0-3.8,0-.9.2-1.7.8-2.3.4-.4.7-.9.6-1.5,0-.2,0-.4.1-.6.8-.8.6-1.7.6-2.6,0-.5,0-1,0-1.5,0-.3,0-.7.2-.9.4-.5.6-1.1.5-1.7,0-.1,0-.3,0-.3.8-.7.6-1.7.6-2.6,0-1.4,0-2.9,0-4.3,0-.5.1-.9.4-1.3.6-1,1.2-2,1.1-3.3,0-1,0-1.9,0-2.9-.2-1.3.3-2.4.9-3.5.7-1.2.8-2.3-.2-3.5Z"/>
            <path class="cls-6" d="m2077,802.8c.2,1.4-.5,2.4-1.2,3.3-.6.8-1,1.7-1.5,2.6-.7,1.2-1.1,2.6-2,3.8-.2.3-.2.7-.2,1.1,0,.9.1,1.7-.5,2.4-.2.2-.2.6-.2.9,0,.2,0,.4,0,.6,0,.5-.1,1-.7,1.1-.6.1-.7-.4-.9-.8-.3-.5-.6-.9-.8-1.4-.5-.8-.4-1.4.2-2.1.5-.6.9-1.3,1.3-1.9.2-.3.2-.7.2-1,0-.6,0-1.2,0-1.7-.2-1.3.4-2.4,1-3.4.5-.8.7-1.8,1.6-2.4.1,0,.3-.3.3-.5-.2-.9.4-1.5.8-2.2.4-.8,1.3-1,2-.4.8.5.9,1.3.8,2.1Z"/>
        </g>
        <g id="xpan-proyectos">
            <path class="cls-6" d="m1545.8,554.4c1-1.9,2.2-2.2,4.2-1.9,3.1.4,6.2.3,9.3.3,1.7,0,3.3-.5,5-.5,3.6,0,7.3-.1,10.9,0,4.4.1,8.8.5,13.2.6,1.8,0,3.5-.2,5.3-.4.2,0,.4-.2.6-.2,5.1.9,10.1-.3,15.1-.7,2.4-.2,4.8.6,7.2.9.7,0,1.3.3,2,.3,3.7-.2,7.3-.6,11-.6,4.4.1,8.8.2,13.2,0,4.5-.2,8.9,0,13.4,0,1.7,0,3.3.4,4.9.5,1.3,0,2.8.3,4,0,2.4-.8,4.7-.7,6.8.4,1.8.9,3.3,0,4.9-.3,1.9-.4,3.7-.9,5.6-.1.3.1.7.3,1,.2,4.1-1.6,8.1.7,12.2.1,2.9-.4,6-.6,8.9-.6,1.9,0,3.7.3,5.6.5.9,0,1.8.3,2.7,0,4.8-1.5,9.6-.7,14.4,0,.2,0,.5,0,.7,0,4.5-1.5,9,.6,13.6,0,1.8-.2,3.5-.6,5.3-.6,2.5,0,5.1.2,7.6.3,3.8.1,7.6.2,11.4.3.9,0,1.8-.3,2.6-.3,2.4,0,4.8,0,7.3,0,1.8,0,3.5,0,5.3,0,.7,0,1.3-.3,2-.3,4.2.2,8.3.4,12.5.6.6,0,1.1,0,1.7,0,4.1-.2,8.2-.7,12.3-.6,6.9.3,13.7-.2,20.6,0,6.8.1,13.6.3,20.4,0,5.5-.2,11-.2,16.5.6.4,0,.9-.2,1.3-.2,2.4,0,4.9,0,7.3.1,1.2,0,2.5.4,3.6.1,3.5-.8,7-.8,10.6,0,.5.1,1.1,0,1.7,0,4,.3,7.8-1,11.9-.2,2.5.5,5.3-.4,7.9-.5,1.8,0,3.5.4,5.3.5,1.3.1,2.7.3,4,0,5.8-1,11.5-.9,17.3-.1.5,0,1.1-.2,1.6-.3.7-.1,1.5-.6,1.9-.4,3.8,1.8,7.9-.5,11.8.7,2.2.6,4.8-.2,7.2-.3,1.4,0,2.9-.3,4.3,0,2.2.6,4.3.2,6.6,0,3.9-.3,7.8,0,11.6.2.4,0,.9.2,1.3.2,4.2-.2,8.3-.5,12.5-.6,2.9,0,5.8.3,8.6.4,1,0,2,.3,3,.1,5.8-1.3,11.6-.7,17.3-.4,3.6.2,7,0,10.6,0,4.5-.2,9.1.4,13.6.6,1.6,0,3.3-.3,4.9-.5.3,0,.7-.1,1-.1,6.9.8,13.8-.7,20.6,0,2.9.3,5.7-.2,8.5,0,4.1.2,8.2.6,12.3.6,6.1,0,12.3,0,18.3-.8,4.3-.5,8.4.5,12.6.2,4.2-.3,8.5-.2,12.7,0,3.7.1,7.4.2,11.1,0,2.9-.2,5.9.4,8.8.5,2.4,0,4.9-.2,7.3-.3,1,0,2-.2,3,0,3.1.7,6.2.7,9.2,0,.6-.2,1.4-.2,2,0,4.4,1,8.8.7,13.2,0,3.3-.5,6.7,0,10-.2,1,0,2.1-.4,3.2-.6-.8-4.6-5.7-4.4-7.6-7.4,1.4-3.1,1.5-3.4,4.3-2.3,4.7,1.9,9.5,3,14.5,3.2,3.5,0,6.7,1.3,10,2.4.3.1.6.3,1,.3,5.5-.4,10.6,2.3,16,2.5,2.9.1,5.8,1.2,8.7,1.8,1.7.3,3.5.8,5.2.9,1.6.1,2.8.4,3.4,2.1-.5,1.7-1.8,1.4-3,1.4-5.4,0-10.5,1.4-15.5,3.1-2.2.7-4.6.8-6.9,1.2-5.7,1-11.3,2.1-17,3.1-.7.1-1.3.4-1.9.4-2.9-.2-5.5.2-7.9,2.1-.5.4-1.4.3-2.1.2-2.2-.4-4.2-.4-6,1.1-.7.6-1.6.9-2.4,1.2-1.3.5-2.4.4-3.4-1.3.7-.6,1.5-1.4,2.3-2,2.2-1.7,4.5-3.3,6.6-5,.9-.7,1.5-1.9,2.6-3.3-3.2-.7-5.7-1.5-8.5-1.2-1.9.2-3.9,0-5.9,0-.2,0-.4-.2-.6-.2-4.3.1-8.5.3-12.8.4-2.3,0-4.7,0-7,0-1.2,0-2.5-.5-3.6-.3-4.8.9-9.5.9-14.3,0-.5-.1-1.1-.2-1.7,0-3.9,1-7.7,0-11.6,0-1,0-2,.3-3,.4-.9,0-2,.4-2.6,0-2.1-1.5-4.4-.8-6.4-.3-3.6,1-7-.4-10.5-.4-1.4,0-2.8,0-4.2,0-1.1,0-2.2.2-3.3.2-4.2,0-8.4,0-12.6,0-3.1,0-6.2.6-9.3.6-3.5,0-7.1-.5-10.6-.6-1.3,0-2.6.4-4,.4-4.1,0-8.1.4-12.2,0-3-.3-5.9-.7-8.9,0-.4.1-.9.2-1.3.2-4.5-.2-9-.4-13.5-.6-3,0-6-.5-8.9.7-1.3.5-2.5.6-3.9.1-2.5-.8-5.1-.8-7.8-.4-4.2.6-8.5.3-12.7.2-2.9,0-5.8-.6-8.6-.6-4.2,0-8.3.3-12.5.5-.9,0-1.8.2-2.7,0-4.2-.9-8.4-.8-12.6,0-1.5.3-3.2.3-4.7,0-4.1-.9-8.2-.8-12.2,0-1.2.2-2.5.2-3.7,0-4.4-.9-8.8-.5-13.3-.3-4.5.3-9-.5-13.6-.8-.5,0-1.1,0-1.6.2-5.3,1.2-10.5,1.1-15.9.4-3.9-.5-8,.1-12,.2-.4,0-.9.3-1.3.2-4.2-1.6-8.4.5-12.6,0-2.5-.3-5.1-.4-7.6-.6-.7,0-1.4-.2-2,0-4,.9-7.9,0-11.9,0-4,0-8,0-12.1,0-.9,0-1.8,0-2.7.2-1.6.5-3,.5-4.5-.1-2-.8-4.1-.4-6.2,0-1.8.4-3.7.2-5.6.2-1.5,0-3.1,0-4.6,0-.7,0-1.4.4-2,.3-4.3-1-8.8.1-13.1-1-.7-.2-1.5-.1-2.2,0-3.7,1-7.3,1.1-11.2.5-3.5-.5-7.1.1-10.6.2-.3,0-.7.2-1,.2-3.8-.2-7.6-.8-11.3-.4-3.7.4-7.3.5-10.9.1-2-.2-4.1-.3-6.2-.2-2.8,0-5.7.5-8.5.4-4.8-.2-9.5.3-14.2,0-1.6-.1-3,0-4.5,0-2.6.2-5.3-.2-8-.3-.8,0-1.6-.3-2.3-.2-3.5.8-7,.1-10.6,0-12.7-.2-25.5-.4-38.2,0-4.7.1-9.4-.1-14.1-.1-.8,0-1.5.3-2.3.3-1.1,0-2.3.4-3.3.1-3.3-.8-6.6-.7-9.9,0-1.1.2-2.2.2-3.3,0-7.6-1.1-15.1-.4-22.7-.4-2.6,0-5.3-.2-7.9-.1-1.4,0-2.9.3-4.3.5-.8,0-1.6.3-2.3.2-6.4-1.3-12.9-.3-19.4-.7-1.5,0-3.1-.5-4.6-.5-2.1,0-4.2.5-6.2.7-1.3.1-2.6.1-3.9.1-2.1,0-4.3-.4-6.3,0-2.5.4-4.8.8-7.2,0-.6-.2-1.3,0-2,0-1.5,0-1.5.1-3.2-1.4Z"/>
            <path class="cls-6" d="m1391.7,554.4c-.5.3-1.2,1-1.6.9-3.4-.7-6.8,2.3-10.2,0-.4-.3-1.2-.4-1.6-.2-1.9,1.3-3.9.7-6,.6-4.8-.2-9.5.3-14.3.5-1.3,0-2.7,0-4-.2-4.1-.7-8.2-1.8-12.5-.5-2.3.7-4.8,0-7.2,0-4.7,0-9.4,0-14,0-1.1,0-2.2.3-3.3.5-2.3.4-4.4.2-6.1-1.8,1.2-1.8,2.8-2.2,4.7-2.1,4.7.2,9.3.5,14,.6,2.3,0,4.6-.3,6.9-.4,1.1,0,2.2-.3,3.3-.2,5.4.6,10.8-.2,16.2,0,2.6,0,5.2-.4,7.8.6.5.2,1.1,0,1.7,0,2.8-.2,5.6-.9,8.3-.5,4.1.6,8.1,0,12.1-.5,1.8-.2,4.3.9,5.8,2.7Z"/>
            <path class="cls-6" d="m1467.6,554.5c.7-1.9,2-2.7,3.2-2.2,2.3.8,4.4-.1,6.5-.1,2.8,0,5.6,0,8.4,0,4.4,0,8.8,0,13.2,0,1.9,0,3.8-.2,5.5.9.5.3,1.5.2,2.2,0,2.6-.5,5.1-1.5,7.7-1.5,3.3,0,6.6.5,9.9.8.7,0,1.3.4,1.9.3,4.3-.2,8.6-.4,13-.6,1.6,0,2.8.5,3.6,2-.7,2-2.2,2.3-4,2.2-3.7-.2-7.3-.5-11-.6-4.6-.2-9.1-.3-13.7-.4-.5,0-1.1,0-1.6.3-2,.8-3.9.9-6.1-.1-1.4-.7-3.5-.2-5.2-.2-1.1,0-2.2.5-3.3.4-4.4-.2-8.8-.5-13.1-.6-1.4,0-2.9.3-4.3.4-3.6.1-7.1.2-10.7.2-.7,0-1.4-.6-2.3-1Z"/>
            <path class="cls-6" d="m1393.9,554.8c.6-1.9,1.6-2.6,3.1-2.6,1.1,0,2.3-.1,3.3,0,4.1.6,8.1,0,12.1-.6,1.6-.2,3.3.5,4.9.7,1.2.1,2.4,0,3.5,0,.7,0,1.3-.2,2-.2,5,.5,10-.9,14.9.5,1.2.3,2.6-.6,3.9-.5,3.8.4,7.5,0,11.2,0,.4,0,1,0,1.3.1.5.3,1.1.8,1.3,1.3.1.3-.4,1-.7,1.3-1.8,1.4-3.8,1.7-6,1.3-4.2-.8-8.4-.9-12.6,0-.9.2-1.8.2-2.7.1-2.8-.2-5.7-.9-8.5-.6-4.1.5-8.1.4-12.1-.7-1.2-.3-2.6.1-4,.3-.5,0-1.1.4-1.6.3-3.5-.7-7.1.5-10.6,0-1-.1-1.9-.6-3-.9Z"/>
            <path class="cls-6" d="m1465,554.7c-2.2.3-4,.8-5.6-.8,2.2-1.6,3.6-1.5,5.6.8Z"/>
        </g>
        <g id="xpan.arquitectura-proyectos">
            <path class="cls-6" d="m2353.3,525.1c.8-.7.7-1.7.5-2.7-.2-.6-.6-1.2-.9-1.8-.2-.4-.4-.8-.4-1.3,0-1.3,0-2.7,0-4,.1-1.2-.5-2.2-1-3.1-.3-.5-.5-.9-.5-1.5,0-1.7,0-3.3,0-5,0-.5-.3-.9-.4-1.4-.2-1.3-1.1-2.3-1-3.7,0-.6,0-1.2,0-1.8,0-.6,0-1.1-.5-1.6-.1-.1-.2-.3-.2-.4.1-1-.6-1.7-1.1-2.5-.2-.4-.4-.9-.4-1.4,0-1.4,0-2.8,0-4.2,0-.4-.2-.9-.4-1.3-.4-1.2-1.2-2.2-1-3.6,0-.5,0-1-.4-1.4-.1-.2-.3-.4-.3-.6,0-.6-.2-1.2-.6-1.7-.2-.2-.2-.7-.2-1,0-1.1-.1-2.2,0-3.3.2-1.4-.3-2.5-1-3.6-.9-1.4-1.4-2.8-1.2-4.4,0-.6,0-1.3,0-2,0-.7.3-.9,1-.9,1.6,0,2.5.7,3.2,2.3.3.7.7,1.3,1.1,2,0,.2.2.3.3.5.6,1.4,1.2,1.7,2.7,1.6.7,0,.9-.3.9-.9,0-.8.1-1.5.1-2.3,0-.3,0-.6-.2-.9-.6-1.1-1.3-2.1-2-3.2-.5-.7-.9-1.5-1.3-2.3,0,0,0,0,0-.1,0-1.2-.5-2.3-.7-3.4-.2-1.1-.7-2-1.1-3-.5-1.1-1.1-2.1-1.2-3.4,0-.8-.6-1.8-1.3-2.5-.9-.9-1.3-2-2-3-.2-.2-.1-.6-.1-.9,0-.8,0-1.7.1-2.5,0-.7-.1-.8-.8-1.2-1.1-.6-2.1-1.3-3.1-1.9-.2-.1-.3-.4-.4-.6,0,0,0-.2,0-.2-.4-.5-.9-1.1-1.2-1.6-.3-.6-.2-1.3-.5-2-.5-1-1.3-1.8-2-2.6-.5-.6-.8-1.5-1.2-2.2-.6-1.2-1.5-2-2.6-2.7-.6-.4-1.3-.6-2-.9-.3-.1-.5-.4-.7-.6-.9-1.6-1.9-3.1-3-4.4-.4-.4-.5-1.1-.9-1.5-.9-.8-1.7-1.8-2.6-2.6-.6-.5-1.4-.8-2.1-1.2-.5-.3-.9-.5-1.3-.9-1.8-1.8-3.6-3.6-5.4-5.4-.4-.4-.9-.6-1.3-.9-.2-.1-.4-.2-.5-.3-.8-.9-1.9-1.3-3-1.8-.3-.1-.5-.3-.7-.5-.8-1.1-2-1.6-3.2-2.2-.7-.4-1.4-.7-2.2-.9-1.1-.3-1.9-1.2-2.6-2-1-1.1-2.2-1.8-3.7-2-.2,0-.5-.1-.6-.3-1.3-1.3-3-1.8-4.7-2.6-.4-.2-.8-.4-1.2-.6-1.2-.7-2.3-1.3-3.4-2,0,0-.2-.1-.3-.1-1.5,0-2.6-.9-3.7-1.7-1.4-.9-2.7-1.9-4.3-2.6-1.1-.5-2.2-.6-3.3-.6-.6,0-1.2,0-1.6-.5-1.3-.1-1.9-1.2-2.8-1.8-.3-.2-.6-.3-.9-.4-.2,0-.4,0-.6-.1-1.5-1-3.1-.7-4.7-.6-.8,0-1.6,0-2.4-.5-.9-.6-1.9-1-3-1.4-.4-.2-.8-.2-1.2-.1-.9,0-1.6-.3-2.2-.8-.4-.3-.9-.4-1.3-.7-.7-.5-1.4-.7-2.3-.7,0,0-.2,0-.2,0-1.4-.9-2.9-.6-4.4-.6-.7,0-1.3-.1-2-.4-.5-.2-1-.2-1.6-.3-1,0-2.2.2-3.1-.6-1.6-.3-3.2-1.1-4.9-.8-1.4.3-2.5-.3-3.7-.9-.6-.3-1.2-.7-1.8-1-.3-.1-.7-.2-1.1-.2-1.5,0-2.9,0-4.4,0-.7,0-1.3,0-1.9-.4-.1,0-.3-.2-.4-.2-1.8-.2-3.2-1.3-4.8-2-.3-.1-.7-.2-1-.2-.9,0-1.8,0-2.8,0-.7,0-1.4,0-1.9.5-.3.3-.7.2-.9,0-.4-.4-.8-.5-1.4-.5-2.3,0-4.6,0-6.9,0-1.4,0-2.5-.5-3.7-1-.5-.2-1-.4-1.5-.4-2.2,0-4.3,0-6.5,0-.7,0-1.3,0-1.9-.4-.7-.4-1.5-.4-2.2,0-.8.5-1.6.4-2.5.4-.2,0-.4,0-.5-.1-.6-.6-1.3-.7-2-.6-.2,0-.4,0-.6-.1-1-.7-2.2-.6-3.3-.6-.6,0-1.2,0-1.8,0-.7,0-1.5,0-2.1.5-.2.2-.5.1-.8.2-.3,0-.6,0-.8.1-1.8.9-3.5.8-5.3,0-.2,0-.5-.2-.8-.2-.8,0-1.4-.2-2.1-.5-.3-.2-.8-.2-1.2-.2-1.5,0-3,0-4.5,0-.3,0-.6,0-.8,0-1.6-.4-3.2-.6-4.8-1.2-.8-.3-1.6-.7-2.4-1-1-.3-2-.4-2.9-.8-1.3-.6-2.6-.6-3.9-.5-1.3.1-2.5-.4-3.6-.9-1.2-.6-2.4-1.2-3.5-1.8-.8-.4-1.6-.8-2.5-.9-.8-.1-1.7-.7-2.4-1.3-.9-.8-1.9-1.4-3.2-1.4-.4,0-.8-.2-1.2-.3-1.9-.6-3-2.3-4.4-3.6-.6-.6-1.3-1-2.2-1-.4,0-.8-.2-1.2-.4-.2,0-.4-.3-.6-.3-.8-.2-1.2-.8-1.6-1.5-.5-.9-1.2-1.6-1.9-2.4-.4-.5-.9-.8-1.4-1.2-.2-.2-.4-.4-.7-.5-1.2-.4-1.9-1.2-2.4-2.3,0-.2-.1-.4-.3-.5-1.8-1.6-3.1-3.7-5.3-4.9-.5-.3-1-.6-1.6-.9-.1,0-.3-.2-.3-.3-.4-1.2-1.4-1.9-2.3-2.7-1-.9-1.5-2.1-2.1-3.2-.2-.4-.6-.8-.9-1.2-.5-.6-1.2-1-1.3-1.8,0-.2-.3-.4-.5-.6-.3-.4-.6-.9-.9-1.3-.7-1-1.5-2-2.7-2.6-.7-.3-1.1-.7-1.4-1.4-.3-.8-.9-1.4-.8-2.3,0-.1-.2-.3-.3-.5-.1-.4-.3-.8-.4-1.2,0,0,0-.2,0-.2-.9-1.7-.9-3.8-2.6-5.1-1.2-.9-1.6-2.3-2.4-3.5-.5-.9-.8-1.9-1.7-2.7-.5-.5-.8-1.3-1.1-2-.3-.7-1-1.4-.7-2.3,0-.1,0-.3-.2-.4-1-.9-.6-2-.6-3,0-.9.7-1.1,1.6-.8.8.2,1.2.7,1.5,1.4.8,1.8,1.7,3.6,2.5,5.4.6,1.2,1.2,2.3,1.8,3.4,0,0,.1.1.1.2-.2,1.2.6,2.1.8,3.2.2.8.7,1.6,1.3,2.2,1.1,1.3,2.4,2.5,3.6,3.7.3.3.7.8.6,1.2-.2,1.3.7,2.2,1.1,3.3.5,1.5,1.7,2.4,2.8,3.5,1.7,1.7,3.5,3.5,5.2,5.2.3.3.5.8.8,1.2.2.3.4.6.6.8.7.8,1.5,1.5,2.3,2.3.6.6,1,1.2,1.4,1.9.4.7,1.2,1.3,2,1.8.7.4,1.2.7,1.5,1.5,0,.3.3.6.5.9,1.1,1.2,2.3,2.3,3.4,3.4.2.2.3.4.5.4.9.2,1.5.9,2.1,1.5.3.3.8.5,1.1.8.5.4,1.1.8,1.6,1.3,1.1,1.2,2.3,1.9,3.9,2.3.5.1,1,.4,1.3.8.8.9,1.9,1.3,2.9,1.9.7.4,1.5.9,2.4.9.6,0,1.2.6,1.8.8,1.1.5,2.2.9,3.4,1.2.9.2,1.7.6,2.4,1.2,1,.8,2,1.4,3.3,1.6.6,0,1.2.5,1.8.8.6.3,1.2.7,1.7,1.1.5.3.9.3,1.4,0,1-.7,2.1-.8,3.1,0,.2.1.4.2.6.2.5,0,.9.2,1.4.4.4.2.9.2,1.3.3,1,0,2,0,2.9.5.3.2.7.2,1.1.2,1.1,0,2.2,0,3.3,0,.9,0,1.7,0,2.4.5.3.2.7.2,1,.2,2.8,0,5.5,0,8.3,0,.4,0,.8-.2,1.2-.4.5-.3.8-.4,1.2,0,.4.4.9.4,1.4.4,1,0,1.9,0,2.9,0,.2,0,.4,0,.5.2,1.3.9,2.7.7,4,.1,1-.4,2-.4,3,0,.5.2,1.1.4,1.6.4,2,0,3.9,0,5.9,0,.6,0,1.2.3,1.8.4.4.1.9.3,1.3.3,1.3,0,2.5,0,3.8,0,.4,0,.9.2,1.3.4.3,0,.6.2,1,.3.3,0,.7,0,1,.3.5.4,1,.4,1.6.4.7,0,1.4,0,2,.5.7.4,1.4.3,2.2,0,1.7-.7,3.4-.8,5.1,0,.2.1.4.2.6.2.5,0,.9.2,1.4.5.3.2.7.2,1.1.3,1,0,1.9,0,2.9,0,.8,0,1.5,0,2.2.4.5.3,1.1.2,1.7.2.9,0,1.9-.2,2.7.6,0,0,.2.1.3,0,1.2-.2,2.1.7,3.1,1.1.4.2.8.3,1.2.3,1,0,2.1,0,3.1,0,1,0,1.9,0,2.8.5.2.2.6.1.9.2.7,0,1.4,0,2.1,0,1.5-.2,2.7.5,3.9,1.1.2,0,.4.3.6.3,1.4,0,2.6.6,3.8,1.3.2.1.5,0,.7.1.4.1.7.3,1,.4,1,.3,2.1.8,3.2,1,.6.1,1.2.2,1.8.4.6.2,1.3.3,1.9.3,1.7-.1,3.1.5,4.4,1.6.9.7,1.9,1.3,3.1,1.2.5,0,1,0,1.5,0,.3,0,.7.2,1,.3.4.1.8.3,1.3.4.3.1.6.2,1,.4.3.1.6.3,1,.3.4,0,.8.2,1.1.4.3.2.7.2,1.1.3.5.1,1.1.2,1.6.4.2,0,.4.2.5.2,1.9,0,3.2,1.3,4.7,2.1.8.4,1.5,1,2.4,1.4.9.4,1.7.8,2.7.9.8,0,1.5.5,2.2.9,1.1.5,2,1.2,2.9,2,.6.6,1.4.8,2.2,1.2.2.1.6.2.7.4.6.8,1.5,1.3,2.4,1.5,1.1.3,2,.9,3,1.5.6.4,1.2.7,1.7,1.3.9,1,2.1,1.5,3.4,1.8.9.2,1.6.8,2.4,1.3.5.3.9.9,1.3,1.3.4.4.9.7,1.4,1,.2.1.5.2.6.4.6.9,1.6,1.2,2.5,1.5,1.3.5,1.9,1.6,2.9,2.4.2.1.2.5.2.7,0,1,.5,1.5,1.3,1.9.3.2.6.3.9.5,1.1.6,2.2,1.2,3.2,1.9.2.1.4.4.6.5.9.9,1.8,1.9,2.8,2.8.3.3.6.5.9.6,1.1.4,1.8,1.2,2.2,2.2.8,2.2,2.7,3.6,4.3,5.3,1.2.3,2,1.3,2.8,2.1.2.2.4.3.4.5.2,1,1,1.5,1.6,2.2.6.6,1.2,1.2,1.5,2.1.4.9,1.1,1.7,1.7,2.4.8.9,1.2,2.1,2,3,.7.8,1.3,1.9,1,3.2-.3,1.3.3,2.4,1.3,3.3,1.1.9,1.7,2.1,2.2,3.4,0,.1.1.3.2.4,1.5,1.1,2,2.9,3,4.4,0,0,.2.2.2.3-.1,1.1.7,1.7,1.2,2.6.6,1,1.2,2,1,3.3-.1.8-.2,1.7.5,2.4,0,0,0,.1,0,.2,0,1.5.9,2.6,1.6,3.7.4.5.6,1.1.5,1.7,0,.4,0,.8.3,1.2.7,1.4.7,2.7,0,4-.5.9-.3,2.5.4,3.1.3.2.7.4,1.1.5.5,0,1,0,1.5,0,.2,0,.5,0,.7-.1.9-.8,1.9-1.5,2.4-2.6.5-1.1,1-2.2,2-3,.9-.7,1.7-1.5,2.4-2.3.5-.6.9-1.2,1.3-1.9.3-.6.7-1.1,1.4-1.2.4,0,1,0,1.2.2.2.4.3,1.1.1,1.4-.5.8-.7,1.5-.6,2.4,0,.2,0,.5-.2.6-.6.6-.5,1.2-.5,1.9,0,.8,0,1.6,0,2.4,0,.6,0,1.1-.5,1.6-.2.2-.2.5-.2.7,0,.5,0,1-.5,1.4,0,0-.1.1-.1.2.2,1.5-1,2.6-.8,4.1,0,.6,0,1.2,0,1.7,0,.3,0,.6-.1.8-.9,1.1-.6,2.4-.6,3.7,0,.5-.1.9-.4,1.4-.4.7-.7,1.4-1,2.1,0,.2-.2.4-.3.6-.1.3-.3.6-.3.8,0,.8,0,1.6-.6,2.2-.2.1-.1.6-.1.9,0,.6,0,1.1-.4,1.5-.4.6-.4,1.1,0,1.7.7,1.3.7,2.6,0,3.8-.4.7-.3,1.4-.3,2.1,0,.6,0,1.2-.5,1.7-.2.2-.2.7-.3,1.1,0,.4,0,.9-.2,1.2-.4.6-.5,1.3-.4,2,0,.8,0,1.7,0,2.5,0,.3,0,.7-.2,1-.5.7-.5,1.4-.5,2.2,0,.3-.1.8-.4,1-.4.4-.5.8-.4,1.4,0,0,0,0,0,.1.3,1.6-.2,2.9-1,4.2-.2.3-.4.6-.4.9,0,.5-.2.9-.5,1.4-.2.4-.2.9-.3,1.3,0,.4,0,.9-.3,1.2-.3.4-.6.9-1.2.8-.6-.1-1.1-.6-1.3-1.2-.2-.6-.4-1.2-.6-1.9Z"/>
            <path class="cls-6" d="m2073.5,290.2c.3-1.7-.3-3-1.5-4.2-.6-.6-.6-1.3-.2-2,.3-.6.7-1.2,1-1.8.1-.2.4-.5.6-.4.2,0,.5.3.5.5.2,1.2.5,2.3.9,3.4,0,.2,0,.5,0,.7-.2.7,0,1.2.5,1.9.7.9,1.1,2.1,1.6,3.1.5.9.9,1.9,1.6,2.8.9,1.2,1.5,2.6,1.2,4.3-.2.9-1,1.6-1.9,1.5-.2,0-.5-.1-.6-.3-.3-.8-1.1-1.3-1-2.3,0-.3-.2-.8-.4-1-.8-.7-1-1.7-1.6-2.5-.7-1.1-1.1-2.3-.8-3.6Z"/>
        </g>
        <g id="xpan-xpan.arquitectura">
            <path class="cls-6" d="m2053.3,339.1c-1.3-2-1-3.7-.4-5.4,1-2.6,2-5.1,2-8,0-1.6.9-3.3,1.8-4.7.6-1,1-1.9.9-3-.2-1.6.4-3,1.4-4.3,1.3-1.7,1.8-3.4,1-5.6-.4-1,0-2.4.3-3.6.3-1.1.9-2.2,1.3-3.3.2-.4.4-1,.2-1.3-1.1-2.9.7-5.3,1-8,.3-2.6.7-5.1,1.1-7.7.2-1-.2-1.8-1.2-2.2-1-.3-2.1-.4-2.7.6-.9,1.5-1.7,3.1-2.4,4.8-.4.8-.4,1.8-.9,2.5-.3.5-1.2,1-1.7.9-.5,0-1-.8-1.4-1.4-.2-.2,0-.7,0-1.1,0-3,.6-5.9,1.8-8.6.5-1.2.7-2.6,1-3.9.5-2.2,1.1-4.3,1.5-6.5.3-1.4.5-2.8.5-4.3,0-1.5.3-2.8,1.1-4.1.6-1,1.1-2.2,1-3.3-.3-3.2,1.4-5.9,1.7-8.9.5-3.5,1.1-7,2.4-10.4.7-1.8.1-4.1.1-6.2,0-2.1.5-4.1,2-5.6,2.8.7,3.3,1.5,3,4.1,0,.6,0,1.2.1,1.8.1.7.4,1.4.4,2.1-.2,2.8.7,5.5,1.4,8.2.6,2.3,1,4.7,1.4,7.1.3,1.3.6,2.6.8,3.9.2,1.3.6,2.7.6,4-.2,3.7.6,7.1,1.8,10.5.9,2.5,1,5.3,1.7,7.8,1.1,3.7,0,7.8,2,11.3.5.9.5,2.3-.4,3.5-1.8-1.1-3.4-2.1-3.7-4.3-.1-.8-.5-1.6-.8-2.3-.8-1.3-1.4-1.3-2.5.4-1.2-1.3-2.3-2.6-3.4-3.9-1-1.2-2.2-1.5-3.9-.6.3.9.6,1.8,1,2.7.8,1.6.7,3.1.3,4.7-.3.9-.5,1.9-.5,2.9,0,1.9-.1,3.7-.6,5.6-.7,2.8-.9,5.8-1.4,8.7-.1.8-.5,1.5-.7,2.3-.3,1.1-.7,2.1-.2,3.3.3.7,0,2-.5,2.8-1.3,2.3-2.3,4.7-2.1,7.4,0,.5.1,1.3-.2,1.6-2,2.1-1.9,5-2.6,7.5-.3,1-.3,2.1-.7,3.1-.6,1.8-1.2,3.6-1.9,5.3-.2.4-1,.5-1.7.7Z"/>
            <path class="cls-6" d="m1446.2,510.9c-2.3,1.6-4.4,3-7.3,2.9-1,0-2,.9-3,1.1-3.6.6-7.3,1-10.9,1.6-1.9.3-3.8,1.1-5.7,1.5-3.9.8-7.8,2.4-11.9,2-.4,0-.9,0-1.4,0-4.5,1.2-9,2.5-13.4,3.7-.5.1-1,.3-1.6.4-4.2.2-8.4.7-12.5,2-.8.3-1.8.1-2.7,0-2-.1-4,0-5.6,1.4-.4.3-1,.6-1.5.6-2.6.3-5.2.4-7.8.7-2.4.3-4.8.5-7.2,1-3.4.7-6.8,1.7-10.2,2.5-.7.2-1.5.2-2.2.1-2.4-.2-4.6.5-6.8,1.4-.7.3-1.8.8-2.3.5-1.9-1.1-3.7-.4-5.2.3-3.3,1.6-6.8,1.8-10.2,2.6-2.9.7-5.7,1.4-8.6,2-.9.2-1.8.1-2.7,0-.9,0-1.6-.7-1.4-1.6.1-.6.6-1.4,1.2-1.6,1.3-.4,2.6-.8,4-.8,2.1,0,4.1-.5,5.9-1.6.4-.3,1-.5,1.5-.5,4.9,0,9.6-1.1,14.2-2.6,1.8-.6,3.7-1,5.6-.8,4.1.4,7.6-1.3,11.3-2.4.8-.2,2-.7,2.6-.4,1.6.9,3.2.3,4.4-.3,2.5-1.2,5.3-1,7.8-1.9,1.4-.5,2.9-.8,4.4-1.2.5-.1,1.2-.3,1.6-.1,1.4.9,2.6,0,3.9-.2.9-.1,1.7-.6,2.6-.5,2.2.1,4.3-.6,6.3-1.4.9-.4,1.9-.5,2.8-.7,1.8-.4,3.7-.5,5.5-1,3.5-1.1,7-2,10.6-1.7,2.6.2,4.7-1,7-1.5,2.2-.5,4.4-.9,6.6-1.3,1.4-.3,2.8-.5,4.2-.8,1.2-.2,2.5-.4,3.7-.6,0,0,.2,0,.3,0,3.6-1.3,7.4-1.2,11.1-1.9.9-.2,1.8-.2,2.7-.2,1.9,0,3.5-.6,5.1-1.4.9-.5,2.3-.9,3-.5,1.3.7,2.2.2,3.3-.4,2.1-1.2,4.3-1.9,6.7-1.9.4,0,.9-.1,1.3-.3,4.8-2.2,9.9-2.5,15.1-2.5.7,0,1.6,0,2.1-.3,3.2-2,7-2.3,10.6-3.1,3.3-.7,6.7-1,10.1-1.5.4,0,.8,0,1.1-.1,3.7-1.7,8-1.1,11.8-2.5.9-.3,2,0,2.9-.2.9-.1,1.8-.3,2.6-.7,3-1.5,6.2-2.1,9.6-2.1,2.7,0,5.5-.7,8.2-1.1.8-.1,1.6-.3,2.4-.2.5,0,1.1.6,1.2,1.1.1.5-.3,1.2-.7,1.5-.5.4-1.3.6-2,.7-3.7.8-7.4,1.6-11.1,2.3-1.6.3-3.3.6-4.8.3-1.2-.3-2.2-.1-3.3.2-3.7,1.2-7.2,3-11.4,2.8-2.5-.1-5,1-7.6,1.3-5.3.6-10.3,3.1-15.8,2.8-1,0-2.1.5-3,1-1.4.7-2.8.9-4.4,1.1-3.4.4-6.8.3-10.1,1.7-1.9.8-4.2.7-6.4,1-.5,0-1.1,0-1.6.3-1.6.6-3.2.5-4.9-.3Z"/>
            <path class="cls-6" d="m1964.4,407.8c-.6,1.4-1.9,2.1-3.2,2.1-4.6,0-8.8,1.8-13.1,3-1,.3-2.1.4-3.2.6-2.1.3-4.2.6-6.4,1-.5,0-1.1.4-1.6.3-3.7-.4-7,.9-10.5,2-3.7,1.2-7.6,2.2-11.6,2.2-1.5,0-3,.6-4.4,1.1-3.9,1.1-7.8,2.3-11.9,2.4-.3,0-.6,0-.8,0-5.2,1.2-10.4,2.5-15.7,3.7,0,0-.2.1-.2.1-3.9-.2-7.5,2-11.4,1.7-3.7-.3-7.1.9-10.5,2.1-2.3.8-4.6.7-7,.7-1.4,0-2.6.1-3.8,1-.8.7-2.2.8-3.3,1.1-.8.2-1.6.2-2.3.5-4.2,1.9-8.9,1.7-13.2,3.5-1.5.6-3.4,0-5.1.2-.9,0-2,.3-2.7.8-1.4.9-2.7,1.2-4.3,1.3-1.7,0-3.4.4-5,.7-3.8.7-7.6,1.4-11.3,2-.4,0-1,0-1.3.2-2.4,1.7-5.3.9-7.8,1.8-.6.2-1.4,0-2.1,0-.5-1.2-.4-2.1.7-2.7,1-.5,2.1-1,3.2-1.3,1.2-.4,2.6-.3,3.6-.9,2-1,4.1-1.4,6.3-1.2,2.1.2,4.1-.2,6-1.4,1.1-.7,2.3-.9,3.6-.3.7.3,1.7.4,2.4.2,2.8-.8,5.6-1.8,8.5-2.6,1.2-.4,2.4-.7,3.6-.7,1.9,0,3.7-.2,5.6-.8,2.1-.6,4.2-.8,6.3-1.3,2.5-.6,5-1.2,7.6-1.8,1.1-.2,2.3,0,3.3-.4,2.6-.8,5.1-1.6,7.9-1.6,1.6,0,3.2-1,4.8-1.5.8-.2,1.6-.5,2.3-.5,2.9.1,5.7-.8,8.5-1.4,3.7-.7,7.2-2,11-2.2,2.2-.1,4.4-.8,6.6-1.3,3.8-.9,7.6-1.9,11.5-2.7,4.5-1,9.2-1.1,13.7-2.6,2.6-.8,5.2-1.5,7.6-2.6.7-.3,1.6-.4,2.4-.4,2.7,0,5.4-.1,8-1.1,1.8-.7,3.9-1,5.8-.9,3.5.1,6.8-1,10.1-1.6,2.9-.6,5.8-1.4,8.7-1.9,1.4-.2,3.1-.5,4.2,1.3Z"/>
            <path class="cls-6" d="m1698.1,460.5c.3,1.6-.9,2.1-1.9,2.3-3.3.8-6.7,1.4-9.9,2.3-3.2.8-6.5.8-9.7,2.3-1.9.9-4.4.8-6.6,1.2-1.4.2-2.9.3-4.2.7-2.5.7-5.2.9-7.4,2.5,0,0-.2.1-.2.1-3.6.5-7.3,1.1-10.9,1.6-2.9.3-5.8.3-8.6.8-1.4.2-2.6,1.1-3.9,1.7-1.1.5-2.3.5-3.5.6-2.8.1-5.8,0-8.3,1.6-.4.2-.8.7-1.2.7-3,0-5.8,1-8.7,1.5-3.5.5-7,1.2-10.6,1.9-3.3.6-6.6.6-9.6,2.4-4,0-7.7,1.9-11.8,1.5-.8,0-1.6.2-2.3.6-3.4,1.6-7.3,1.1-10.7,2.4-.4.1-.9.2-1.3,0-1.8-.7-3.4-.3-4.9.7-1.4.9-3,1.4-4.6,1.1-2.4-.4-4.3,1.3-6.5,1.6-1,.1-1.9.4-2.9.5-2.1.3-4.2.7-6.4,1-1.2.2-2.4.3-3.6.4-.4-2.2-.3-2.8,1.2-3.3,2.5-.8,5-1.5,7.5-2.3.2,0,.4,0,.5,0,3.1,1.4,6-.3,8.9-1,3.7-.8,7.3-1.8,11.1-1.9,1.7,0,3.4-1,5.1-1.5.8-.2,1.6-.3,2.3-.5,1.2-.3,2.4-.5,3.6-.8.7-.2,1.4-.6,2-.5,3.1.4,5.8-.7,8.7-1.6.8-.3,1.8-.4,2.6-.1,1.8.7,3.3.2,4.6-.9,1.5-1.2,3.1-1.6,5-1.6,1.4,0,2.8-.4,4.2-.6,1.7-.3,3.4-.7,5.1-.7,2,0,3.9-.5,5.7-1.4.8-.4,1.9-.7,2.8-.6,2.6,0,5.1-.3,7.7-1.1,3.5-1.1,6.9-2.6,10.7-2.5,1.4,0,2.9-.8,4.2-.5,3.5.7,6.7-.4,9.8-1.6,4-1.5,8-2.6,12.3-2.7.3,0,.5,0,.8-.1,2.1-.7,4.2-1.4,6.4-1.9,1.5-.4,3.2-.5,4.8-.7,1.7-.2,3.4-.3,5-.7,3.6-.7,7.1-1.8,10.5-3.3.6-.3,1.4-.3,2.1-.2,1.7.3,3.3.7,4.9,1Z"/>
            <path class="cls-6" d="m1712.1,456.6c4.1.9,8.2-1.6,12.7-2.3,3.7-.6,7.2-2.5,11.1-1.9.7.1,1.6-.2,2.3-.5,1.7-.7,3.3-1.4,5.2-.4.4.2,1.2,0,1.5-.2,3.1-2.5,7-2.7,10.6-3.7,1.9-.5,3.9-.5,5.9-.8,2.3-.4,4.6-1,6.9-1.4,1.1-.2,2.3-.4,3.4-.6.2,0,.4,0,.5,0,2.7-1.4,5.7-1.2,8.6-1.7,1.3-.2,2.7-.3,4-.2.6,0,1.3.6,1.6,1.1.4.9-.4,1.3-1.1,1.5-1.9.5-3.8.9-5.7,1.4-1.9.5-3.8,1.1-5.8.2-.5-.2-1.6.6-2.4.9-.7.3-1.4.8-2.2.9-3.1.6-6.2,1.1-9.3,1.6-.4,0-1,.5-1.2.3-2-1.2-3.6.1-5.4.8-1.1.4-2.2.6-3.4.8-3.4.5-6.7,1-10.1,1.6-.7.1-1.4.5-1.9,1-1.5,1.4-3.3,1.7-5.3,1.7-3.8,0-7.5.4-11.1,1.8-.6.2-1.6.5-2.1.2-1.5-.8-2.8,0-4.1.3-.9.2-1.7.5-2.6.5-2.8,0-5.3.7-7.8,1.9-.5.2-1,.7-1.5.6-.7,0-1.6-.3-2.1-.8-.3-.3-.1-1.4.3-1.9,1.3-1.7,3-2.8,5.3-2.7,1.4.1,2.9,0,5.1,0Z"/>
            <path class="cls-6" d="m1965.3,406.9c1.1-1.6,2.2-2.4,4.1-2.6,3-.4,5.9-1.5,8.8-2.3.6-.2,1.2-.5,1.8-.4,2.8.4,5.4-.4,7.9-1.5,1.8-.8,3.5-.7,5.3-.6,1.4,0,2.6-.4,3.9-1,1.7-.9,3.4-1.6,5.1-2.4,3.6-1.7,7.4-3,10.6-5.2,3.3-2.3,7.2-3.7,10-6.8,1.4-1.5,2.2-1.3,3.6.1-.3.5-.5,1.2-1,1.5-3.4,2.5-6.7,5.1-10.2,7.5-2,1.4-4.1,2.5-6.2,3.7-1.1.6-2.3.9-3.5,1.5-1.8.9-3.4,2-5.2,2.9-.8.4-1.7.7-2.5.9-3.1.7-6.3,1.3-9.5,1.9-.6.1-1.2.2-1.9.2-4,.3-7.8.9-11.5,2.6-3.1,1.4-6.4,1.3-9.7-.1Z"/>
            <path class="cls-6" d="m2052.2,341.1c1.1,1.2,1.1,2.3.7,3.6-.8,2.3-1.6,4.6-2.9,6.6-.4.6-.3,1.6-.7,2.3-1.3,3.1-3.1,5.9-5.3,8.4-.6.7-1.1,1.6-1.6,2.4-.9,1.5-1.7,3.1-2.6,4.7-.3.5-.7.9-.9,1.3-1,2.1-2.2,4.1-4,5.7-.6.6-.9,1.5-1.5,2.2-.6.9-1.3,1.7-2,2.5-.7.8-1.6.8-2.4,0-.7-.7-.8-1.5-.2-2.2,2.3-2.7,3.3-6.3,6.2-8.4.4-.3.7-.6.9-1,.8-2.3,2.6-3.9,4.3-5.5.8-.8,1.3-1.6,1.6-2.7.7-2.4,1.8-4.6,2.7-6.9.1-.3.3-.7.6-.9,2.6-2.1,3.1-5.1,3.5-8.2.2-1.9,1.2-3.6,3.5-4Z"/>
        </g>
        <g id="xpan-12.e">
            <path class="cls-6" d="m1558,351.1c0-.9.2-1.5.9-1.8,1.6-.8,3.1-1.8,4.8-2.4,1.1-.4,2.4-.4,3.7-.4,1.2,0,2.3.2,3.1-1.2.2-.4,1-.7,1.6-.8,2.5,0,4.8-.8,7.1-1.5,1.8-.6,3.6-1,5.4-1.4.3,0,.7-.3,1-.5,1.7-1.2,3.7-1.6,5.8-1.6.4,0,.9,0,1.2-.1,2.1-1.1,4.2-2.2,6.5-2.7.6-.1,1.1-.3,1.7-.4,2-.2,3.8-.7,5.6-1.5,2.2-1,4.7-1.6,7-2.3.2,0,.6.1.9.2.1.8-.3,1.3-.9,1.6-1.7.8-3.1,2.1-4.4,3.4-.8.8-2,1.2-2.7,2.2-.8,1.1-2.1,1.5-3.1,2.3-1.5,1.3-3.2,2-4.7,3.1-.9.6-1.5,1.7-2.2,2.6-.3.4-.7.8-1.2,1-1.1.7-2.3,1.2-3.5,1.8-.9.5-2,.8-2.5,1.9-2.1.8-3.5,2.6-5.2,4-1.8,1.5-3.9,2.5-5.8,3.8-.7.5-1.3,1.2-1.7,2-.6,1.1-1.3,2-2.4,2.7-1.7,1.1-3.2,2.4-4.7,3.7-.1.1-.3.3-.5.3-.4,0-.9.2-1.1,0-.4-.3-.5-.8-.1-1.2,2.2-2.7,2.7-6.1,4-9.1.4-1,.3-1.8-.4-2.5-2.4,1.3-4.7,2.6-7,3.8-.8.5-1.7.8-2.3,1.7-.2.4-.8.5-1.2.8-1.9,1.2-4.1,1.7-5.6,3.5-.2.3-.9.4-1.3.4-2.9.2-5.2,1.6-7.4,3.4-1.3,1.1-2.8,1.8-4.6,2.2-1.3.3-2.7,1-3.5,1.9-1.3,1.7-2.9,2.5-5,2.6-.7,0-1.1.3-1.5.8-.6.8-1.5,1.1-2.5,1.3-.7,0-1.5.3-1.9.8-.7.9-1.6,1.3-2.5,1.7-1.3.7-2.6,1.2-3.5,2.4-.4.6-1.3.9-2,1.1-1.1.3-2.2.4-3.3.7-.8.2-1.7.6-2.4,1.1-.9.7-1.6,1.7-2.5,2.4-.5.4-1.3.7-1.9.8-1.5,0-3,.1-3.9,1.7-.2.3-.6.4-.9.6-2.5,1.3-5.1,2.6-7.6,4-1.1.6-1.9,1.6-3.2,1.7-1,0-2,.3-2.7,1.3-.2.4-1.1.3-1.6.6-.7.3-1.4.6-2,1-.7.4-1.2,1.1-1.9,1.5-.9.6-1.9,1-2.9,1.4-1.3.5-2.7,1.1-4,1.2-1.4.2-2.4.7-3.1,1.7-.7,1.1-1.7,1.8-2.9,2.3-1.1.5-2.2,1.1-3.1,2.1-.6.7-1.8,1-2.7,1.1-2,.2-3.9.8-5.4,2.2-.8.7-1.5,1.3-2.4,1.7-.7.3-1.6.5-2.3.8-.4.1-.7.3-1.1.6-.6.4-1.1,1-1.7,1.3-2.1,1.2-4.3,2.3-6.5,3.4-1.2.6-2.2,1.4-3.6,1.3-.2,0-.3,0-.5.2-2.8,1.4-5.5,2.9-8.3,4.3-.3.2-.5.5-.7.8-.2.2-.5.5-.7.5-1.4-.3-1.9.7-2.6,1.5-1,1.4-2.4,2-4,2.4-1.5.4-2.8,1.2-4.2,1.9-1.1.6-2.1,1.3-3.5,1.3-.5,0-1.1.5-1.4,1-1,1.5-2.4,2.2-4.2,2.2-1.6,0-2.8,1-4,1.8-.7.5-1.3,1.1-2,1.5-1.5.8-3.1,1.5-4.6,2.4-.7.4-1.3,1-1.9,1.5-.7.5-1.4.9-2.1,1.2-.8.3-1.6.4-2.3.8-3.9,2-7.7,4-11.6,6-.7.3-1.4.5-2.2.7-.3.1-.8.2-.9.4-1,1.8-2.9,1.7-4.6,2-.9.2-1.4.5-2.1,1.1-1.4,1.1-2.5,2.7-4.5,3.1-1.1.2-2.5.6-3.2,1.3-1.8,1.8-4,2.5-6.1,3.7-1.3.7-2.7,1.4-4,2.1-.4.2-.8.7-1.2,1-.5.3-.9.6-1.5.8-.8.2-1.6.2-2.4.4-.6.2-1.2.4-1.5.8-.7,1-1.8,1.4-2.8,1.9-2.3,1.2-4.5,2.4-6.8,3.6-.6.3-1.3.4-2,.7-.4.1-.8.2-1.1.5-2,1.8-4.2,3-6.9,3.6-1,.2-1.9.8-2.7,1.3-1.1.7-2.2,1.3-3.6,1.4-.6,0-1.4.4-1.7.9-.7.9-1.6,1.4-2.6,1.9-.3.1-.6.2-.8.4-1.7,2.1-4.3,2.8-6.5,4-1.5.7-3.2.9-4.6,1.9-.5.3-1,.7-1.4,1.1-1.2,1.1-2.5,1.8-4.1,2.1-.5,0-1,.3-1.3.7-1,1-2.2,1.5-3.5,1.9-1.2.4-2.4,1-3.4,1.8-.8.7-1.6,1.2-2.6,1.3-.6.1-1.3.3-1.7.8-1.3,1.3-2.8,2.2-4.6,2.4-.3,0-.6.2-.8.4-1.8,2.1-4.5,2.7-6.7,4-.5.3-1.3.4-1.9.4-2.3.2-3.6,2.3-5.7,3-.2,0-.3.3-.5.5-1.3,1.5-1.7,1.6-3.6.7.2-1.5.7-2.6,2.2-3.4,1.6-.8,3.2-1.5,4.5-2.9,1.1-1.2,2.8-1,4.3-1.4.7-.2,1.4-.3,2-.6,1.6-.8,3.2-1.7,4.7-2.6.2-.1.5-.2.6-.4,1.4-2.1,3.5-2.6,5.7-3,.2,0,.4,0,.5-.2.8-1.4,2.4-1.2,3.6-1.9,1.2-.7,2.4-1.3,3.6-1.9,1.2-.7,2.4-1.2,3.4-2.3.7-.8,1.8-1.1,2.8-1.6,1.7-.8,3.2-2.1,5.2-2.2.3,0,.5-.4.8-.7,1-.8,1.9-1.7,3-2.5,1.3-1,2.9-1.1,4.5-1.4.8-.2,1.6-.5,2.2-1,1.4-1.3,3-2.2,5-2.6.4,0,.8-.3,1.1-.6.9-1.1,2.1-1.7,3.5-1.9.6,0,1.4-.5,1.8-1,.9-1,1.9-1.6,3.2-1.7.7,0,1.1-.3,1.5-.8.7-.9,1.7-1.3,2.9-1.5.7-.1,1.4-.4,1.8-.9.7-.7,1.3-1,2.3-1.1,1.9-.2,3.7-.6,4.8-2.5.7-1.2,2.1-1.7,3.5-1.9.9-.1,1.6-.4,2.2-1.1.4-.5,1-.8,1.6-1.2,1.9-1.1,3.9-2.1,5.9-3.1,1.4-.7,2.8-1.3,4.3-1.8,1.8-.5,3.5-1.4,4.9-2.8.9-.9,1.7-2,3.3-2.1.9,0,1.7-.8,2.6-1.2.8-.3,1.7-.6,2.5-.9.4-.2,1-.3,1.3-.5.9-.8,1.7-1.7,2.6-2.4.7-.6,1.6-1.1,2.5-1.4,1.1-.4,2.3-.4,3.4-.8,1.5-.6,3-1.5,4.4-2.3.7-.4,1.2-1,1.8-1.4,1.3-.8,2.7-1.5,4.1-2.2.2-.1.4-.3.6-.3,2.4-.5,4-2,5.7-3.5.3-.2.8-.3,1.2-.3,2.3-.1,4.4-.9,5.9-2.8,1.5-.3,2.1-2.2,3.9-2.2,1,0,2-.6,3-.9.2,0,.5-.2.6-.3,1.5-2,4-2.5,6-3.7,1-.7,2.1-1.3,3.5-1.3.7,0,1.4-.5,1.9-.9,1.9-1.9,4.2-3.1,6.8-3.6.2,0,.5-.2.6-.3,2.5-2.5,6-3.4,8.9-5.2.3-.2.7,0,1-.2.3,0,.7,0,1-.3,1.4-1,2.8-2,4-3.2,1.2-1.2,2.7-1,4.1-1.5.6-.2,1.3-.3,1.8-.6,3.5-1.8,6.9-3.6,10.3-5.4.2-.1.5-.2.6-.3.8-1.1,1.9-1.4,3.1-1.6,1.5-.3,2.6-1.2,3.6-2.3.8-.8,1.7-1.6,3-2,1.2-.3,2.5-.7,3.3-2,.2-.3.6-.6,1-.7,1.1-.3,2.3-.4,3.4-.8,2.1-.8,4.2-1.7,5.9-3.2.3-.3.7-.5,1.1-.6,1-.3,2-.3,2.9-.7.7-.4,1.4-1.1,1.9-1.8.6-.8,1.2-1.1,2.1-1.1.2,0,.5,0,.7-.1,2.4-1.2,5-2.2,7.1-3.8,1.8-1.3,3.6-2.6,5.7-3.5,1.7-.7,3.2-1.6,4.8-2.5,8.7-4.7,17.4-9.3,26.2-13.7,1.8-.9,3.8-1.4,5.4-2.8.5-.5,1.4-.5,2.1-.8.9-.4,2-.6,2.5-1.2.9-1.1,2.1-1.6,3.2-2.2,1.2-.6,2.3-1.3,3.5-1.8.6-.3,1.2-.4,1.8-.5.3,0,.7-.2,1-.3.8-.4,1.6-1,2.6-.9.6,0,.8-.4.6-1-.3-1.1-1.3-1.5-2.2-2-.5-.3-1.1-.4-1.7-.4-1.1,0-2-.3-3-.8-.7-.3-1.8-.1-2.6,0-.7.2-1.3.1-1.9-.2Z"/>
        </g>
        <g id="xpan-manifiesto">
            <path class="cls-6" d="m1238.4,55.2c1.2.7,1.9,1.6,1.7,3,0,.3-.1.7,0,1,.8,1.4.6,2.8.5,4.3,0,.8.4,1.6.6,2.4,0,.2.2.3.2.5-.4,2.4.8,4.6.7,7,0,.6.3,1.3.5,1.9.5,1.5.9,3,1.6,4.4.9,2,.7,4,.6,6,0,1.6.5,3,1.2,4.3,1.1,2.2,1.9,4.3,1.6,6.8,0,.7.3,1.5.4,2.3,0,.2.2.4.2.6-.3,1.7.4,3.4.8,5,.4,1.5.7,2.9.5,4.5,0,.3.2.5.2.8.1.5.3,1,.4,1.6.1.4.2.9.3,1.3.6,1.2.6,1.4-.6,2.4-1.4-.5-2-1.5-2.4-2.9-.4-1.3-.8-2.7-2.4-3.2-1-.3-1.9-.9-2.4-2.2-.5-1.3-2.6-1.8-3.9-1.2-.8.3-1.6.3-2.5,0-1.9-.8-2.6-.5-3.7,1.3-.8,1.6-1.7,3.1-2.6,4.7-.4.6-2.2,1.6-2.7,1.5-1.1-.2-2.1-2-1.8-3.1,0-.2.2-.4.3-.6.5-1.2,1-2.4,1.1-3.9,0-1,.7-2,1-3.1.1-.4.3-.9.3-1.3,0-1,0-2,0-3.1-.2-1.9.5-3.5,1.1-5.2.5-1.4.7-2.9.9-4.4.2-1.6-.2-3.2.6-4.6.2-.3.1-.9,0-1.3-.2-1.5.5-2.8,1.4-3.9.5-.6.7-1.1.6-1.8-.2-2.4.5-4.5,1.2-6.7.1-.4.1-.8.1-1.2,0-1.2.2-2.4.5-3.6.4-1.4.8-2.8,1.4-4.1.3-.7.2-1.6.1-2.3-.1-1.8.7-3,2.4-3.8Z"/>
            <path class="cls-6" d="m1238,478.2c.5,1.2,1,2.3,1.3,3.4.2.7.2,1.6,0,2.2-.4.9-.5,1.8-.5,2.8,0,1.2.1,2.4-.5,3.5-.2.4-.2,1.1,0,1.5.8,1.3.5,2.6.6,4,0,1,0,2,.5,3,.3.4.2,1.1.2,1.7,0,1.2,0,2.5,0,3.7,0,.4,0,1-.3,1.3-.5.6-.9,1.4-1.8,1.3-.7,0-1.7-1.5-1.9-2.4,0-.7-.4-1.3-.4-1.9,0-1,0-2.1,0-3.2,0-.8.4-1.5.4-2.3,0-3.3,0-6.7,0-10,0-.7.3-1.4.4-2.1,0-.9,0-1.9,0-2.8,0-.8-.4-1.5-.4-2.3,0-1.5,0-2.9,0-4.4,0-1,0-1.9.5-2.8.3-.5.1-1.3,0-1.9-.6-1.5-.6-3,0-4.4,0,0,0,0,0-.1.3-2.8.6-5.6-.2-8.4-.3-1-.5-1.9,0-2.8.4-.7.3-1.2,0-1.9-.6-1.3-.6-2.8,0-4.1.5-1.1.5-2.1,0-3.3-.2-.6-.3-1.3-.3-2,0-3.3,0-6.7,0-10,0-.4,0-.9-.2-1.3-.3-.5-.3-.9,0-1.4.2-.2.2-.6.2-1,0-1.1,0-2.1.5-3.1.2-.3.1-.9.1-1.3,0-2.7,0-5.3,0-8,0-1.6-.5-3-1-4.4-.4-1.2-.3-2.3,0-3.5.4-1.7,1.6-3.3.5-5.3-.6-1-.5-2.6.2-3.8.4-.8.4-1.5,0-2.2-.4-.8-.8-1.7-1-2.7-.1-.6-.2-1.4,0-1.8.8-1.3.5-2.8.6-4.1,0-2.3,0-4.5,0-6.8,0-1,0-1.9.5-2.8.3-.5.1-1.3,0-1.9-.6-1.6-.6-3,0-4.6.3-.8.1-1.8.3-2.7,0-.5.2-1.1.5-1.3.7-.4,1.3,0,1.8.6,1.2,1.8,1.3,3.7.7,5.7-.2.6-.4,1.3-.4,2,0,2.3,0,4.5,0,6.8,0,1.3.2,2.5.5,3.8.4,1.9.5,3.9-.2,5.9-.2.6-.2,1.5,0,2.1.6,1.8.6,3.5,0,5.3-.2.5-.2,1-.2,1.5,0,1.2,0,2.4,0,3.6s.1.8,0,1c-1,1.5-.1,3,0,4.5,0,.2,0,.4,0,.5,1.2,1.3.6,2.8.6,4.2,0,1.4.3,2.9-.5,4.3-.2.4-.2,1-.2,1.5,0,2.5,0,5,0,7.5,0,.9,0,1.8.5,2.6.3.4.3,1.2,0,1.6-.6,1.1-.5,2.2-.5,3.3,0,.5,0,1,0,1.5-.2,1.7.6,3.2,1,4.7.2.7.4,1.7.1,2.3-.4.9-.4,1.7-.5,2.6,0,1.6,0,3.2-.5,4.8-.4,1.7-.4,3.6.2,5.5.5,1.5.7,3.3-.2,4.9-.2.3-.2.6-.2,1,0,.3,0,.7,0,1-.9,1.4-.5,2.6,0,4,1.3,2.9,1.1,5.8-.7,8.6Z"/>
            <path class="cls-6" d="m1240.3,152.2c-1.6,1.7-1.7,3.6-1.6,5.5,0,.4.2.8.3,1.3.1.5.4,1.1.3,1.6-.3,1.1-.7,2.1-1.1,3.1-.1.4-.3.8-.2,1.1,0,1.6.4,3.1,1.2,4.5.2.3.2.6.2,1,.1,1.3-.2,2.6.4,3.9.2.5-.3,1.4-.6,2-.4.6-.5,1.2-.4,1.9,0,1.2,0,2.5,0,3.7,0,.8-.2,1.6.5,2.2.2.2,0,.7.1,1.1,0,.4,0,.8.2,1.1.9,1.3.6,2.6.2,4-.2.6-.5,1.5-.2,1.9,1.1,1.6.3,2.8-.4,4.1-.4.7-1,1.3-1.5,1.8-.6.6-1.6.5-2.2,0-.7-.6-.9-1.2-.5-2.1.8-1.7,1.3-3.4,1.2-5.3,0-1.5,0-3.1,0-4.6,0-1,0-2-.5-3-.4-.8-.3-1.9-.2-2.8.2-1.3.6-2.5,1-3.7.2-.6.3-1.1,0-1.8-.3-.6-.4-1.3-.4-2,0-4,0-7.9,0-11.9,0-.8-.3-1.5-.5-2.3,0-.4-.3-.9-.2-1.3.1-1.9-.4-3.8.6-5.6.4-.7,0-2-.2-3,0-.7-.4-1.3-.4-2,0-1.8,0-3.5,0-5.3,0-1.5.3-2.8,1.1-4,.4-.6.3-1,0-1.6-.3-.6-.4-1.3-.5-1.9,0-2.2-.1-4.4,0-6.6.1-1.6-.4-3.1-1-4.6-.5-1.4-.5-2.6,0-3.9.4-1.2.8-2.5,1-3.7.1-.6,0-1.4-.2-2-.8-1.9-.5-3.6.7-5.2.7-.9,1.4-.9,2,.1.2.4.2.9.2,1.3,0,1.9,0,3.7,0,5.6,0,1,0,2,.5,3,.4,1,.4,2.1-.2,3.1-.4.8-.4,1.6,0,2.4.2.6.4,1.2.4,1.8,0,3.8,0,7.6,0,11.4,0,.4,0,.9,0,1.2-1,2-.4,4.2-.6,6.4,0,.7.4,1.4.5,2.1.1,1,.2,2,.2,3,0,1-.2,2.1.9,2.8Z"/>
            <path class="cls-6" d="m1238.1,201.2c1.1.5,1.4,1.2,1.3,2.2,0,1.1,0,2.2,0,3.2,0,.4,0,.9-.2,1.3-.7,1.8-.5,3.4,0,5.3.5,1.9.5,3.9-.1,5.9-.5,1.7-.6,3.5,0,5.1.4,1,.5,2,0,2.9-.2.3-.3.7-.3,1.1,0,2,0,4.1,0,6.1,0,.2,0,.4,0,.5,1.3,3.5.4,7.1.6,10.6,0,.3-.2.7-.3,1-.6,1.5-.8,2.9.4,4.4-.8.8-.8,1.8-.7,2.8,0,3.6,0,7.3,0,10.9,0,.7.3,1.4.4,2.1,0,.8.2,1.7,0,2.5-.5,1.6-.5,3.1,0,4.8.4,1.2.3,2.6.1,3.9,0,.4-.7,1-1.3,1.2-.7.3-1.4-.1-1.7-.8-.6-1.3-1.5-2.5-.4-4.1.4-.6,0-1.6,0-2.5,0-.7-.4-1.4-.4-2.1,0-1.7,0-3.4,0-5.1,0-1,0-2,.5-3,.3-.7.1-1.8-.1-2.6-.4-1.4-.6-5.1,0-6.5.3-.8.3-1.5,0-2.3-.2-.6-.4-1.2-.4-1.8,0-1.4,0-2.7,0-4.1,0-.7.3-1.3.4-2,0-.7.1-1.4,0-2.1,0-.8-.4-1.5-.4-2.3,0-1.8,0-3.5,0-5.3,0-1.3,0-2.6-.5-4-.4-1-.3-2.3,0-3.3.3-.9.3-1.8.5-2.6.4-1.7.5-3.4,0-5.2-.2-.5,0-1.2.3-1.8.5-1.3.4-2.5,0-3.9-.4-1.2-.4-2.6,0-3.8.3-1.1.4-2.2.4-3.3,0-2,.1-2.2,2-3.4Z"/>
            <path class="cls-6" d="m1240,329.9c-.7,1.7-1.3,3.2-1.9,4.8-.1.3-.1.9,0,1.2.8,1.2.6,2.5.5,3.8-.1,1.6.5,3.1,1.1,4.5.3.8.3,1.3,0,2.1-.5,1.4-1.1,2.8-1.1,4.4.1,3.7,0,7.4,0,11.1,0,1.5-.6,2.7-1.5,3.8-1.3-.7-1.9-1.5-1.9-2.9,0-3,0-6,0-9,0-1.1-.6-2.1-.1-3.4.4-1,.1-2.3.1-3.5,0-.4,0-.8-.2-1.1-.7-1.1-.6-2.1-.1-3.2.5-1.2,1.3-2.4,1-3.9,0-.4-.2-.8-.2-1.1-.1-.7-.4-1.4-.4-2.1,0-1,0-2,0-3-.1-1.5.1-2.8.9-4,.7-1.1.6-2.2.1-3.4-.2-.6-.5-1.2-.7-1.9,0-.2,0-.5,0-.8.1-.7.3-1.4.3-2.1,0-.9-.2-1.8-.7-2.7.3-.6.5-1.2.9-1.8.6-.9,1.2-1,2.1-.2.7.6,1.1,1.3,1.1,2.4,0,1.8,0,3.6,0,5.4,0,.4,0,1-.2,1.3-.9,1.6-.6,3,.2,4.5.2.4.4.8.6,1Z"/>
            <path class="cls-6" d="m1235,287.4c.5-.4.6-1.2.5-2.1,0-.7,0-1.4,0-2,0-.8.5-1.3,1.3-1.4.6-.1,1.3.7,1.4,1.4,0,.3,0,.6,0,.8.2,1.6.5,3.1,1.1,4.6.5,1.2.4,2.4,0,3.6-.1.4-.2.7-.4,1.1-.5,1.1-.8,2.2,0,3.5.3.5,0,1.2,0,1.8,0,.7.3,1.4.4,2.1,0,.6.2,1.1.3,1.7,0,1.9,0,3.9,0,5.8,0,1.3-.7,2-1.5,2.7-.2.2-.7.2-.9,0-.9-.6-1.7-1.3-1.6-2.6,0-2.1,0-4.2,0-6.3,0-1,0-2-.5-3-.3-.6-.2-1.4,0-2.1.2-.7.5-1.4.9-2,.4-.7.3-1.3,0-2-.3-.8-.3-1.7-.5-2.6-.1-.9-.3-1.8-.5-3.1Z"/>
        </g>
    </g>
</svg>