<?xml version="1.0" encoding="UTF-8"?>
<svg id="a" data-name="Layer 1" xmlns="http://www.w3.org/2000/svg" viewBox="0 0 815.969 736.203">
  <defs>
    <style>
      .b {
        font-size: 64px;
      }

      .c {
        font-family: TimesNewRomanPS-ItalicMT, 'Times New Roman';
        font-style: italic;
      }

      .d {
        stroke-width: 0px;
      }

      .e {
        font-family: TimesNewRomanPSMT, 'Times New Roman';
      }
    </style>
  </defs>
  <text class="b" transform="translate(0 716.578)"><tspan class="c" x="0" y="0">isomorfía</tspan><tspan class="e" x="245.375" y="0" xml:space="preserve"> / </tspan><tspan class="c" x="295.156" y="0">formas concéntricas</tspan></text>
  <g>
    <path class="d" d="m407.985,4c15.439,0,28,12.561,28,28s-12.561,28-28,28-28-12.561-28-28,12.561-28,28-28m0-4c-17.673,0-32,14.327-32,32s14.327,32,32,32,32-14.327,32-32S425.658,0,407.985,0h0Z"/>
    <path class="d" d="m136.985,272c15.439,0,28,12.561,28,28s-12.561,28-28,28-28-12.561-28-28,12.561-28,28-28m0-4c-17.673,0-32,14.327-32,32s14.327,32,32,32,32-14.327,32-32-14.327-32-32-32h0Z"/>
    <path class="d" d="m678.985,272c15.439,0,28,12.561,28,28s-12.561,28-28,28-28-12.561-28-28,12.561-28,28-28m0-4c-17.673,0-32,14.327-32,32s14.327,32,32,32,32-14.327,32-32-14.327-32-32-32h0Z"/>
    <path class="d" d="m407.985,540c15.439,0,28,12.561,28,28s-12.561,28-28,28-28-12.561-28-28,12.561-28,28-28m0-4c-17.673,0-32,14.327-32,32s14.327,32,32,32,32-14.327,32-32-14.327-32-32-32h0Z"/>
    <g>
      <path class="d" d="m475.211,137.702l95.072,95.072v134.452l-95.072,95.072h-134.452l-95.072-95.072v-134.452l95.072-95.072h134.452m1.657-4h-137.766l-97.415,97.415v137.766l97.415,97.415h137.766l97.415-97.415v-137.766l-97.415-97.415h0Z"/>
      <path class="d" d="m241.985,348c11.028,0,20,8.972,20,20s-8.972,20-20,20-20-8.972-20-20,8.972-20,20-20m0-4c-13.255,0-24,10.745-24,24s10.745,24,24,24,24-10.745,24-24-10.745-24-24-24h0Z"/>
      <path class="d" d="m573.985,348c11.028,0,20,8.972,20,20s-8.972,20-20,20-20-8.972-20-20,8.972-20,20-20m0-4c-13.255,0-24,10.745-24,24s10.745,24,24,24,24-10.745,24-24-10.745-24-24-24h0Z"/>
      <path class="d" d="m338.985,446c11.028,0,20,8.972,20,20s-8.972,20-20,20-20-8.972-20-20,8.972-20,20-20m0-4c-13.255,0-24,10.745-24,24s10.745,24,24,24,24-10.745,24-24-10.745-24-24-24h0Z"/>
      <path class="d" d="m476.985,446c11.028,0,20,8.972,20,20s-8.972,20-20,20-20-8.972-20-20,8.972-20,20-20m0-4c-13.255,0-24,10.745-24,24s10.745,24,24,24,24-10.745,24-24-10.745-24-24-24h0Z"/>
      <path class="d" d="m241.985,211c11.028,0,20,8.972,20,20s-8.972,20-20,20-20-8.972-20-20,8.972-20,20-20m0-4c-13.255,0-24,10.745-24,24s10.745,24,24,24,24-10.745,24-24-10.745-24-24-24h0Z"/>
      <path class="d" d="m338.985,114c11.028,0,20,8.972,20,20s-8.972,20-20,20-20-8.972-20-20,8.972-20,20-20m0-4c-13.255,0-24,10.745-24,24s10.745,24,24,24,24-10.745,24-24-10.745-24-24-24h0Z"/>
      <path class="d" d="m475.985,114c11.028,0,20,8.972,20,20s-8.972,20-20,20-20-8.972-20-20,8.972-20,20-20m0-4c-13.255,0-24,10.745-24,24s10.745,24,24,24,24-10.745,24-24-10.745-24-24-24h0Z"/>
      <path class="d" d="m573.985,211c11.028,0,20,8.972,20,20s-8.972,20-20,20-20-8.972-20-20,8.972-20,20-20m0-4c-13.255,0-24,10.745-24,24s10.745,24,24,24,24-10.745,24-24-10.745-24-24-24h0Z"/>
    </g>
    <path class="d" d="m407.985,35.502l264.498,264.498-264.498,264.498L143.486,300,407.985,35.502m0-5.657L137.829,300l270.155,270.155,270.155-270.155L407.985,29.845h0Z"/>
  </g>
</svg>